<svg xmlns="http://www.w3.org/2000/svg" viewBox="0 0 1024 1240">
  <g fill="none" stroke="#ff4f9a" stroke-width="13" stroke-linecap="round" stroke-linejoin="round">
    <circle cx="290" cy="510" r="40"/><circle cx="286" cy="580" r="32"/><circle cx="282" cy="638" r="24"/>
    <circle cx="734" cy="510" r="40"/><circle cx="738" cy="580" r="32"/><circle cx="742" cy="638" r="24"/>
    <circle cx="512" cy="460" r="170"/>
    <path d="M 338,500 Q 330,272 512,268 Q 694,272 686,500
             Q 662,438 630,452 Q 610,398 566,428 Q 544,388 512,418
             Q 480,388 458,428 Q 414,398 394,452 Q 362,438 338,500 Z"/>
    <path d="M 298,452 L 262,430 Q 250,452 262,474 Z M 298,452 L 334,430 Q 346,452 334,474 Z"/>
    <path d="M 726,452 L 690,430 Q 678,452 690,474 Z M 726,452 L 762,430 Q 774,452 762,474 Z"/>
    <path d="M 434,618 Q 512,598 590,618 L 626,780 Q 512,808 398,780 Z"/>
    <circle cx="424" cy="646" r="26"/><circle cx="600" cy="646" r="26"/>
    <ellipse cx="466" cy="806" rx="30" ry="17"/><ellipse cx="558" cy="806" rx="30" ry="17"/>
    <path d="M 472,612 Q 512,640 552,612 Q 532,600 512,602 Q 492,600 472,612 Z"/>
    <path d="M 470,660 L 478,772 Q 512,784 546,772 L 554,660 Z"/>
    <ellipse cx="512" cy="658" rx="44" ry="13"/>
    <line x1="528" y1="656" x2="552" y2="608"/>
    <circle cx="464" cy="708" r="22"/><circle cx="560" cy="708" r="22"/>
    <path d="M 490,528 Q 512,552 534,528"/>
  </g>
  <g fill="#ff4f9a" stroke="none">
    <ellipse cx="448" cy="478" rx="24" ry="33"/>
    <ellipse cx="576" cy="478" rx="24" ry="33"/>
    <circle cx="494" cy="740" r="9"/><circle cx="518" cy="750" r="9"/><circle cx="537" cy="736" r="9"/>
  </g>
  <text x="512" y="1040" text-anchor="middle" font-family="Arial, sans-serif" font-size="150" font-weight="bold" fill="#ff4f9a" letter-spacing="2">EM BÉ TÍT</text>
  <text x="512" y="1130" text-anchor="middle" font-family="Arial, sans-serif" font-size="58" font-weight="bold" fill="#ff4f9a" letter-spacing="10">TRÀ CHANH ♥ TRÀ SỮA</text>
</svg>
