<svg xmlns="http://www.w3.org/2000/svg" viewBox="0 0 2200 900">
  <defs>
    <radialGradient id="iris" cx="0.5" cy="0.35" r="0.75">
      <stop offset="0%" stop-color="#8a5560"/><stop offset="55%" stop-color="#5c333e"/><stop offset="100%" stop-color="#241419"/>
    </radialGradient>
    <radialGradient id="hairG" cx="0.42" cy="0.22" r="1.0">
      <stop offset="0%" stop-color="#82525a"/><stop offset="40%" stop-color="#553137"/><stop offset="100%" stop-color="#2e161b"/>
    </radialGradient>
    <radialGradient id="bumpG" cx="0.38" cy="0.28" r="0.95">
      <stop offset="0%" stop-color="#7a4c53"/><stop offset="55%" stop-color="#4d2b31"/><stop offset="100%" stop-color="#2b1418"/>
    </radialGradient>
    <linearGradient id="dressG" x1="0" y1="0" x2="0" y2="1">
      <stop offset="0%" stop-color="#ff69ab"/><stop offset="100%" stop-color="#e0357f"/>
    </linearGradient>
    <radialGradient id="blushG">
      <stop offset="0%" stop-color="#ff8fbc" stop-opacity="0.95"/><stop offset="100%" stop-color="#ff8fbc" stop-opacity="0"/>
    </radialGradient>
    <linearGradient id="frameG" x1="0" y1="0" x2="0" y2="1">
      <stop offset="0%" stop-color="#ff6ba9"/><stop offset="100%" stop-color="#e0357f"/>
    </linearGradient>
  </defs>
  <g transform="translate(-140,-155) scale(1.25)">
  
  
  <g stroke="#241419" stroke-width="8" stroke-linecap="round" stroke-linejoin="round">
    <!-- woven braided pigtails -->
    <g>
      <ellipse cx="285" cy="492" rx="30" ry="21" transform="rotate(38 285 492)" fill="url(#bumpG)"/><ellipse cx="299" cy="524" rx="28" ry="20" transform="rotate(-38 299 524)" fill="url(#bumpG)"/><ellipse cx="285" cy="556" rx="26" ry="19" transform="rotate(38 285 556)" fill="url(#bumpG)"/><ellipse cx="299" cy="588" rx="24" ry="17" transform="rotate(-38 299 588)" fill="url(#bumpG)"/><ellipse cx="285" cy="618" rx="21" ry="15" transform="rotate(38 285 618)" fill="url(#bumpG)"/><ellipse cx="299" cy="646" rx="18" ry="13" transform="rotate(-38 299 646)" fill="url(#bumpG)"/><path d="M 278,664 Q 286,700 282,712 Q 292,694 306,666 Z" fill="url(#bumpG)"/>
      <ellipse cx="739" cy="492" rx="30" ry="21" transform="rotate(-38 739 492)" fill="url(#bumpG)"/><ellipse cx="725" cy="524" rx="28" ry="20" transform="rotate(38 725 524)" fill="url(#bumpG)"/><ellipse cx="739" cy="556" rx="26" ry="19" transform="rotate(-38 739 556)" fill="url(#bumpG)"/><ellipse cx="725" cy="588" rx="24" ry="17" transform="rotate(38 725 588)" fill="url(#bumpG)"/><ellipse cx="739" cy="618" rx="21" ry="15" transform="rotate(-38 739 618)" fill="url(#bumpG)"/><ellipse cx="725" cy="646" rx="18" ry="13" transform="rotate(38 725 646)" fill="url(#bumpG)"/><path d="M 718,664 Q 738,700 742,712 Q 732,694 746,666 Z" fill="url(#bumpG)"/>
    </g>

    <!-- head -->
    <circle cx="512" cy="462" r="170" fill="#ffdcc5"/>

    <!-- hair cap with scalloped bangs -->
    <path d="M 338,502 Q 328,272 512,268 Q 696,272 686,502
             Q 664,438 630,454 Q 610,398 566,430 Q 544,388 512,420
             Q 480,388 458,430 Q 414,398 394,454 Q 360,438 338,502 Z" fill="url(#hairG)"/>
    <!-- hair shine -->
    <g fill="none" stroke="#7d4d52" stroke-width="9" stroke-linecap="round" opacity="0.55">
      <path d="M 420,330 Q 470,300 540,302"/>
      <path d="M 450,352 Q 495,328 550,328"/>
    </g>
    <!-- realistic hair strands -->
    <g fill="none" stroke="#33191e" stroke-width="5" opacity="0.4" stroke-linecap="round">
      <path d="M 512,274 Q 438,304 406,372"/>
      <path d="M 512,274 Q 586,304 618,372"/>
      <path d="M 512,272 Q 498,324 468,384"/>
      <path d="M 512,272 Q 526,324 556,384"/>
      <path d="M 418,322 Q 396,364 378,432"/>
      <path d="M 606,322 Q 628,364 646,432"/>
      <path d="M 452,432 q -8,26 -20,42"/>
      <path d="M 512,422 q -2,28 -8,46"/>
      <path d="M 572,432 q 8,26 20,42"/>
    </g>
    <!-- 3D dome highlight -->
    <ellipse cx="462" cy="330" rx="96" ry="44" transform="rotate(-16 462 330)" fill="#96626a" opacity="0.45" stroke="none"/>
    <ellipse cx="452" cy="318" rx="52" ry="22" transform="rotate(-16 452 318)" fill="#b07b82" opacity="0.4" stroke="none"/>
    <!-- scallop shading on fringe -->
    <g fill="none" stroke="#2f171c" stroke-width="7" opacity="0.35" stroke-linecap="round">
      <path d="M 610,404 q 22,14 26,38"/>
      <path d="M 546,394 q 18,12 22,32"/>
      <path d="M 484,394 q -18,12 -22,32"/>
      <path d="M 420,404 q -22,14 -26,38"/>
    </g>

    <!-- hair bows -->
    <g fill="#ff4f9a">
      <path d="M 298,450 L 260,426 Q 246,450 260,474 Z"/>
      <path d="M 298,450 L 336,426 Q 350,450 336,474 Z"/>
      <circle cx="298" cy="450" r="11"/>
    </g>
    <g fill="#ff4f9a">
      <path d="M 726,450 L 688,426 Q 674,450 688,474 Z"/>
      <path d="M 726,450 L 764,426 Q 778,450 764,474 Z"/>
      <circle cx="726" cy="450" r="11"/>
    </g>

    <!-- dress with frill -->
    <path d="M 434,620 Q 512,600 590,620 L 628,782 Q 512,812 396,782 Z" fill="url(#dressG)"/>
    <path d="M 396,782 Q 421,796 446,784 Q 468,800 490,786 Q 512,802 534,786 Q 556,800 578,784 Q 603,796 628,782 Q 570,806 512,806 Q 454,806 396,782 Z" fill="#fff" stroke-width="6"/>
    <!-- sleeves -->
    <circle cx="422" cy="648" r="27" fill="url(#dressG)"/>
    <circle cx="602" cy="648" r="27" fill="url(#dressG)"/>
    <!-- feet with shoes -->
    <ellipse cx="464" cy="812" rx="30" ry="17" fill="#ff87b8"/>
    <ellipse cx="560" cy="812" rx="30" ry="17" fill="#ff87b8"/>
  </g>

  <!-- collar -->
  <path d="M 470,614 Q 512,644 554,614 Q 533,601 512,603 Q 491,601 470,614 Z" fill="#fff" stroke="#241419" stroke-width="7"/>

  <!-- dress fold shading -->
  <g fill="#e0357f" opacity="0.5" stroke="none">
    <path d="M 452,640 L 444,762 L 462,764 Z"/>
    <path d="M 572,640 L 580,762 L 562,764 Z"/>
  </g>

  <!-- face -->
  <g stroke="none">
    <!-- eyebrows -->
    
    
    <ellipse cx="448" cy="480" rx="31" ry="41" fill="#fff"/>
    <ellipse cx="448" cy="482" rx="25" ry="36" fill="url(#iris)"/>
    <ellipse cx="448" cy="488" rx="11" ry="17" fill="#12080c"/>
    <circle cx="439" cy="466" r="10" fill="#fff"/>
    <circle cx="458" cy="498" r="4.5" fill="#fff" opacity="0.9"/>
    <ellipse cx="448" cy="470" rx="25" ry="12" fill="#fff" opacity="0.12"/>
    
    
    <ellipse cx="576" cy="480" rx="31" ry="41" fill="#fff"/>
    <ellipse cx="576" cy="482" rx="25" ry="36" fill="url(#iris)"/>
    <ellipse cx="576" cy="488" rx="11" ry="17" fill="#12080c"/>
    <circle cx="567" cy="466" r="10" fill="#fff"/>
    <circle cx="586" cy="498" r="4.5" fill="#fff" opacity="0.9"/>
    <ellipse cx="576" cy="470" rx="25" ry="12" fill="#fff" opacity="0.12"/>
    
    <!-- blush -->
    <ellipse cx="400" cy="535" rx="34" ry="20" fill="url(#blushG)"/>
    <ellipse cx="624" cy="535" rx="34" ry="20" fill="url(#blushG)"/>
    <!-- open happy mouth -->
    <path d="M 488,528 Q 512,558 536,528 Q 512,545 488,528 Z" fill="#c2455e" stroke="#241419" stroke-width="6" stroke-linejoin="round"/>
    <!-- nose dot -->
    <circle cx="512" cy="512" r="3.5" fill="#f5c3a8"/>
  </g>

  <!-- boba cup -->
  <g stroke="#241419" stroke-width="8" stroke-linejoin="round" stroke-linecap="round">
    <path d="M 470,662 L 478,774 Q 512,786 546,774 L 554,662 Z" fill="#ffeaf3"/>
    <path d="M 470,708 L 474,764 Q 512,776 550,764 L 554,708 Q 512,722 470,708 Z" fill="#ffc1d9" stroke="none"/>
    <circle cx="494" cy="746" r="9" fill="#4a2a2e" stroke="none"/>
    <circle cx="518" cy="756" r="9" fill="#4a2a2e" stroke="none"/>
    <circle cx="537" cy="742" r="9" fill="#4a2a2e" stroke="none"/>
    <ellipse cx="512" cy="660" rx="44" ry="13" fill="#fff"/>
    <line x1="528" y1="658" x2="552" y2="610" stroke="#ff4f9a" stroke-width="13"/>
    <circle cx="464" cy="710" r="22" fill="#ffdcc5"/>
    <circle cx="560" cy="710" r="22" fill="#ffdcc5"/>
  </g>

  
  </g>
  <path d="M 880,154 Q 884.68,175.32 906,180 Q 884.68,184.68 880,206 Q 875.32,184.68 854,180 Q 875.32,175.32 880,154 Z" fill="#ff4f9a"/><path d="M 2060,140 Q 2065.4,164.6 2090,170 Q 2065.4,175.4 2060,200 Q 2054.6,175.4 2030,170 Q 2054.6,164.6 2060,140 Z" fill="#ffb3d1"/><path d="M 2130,402 Q 2133.24,416.76 2148,420 Q 2133.24,423.24 2130,438 Q 2126.76,423.24 2112,420 Q 2126.76,416.76 2130,402 Z" fill="#ff4f9a"/><path d="M 860,580 Q 863.6,596.4 880,600 Q 863.6,603.6 860,620 Q 856.4,603.6 840,600 Q 856.4,596.4 860,580 Z" fill="#ffb3d1"/><path d="M 950,339.8 C 921.4,317.8 936.8,298 950,312.3 C 963.2,298 978.6,317.8 950,339.8 Z" fill="#ffb3d1"/><path d="M 2050,618.0 C 2024.0,598.0 2038.0,580 2050,593.0 C 2062.0,580 2076.0,598.0 2050,618.0 Z" fill="#ff4f9a"/><path d="M 1990,312.6 C 1971.8,298.6 1981.6,286 1990,295.1 C 1998.4,286 2008.2,298.6 1990,312.6 Z" fill="#ffb3d1"/>
  <g fill="#ffb3d1" opacity="0.9"><g transform="translate(945.8,453.0) rotate(-4) scale(0.25000,-0.25000) translate(-274.0,0)"><path d="M65 442H235V6Q224 3 203.0 0.0Q182 -3 158 -3Q115 -3 90.0 22.0Q65 47 65 90ZM235 161H65V513Q65 556 90.0 581.0Q115 606 158 606Q182 606 203.0 603.0Q224 600 235 597ZM158 240V376H460Q467 365 472.5 348.0Q478 331 478 310Q478 273 462.0 256.5Q446 240 418 240ZM158 -3V135H492Q499 124 504.5 106.0Q510 88 510 67Q510 30 494.0 13.5Q478 -3 450 -3ZM158 469V606H488Q495 595 500.5 578.0Q506 561 506 540Q506 503 490.0 486.0Q474 469 446 469Z"/></g><g transform="translate(1128.1,479.0) rotate(4) scale(0.25000,-0.25000) translate(-423.5,0)"><path d="M508 334V221H338V311Q338 341 320.5 354.5Q303 368 278 368Q259 368 245.0 362.5Q231 357 222 352V221H52V373Q52 400 63.5 417.0Q75 434 95 448Q129 472 179.5 486.5Q230 501 285 501Q332 501 375.0 486.5Q418 472 453 440Q461 433 469.5 426.0Q478 419 482 411Q493 394 500.5 374.0Q508 354 508 334ZM794 316V221H624V311Q624 341 608.0 354.5Q592 368 566 368Q547 368 530.0 360.5Q513 353 502 344L409 439Q444 464 486.5 482.5Q529 501 592 501Q643 501 689.5 483.0Q736 465 765.0 424.5Q794 384 794 316ZM52 264H222V1Q211 -2 190.5 -5.0Q170 -8 146 -8Q97 -8 74.5 9.0Q52 26 52 72ZM338 264H508V1Q497 -2 476.5 -5.0Q456 -8 432 -8Q383 -8 360.5 9.0Q338 26 338 72ZM624 264H794V1Q783 -2 762.5 -5.0Q742 -8 718 -8Q669 -8 646.5 9.0Q624 26 624 72Z"/></g><g transform="translate(1377.4,453.0) rotate(-4) scale(0.25000,-0.25000) translate(-309.5,0)"><path d="M379 369V247H173V369ZM317 247 322 341Q410 341 468.0 322.0Q526 303 555.5 267.0Q585 231 585 178Q585 80 511.0 32.0Q437 -16 300 -16Q277 -16 245.0 -14.0Q213 -12 180.0 -6.5Q147 -1 120 9Q65 30 65 82V549Q65 570 77.0 581.5Q89 593 108 600Q142 612 193.5 617.5Q245 623 298 623Q425 623 494.5 579.5Q564 536 564 447Q564 397 533.5 363.5Q503 330 447.0 313.5Q391 297 314 297L308 369Q351 369 370.5 385.0Q390 401 390 432Q390 459 367.5 475.0Q345 491 300 491Q285 491 265.5 490.0Q246 489 235 487V125Q249 121 271.5 119.5Q294 118 313 118Q353 118 379.5 134.5Q406 151 406 186Q406 219 383.5 233.0Q361 247 317 247Z"/></g><g transform="translate(1531.4,479.0) rotate(4) scale(0.25000,-0.25000) translate(-274.5,0)"><path d="M134 167 128 279 359 317Q357 337 339.0 357.0Q321 377 283 377Q243 377 216.5 351.0Q190 325 188 277L194 193Q204 147 239.5 129.0Q275 111 319 111Q361 111 399.0 122.0Q437 133 460 146Q476 136 487.0 118.0Q498 100 498 80Q498 47 473.5 25.5Q449 4 406.0 -6.0Q363 -16 307 -16Q229 -16 166.5 13.5Q104 43 67.5 102.0Q31 161 31 250Q31 316 52.5 364.0Q74 412 110.0 442.0Q146 472 190.5 486.5Q235 501 282 501Q353 501 406.0 473.5Q459 446 489.0 398.5Q519 351 519 289Q519 255 500.0 237.0Q481 219 447 214ZM230 643 331 752Q383 752 409.0 730.0Q435 708 435 680Q435 657 425.0 641.5Q415 626 391 606L296 528Q252 528 229.5 549.0Q207 570 207 594Q207 606 211.5 617.0Q216 628 230 643Z"/></g><g transform="translate(1735.5,453.0) rotate(-4) scale(0.25000,-0.25000) translate(-278.0,0)"><path d="M185 466V606H518Q525 595 530.5 577.0Q536 559 536 538Q536 501 519.5 483.5Q503 466 475 466ZM369 606V466H36Q29 477 23.5 495.0Q18 513 18 534Q18 572 34.5 589.0Q51 606 79 606ZM187 493H362V1Q351 -2 328.0 -5.0Q305 -8 281 -8Q229 -8 208.0 10.5Q187 29 187 75Z"/></g><g transform="translate(1848.2,479.0) rotate(4) scale(0.25000,-0.25000) translate(-141.0,0)"><path d="M56 257H226V1Q215 -2 194.5 -5.0Q174 -8 150 -8Q101 -8 78.5 9.0Q56 26 56 72ZM226 211H56V479Q67 482 87.5 485.0Q108 488 132 488Q182 488 204.0 471.5Q226 455 226 408ZM93 643 194 752Q246 752 272.0 730.0Q298 708 298 680Q298 657 288.0 641.5Q278 626 254 606L159 528Q115 528 92.5 549.0Q70 570 70 594Q70 606 74.5 617.0Q79 628 93 643Z"/></g><g transform="translate(1941.1,453.0) rotate(-4) scale(0.25000,-0.25000) translate(-198.5,0)"><path d="M54 264H222V167Q222 142 238.5 130.5Q255 119 285 119Q300 119 316.0 121.5Q332 124 344 128Q353 118 359.5 104.0Q366 90 366 71Q366 34 337.5 9.5Q309 -15 237 -15Q149 -15 101.5 25.0Q54 65 54 155ZM164 345V475H353Q359 465 364.5 448.0Q370 431 370 411Q370 376 354.5 360.5Q339 345 313 345ZM222 240H54V599Q65 602 85.5 605.5Q106 609 129 609Q178 609 200.0 592.0Q222 575 222 529Z"/></g></g>
  <g fill="none" stroke="#ffffff" stroke-width="46" stroke-linejoin="round"><g transform="translate(941.8,447.0) rotate(-4) scale(0.25000,-0.25000) translate(-274.0,0)"><path d="M65 442H235V6Q224 3 203.0 0.0Q182 -3 158 -3Q115 -3 90.0 22.0Q65 47 65 90ZM235 161H65V513Q65 556 90.0 581.0Q115 606 158 606Q182 606 203.0 603.0Q224 600 235 597ZM158 240V376H460Q467 365 472.5 348.0Q478 331 478 310Q478 273 462.0 256.5Q446 240 418 240ZM158 -3V135H492Q499 124 504.5 106.0Q510 88 510 67Q510 30 494.0 13.5Q478 -3 450 -3ZM158 469V606H488Q495 595 500.5 578.0Q506 561 506 540Q506 503 490.0 486.0Q474 469 446 469Z"/></g><g transform="translate(1124.1,473.0) rotate(4) scale(0.25000,-0.25000) translate(-423.5,0)"><path d="M508 334V221H338V311Q338 341 320.5 354.5Q303 368 278 368Q259 368 245.0 362.5Q231 357 222 352V221H52V373Q52 400 63.5 417.0Q75 434 95 448Q129 472 179.5 486.5Q230 501 285 501Q332 501 375.0 486.5Q418 472 453 440Q461 433 469.5 426.0Q478 419 482 411Q493 394 500.5 374.0Q508 354 508 334ZM794 316V221H624V311Q624 341 608.0 354.5Q592 368 566 368Q547 368 530.0 360.5Q513 353 502 344L409 439Q444 464 486.5 482.5Q529 501 592 501Q643 501 689.5 483.0Q736 465 765.0 424.5Q794 384 794 316ZM52 264H222V1Q211 -2 190.5 -5.0Q170 -8 146 -8Q97 -8 74.5 9.0Q52 26 52 72ZM338 264H508V1Q497 -2 476.5 -5.0Q456 -8 432 -8Q383 -8 360.5 9.0Q338 26 338 72ZM624 264H794V1Q783 -2 762.5 -5.0Q742 -8 718 -8Q669 -8 646.5 9.0Q624 26 624 72Z"/></g><g transform="translate(1373.4,447.0) rotate(-4) scale(0.25000,-0.25000) translate(-309.5,0)"><path d="M379 369V247H173V369ZM317 247 322 341Q410 341 468.0 322.0Q526 303 555.5 267.0Q585 231 585 178Q585 80 511.0 32.0Q437 -16 300 -16Q277 -16 245.0 -14.0Q213 -12 180.0 -6.5Q147 -1 120 9Q65 30 65 82V549Q65 570 77.0 581.5Q89 593 108 600Q142 612 193.5 617.5Q245 623 298 623Q425 623 494.5 579.5Q564 536 564 447Q564 397 533.5 363.5Q503 330 447.0 313.5Q391 297 314 297L308 369Q351 369 370.5 385.0Q390 401 390 432Q390 459 367.5 475.0Q345 491 300 491Q285 491 265.5 490.0Q246 489 235 487V125Q249 121 271.5 119.5Q294 118 313 118Q353 118 379.5 134.5Q406 151 406 186Q406 219 383.5 233.0Q361 247 317 247Z"/></g><g transform="translate(1527.4,473.0) rotate(4) scale(0.25000,-0.25000) translate(-274.5,0)"><path d="M134 167 128 279 359 317Q357 337 339.0 357.0Q321 377 283 377Q243 377 216.5 351.0Q190 325 188 277L194 193Q204 147 239.5 129.0Q275 111 319 111Q361 111 399.0 122.0Q437 133 460 146Q476 136 487.0 118.0Q498 100 498 80Q498 47 473.5 25.5Q449 4 406.0 -6.0Q363 -16 307 -16Q229 -16 166.5 13.5Q104 43 67.5 102.0Q31 161 31 250Q31 316 52.5 364.0Q74 412 110.0 442.0Q146 472 190.5 486.5Q235 501 282 501Q353 501 406.0 473.5Q459 446 489.0 398.5Q519 351 519 289Q519 255 500.0 237.0Q481 219 447 214ZM230 643 331 752Q383 752 409.0 730.0Q435 708 435 680Q435 657 425.0 641.5Q415 626 391 606L296 528Q252 528 229.5 549.0Q207 570 207 594Q207 606 211.5 617.0Q216 628 230 643Z"/></g><g transform="translate(1731.5,447.0) rotate(-4) scale(0.25000,-0.25000) translate(-278.0,0)"><path d="M185 466V606H518Q525 595 530.5 577.0Q536 559 536 538Q536 501 519.5 483.5Q503 466 475 466ZM369 606V466H36Q29 477 23.5 495.0Q18 513 18 534Q18 572 34.5 589.0Q51 606 79 606ZM187 493H362V1Q351 -2 328.0 -5.0Q305 -8 281 -8Q229 -8 208.0 10.5Q187 29 187 75Z"/></g><g transform="translate(1844.2,473.0) rotate(4) scale(0.25000,-0.25000) translate(-141.0,0)"><path d="M56 257H226V1Q215 -2 194.5 -5.0Q174 -8 150 -8Q101 -8 78.5 9.0Q56 26 56 72ZM226 211H56V479Q67 482 87.5 485.0Q108 488 132 488Q182 488 204.0 471.5Q226 455 226 408ZM93 643 194 752Q246 752 272.0 730.0Q298 708 298 680Q298 657 288.0 641.5Q278 626 254 606L159 528Q115 528 92.5 549.0Q70 570 70 594Q70 606 74.5 617.0Q79 628 93 643Z"/></g><g transform="translate(1937.1,447.0) rotate(-4) scale(0.25000,-0.25000) translate(-198.5,0)"><path d="M54 264H222V167Q222 142 238.5 130.5Q255 119 285 119Q300 119 316.0 121.5Q332 124 344 128Q353 118 359.5 104.0Q366 90 366 71Q366 34 337.5 9.5Q309 -15 237 -15Q149 -15 101.5 25.0Q54 65 54 155ZM164 345V475H353Q359 465 364.5 448.0Q370 431 370 411Q370 376 354.5 360.5Q339 345 313 345ZM222 240H54V599Q65 602 85.5 605.5Q106 609 129 609Q178 609 200.0 592.0Q222 575 222 529Z"/></g></g>
  <g fill="#e0357f"><g transform="translate(941.8,447.0) rotate(-4) scale(0.25000,-0.25000) translate(-274.0,0)"><path d="M65 442H235V6Q224 3 203.0 0.0Q182 -3 158 -3Q115 -3 90.0 22.0Q65 47 65 90ZM235 161H65V513Q65 556 90.0 581.0Q115 606 158 606Q182 606 203.0 603.0Q224 600 235 597ZM158 240V376H460Q467 365 472.5 348.0Q478 331 478 310Q478 273 462.0 256.5Q446 240 418 240ZM158 -3V135H492Q499 124 504.5 106.0Q510 88 510 67Q510 30 494.0 13.5Q478 -3 450 -3ZM158 469V606H488Q495 595 500.5 578.0Q506 561 506 540Q506 503 490.0 486.0Q474 469 446 469Z"/></g><g transform="translate(1124.1,473.0) rotate(4) scale(0.25000,-0.25000) translate(-423.5,0)"><path d="M508 334V221H338V311Q338 341 320.5 354.5Q303 368 278 368Q259 368 245.0 362.5Q231 357 222 352V221H52V373Q52 400 63.5 417.0Q75 434 95 448Q129 472 179.5 486.5Q230 501 285 501Q332 501 375.0 486.5Q418 472 453 440Q461 433 469.5 426.0Q478 419 482 411Q493 394 500.5 374.0Q508 354 508 334ZM794 316V221H624V311Q624 341 608.0 354.5Q592 368 566 368Q547 368 530.0 360.5Q513 353 502 344L409 439Q444 464 486.5 482.5Q529 501 592 501Q643 501 689.5 483.0Q736 465 765.0 424.5Q794 384 794 316ZM52 264H222V1Q211 -2 190.5 -5.0Q170 -8 146 -8Q97 -8 74.5 9.0Q52 26 52 72ZM338 264H508V1Q497 -2 476.5 -5.0Q456 -8 432 -8Q383 -8 360.5 9.0Q338 26 338 72ZM624 264H794V1Q783 -2 762.5 -5.0Q742 -8 718 -8Q669 -8 646.5 9.0Q624 26 624 72Z"/></g><g transform="translate(1373.4,447.0) rotate(-4) scale(0.25000,-0.25000) translate(-309.5,0)"><path d="M379 369V247H173V369ZM317 247 322 341Q410 341 468.0 322.0Q526 303 555.5 267.0Q585 231 585 178Q585 80 511.0 32.0Q437 -16 300 -16Q277 -16 245.0 -14.0Q213 -12 180.0 -6.5Q147 -1 120 9Q65 30 65 82V549Q65 570 77.0 581.5Q89 593 108 600Q142 612 193.5 617.5Q245 623 298 623Q425 623 494.5 579.5Q564 536 564 447Q564 397 533.5 363.5Q503 330 447.0 313.5Q391 297 314 297L308 369Q351 369 370.5 385.0Q390 401 390 432Q390 459 367.5 475.0Q345 491 300 491Q285 491 265.5 490.0Q246 489 235 487V125Q249 121 271.5 119.5Q294 118 313 118Q353 118 379.5 134.5Q406 151 406 186Q406 219 383.5 233.0Q361 247 317 247Z"/></g><g transform="translate(1527.4,473.0) rotate(4) scale(0.25000,-0.25000) translate(-274.5,0)"><path d="M134 167 128 279 359 317Q357 337 339.0 357.0Q321 377 283 377Q243 377 216.5 351.0Q190 325 188 277L194 193Q204 147 239.5 129.0Q275 111 319 111Q361 111 399.0 122.0Q437 133 460 146Q476 136 487.0 118.0Q498 100 498 80Q498 47 473.5 25.5Q449 4 406.0 -6.0Q363 -16 307 -16Q229 -16 166.5 13.5Q104 43 67.5 102.0Q31 161 31 250Q31 316 52.5 364.0Q74 412 110.0 442.0Q146 472 190.5 486.5Q235 501 282 501Q353 501 406.0 473.5Q459 446 489.0 398.5Q519 351 519 289Q519 255 500.0 237.0Q481 219 447 214ZM230 643 331 752Q383 752 409.0 730.0Q435 708 435 680Q435 657 425.0 641.5Q415 626 391 606L296 528Q252 528 229.5 549.0Q207 570 207 594Q207 606 211.5 617.0Q216 628 230 643Z"/></g><g transform="translate(1731.5,447.0) rotate(-4) scale(0.25000,-0.25000) translate(-278.0,0)"><path d="M185 466V606H518Q525 595 530.5 577.0Q536 559 536 538Q536 501 519.5 483.5Q503 466 475 466ZM369 606V466H36Q29 477 23.5 495.0Q18 513 18 534Q18 572 34.5 589.0Q51 606 79 606ZM187 493H362V1Q351 -2 328.0 -5.0Q305 -8 281 -8Q229 -8 208.0 10.5Q187 29 187 75Z"/></g><g transform="translate(1844.2,473.0) rotate(4) scale(0.25000,-0.25000) translate(-141.0,0)"><path d="M56 257H226V1Q215 -2 194.5 -5.0Q174 -8 150 -8Q101 -8 78.5 9.0Q56 26 56 72ZM226 211H56V479Q67 482 87.5 485.0Q108 488 132 488Q182 488 204.0 471.5Q226 455 226 408ZM93 643 194 752Q246 752 272.0 730.0Q298 708 298 680Q298 657 288.0 641.5Q278 626 254 606L159 528Q115 528 92.5 549.0Q70 570 70 594Q70 606 74.5 617.0Q79 628 93 643Z"/></g><g transform="translate(1937.1,447.0) rotate(-4) scale(0.25000,-0.25000) translate(-198.5,0)"><path d="M54 264H222V167Q222 142 238.5 130.5Q255 119 285 119Q300 119 316.0 121.5Q332 124 344 128Q353 118 359.5 104.0Q366 90 366 71Q366 34 337.5 9.5Q309 -15 237 -15Q149 -15 101.5 25.0Q54 65 54 155ZM164 345V475H353Q359 465 364.5 448.0Q370 431 370 411Q370 376 354.5 360.5Q339 345 313 345ZM222 240H54V599Q65 602 85.5 605.5Q106 609 129 609Q178 609 200.0 592.0Q222 575 222 529Z"/></g></g>
  <rect x="969" y="602" width="923" height="104" rx="52" fill="#ff4f9a"/>
  <g fill="#ffffff"><g transform="translate(1029.7,660.0) rotate(0) scale(0.07600,-0.07600) translate(-278.0,0)"><path d="M185 466V606H518Q525 595 530.5 577.0Q536 559 536 538Q536 501 519.5 483.5Q503 466 475 466ZM369 606V466H36Q29 477 23.5 495.0Q18 513 18 534Q18 572 34.5 589.0Q51 606 79 606ZM187 493H362V1Q351 -2 328.0 -5.0Q305 -8 281 -8Q229 -8 208.0 10.5Q187 29 187 75Z"/></g><g transform="translate(1079.0,660.0) rotate(0) scale(0.07600,-0.07600) translate(-304.5,0)"><path d="M238 329H288Q330 329 357.0 348.5Q384 368 384 406Q384 444 359.5 463.5Q335 483 282 483Q269 483 259.0 482.0Q249 481 238 479ZM306 196H65V549Q65 570 77.0 581.5Q89 593 108 600Q142 612 187.0 617.5Q232 623 283 623Q421 623 491.0 564.5Q561 506 561 408Q561 347 526.5 299.0Q492 251 434.5 223.5Q377 196 306 196ZM269 235 428 267Q450 237 473.0 208.0Q496 179 516.5 152.0Q537 125 554.0 102.0Q571 79 581 62Q571 28 544.5 9.0Q518 -10 485 -10Q442 -10 419.5 9.0Q397 28 378 59ZM65 264H240V1Q229 -2 206.0 -5.0Q183 -8 159 -8Q107 -8 86.0 10.5Q65 29 65 75Z"/></g><g transform="translate(1130.9,660.0) rotate(0) scale(0.07600,-0.07600) translate(-313.5,0)"><path d="M320 459H314Q305 431 294.0 398.0Q283 365 271.0 328.5Q259 292 248 253L226 140Q220 120 215.5 101.0Q211 82 206.5 65.0Q202 48 198.0 32.0Q194 16 190 1Q177 -3 161.0 -7.0Q145 -11 123 -11Q73 -11 48.0 6.5Q23 24 23 55Q23 69 27.0 83.0Q31 97 36 116Q44 148 60.0 198.5Q76 249 95.5 307.5Q115 366 134.5 422.0Q154 478 170.0 522.5Q186 567 194 588Q211 598 246.0 607.0Q281 616 315 616Q365 616 404.0 601.5Q443 587 453 555Q471 504 491.5 435.5Q512 367 533.5 292.5Q555 218 575.0 147.5Q595 77 610 21Q598 8 574.0 -1.0Q550 -10 517 -10Q468 -10 449.0 6.5Q430 23 421 57L396 153L376 256Q366 295 356.0 331.0Q346 367 337.0 399.5Q328 432 320 459ZM151 126 220 261H440L461 126ZM245 675 153 739Q152 743 151.5 750.5Q151 758 151 762Q151 799 172.0 819.5Q193 840 224 840Q260 840 298 803L384 718Q380 683 358.5 666.0Q337 649 313 649Q292 649 277.0 656.5Q262 664 245 675Z"/></g><g transform="translate(1201.7,660.0) rotate(0) scale(0.07600,-0.07600) translate(-285.5,0)"><path d="M541 518Q541 493 528.0 473.5Q515 454 498 443Q473 460 443.0 472.0Q413 484 374 484Q323 484 287.5 462.5Q252 441 233.5 400.5Q215 360 215 303Q215 215 259.5 169.0Q304 123 383 123Q424 123 452.5 134.0Q481 145 507 159Q524 146 533.5 126.0Q543 106 543 80Q543 57 531.0 38.0Q519 19 490 6Q472 -2 439.0 -10.0Q406 -18 359 -18Q269 -18 195.5 16.0Q122 50 78.5 121.0Q35 192 35 303Q35 407 77.0 478.5Q119 550 190.5 587.5Q262 625 348 625Q409 625 452.0 611.0Q495 597 518.0 573.0Q541 549 541 518Z"/></g><g transform="translate(1253.9,660.0) rotate(0) scale(0.07600,-0.07600) translate(-336.0,0)"><path d="M65 442H240V1Q229 -2 206.0 -5.0Q183 -8 159 -8Q107 -8 86.0 10.5Q65 29 65 75ZM240 211H65V608Q77 610 100.5 613.5Q124 617 146 617Q196 617 218.0 600.0Q240 583 240 534ZM432 442H607V1Q596 -2 573.0 -5.0Q550 -8 526 -8Q474 -8 453.0 10.5Q432 29 432 75ZM607 211H432V608Q444 610 467.5 613.5Q491 617 513 617Q563 617 585.0 599.0Q607 581 607 532ZM533 234H140V372H533Z"/></g><g transform="translate(1308.3,660.0) rotate(0) scale(0.07600,-0.07600) translate(-313.5,0)"><path d="M320 459H314Q305 431 294.0 398.0Q283 365 271.0 328.5Q259 292 248 253L226 140Q220 120 215.5 101.0Q211 82 206.5 65.0Q202 48 198.0 32.0Q194 16 190 1Q177 -3 161.0 -7.0Q145 -11 123 -11Q73 -11 48.0 6.5Q23 24 23 55Q23 69 27.0 83.0Q31 97 36 116Q44 148 60.0 198.5Q76 249 95.5 307.5Q115 366 134.5 422.0Q154 478 170.0 522.5Q186 567 194 588Q211 598 246.0 607.0Q281 616 315 616Q365 616 404.0 601.5Q443 587 453 555Q471 504 491.5 435.5Q512 367 533.5 292.5Q555 218 575.0 147.5Q595 77 610 21Q598 8 574.0 -1.0Q550 -10 517 -10Q468 -10 449.0 6.5Q430 23 421 57L396 153L376 256Q366 295 356.0 331.0Q346 367 337.0 399.5Q328 432 320 459ZM151 126 220 261H440L461 126Z"/></g><g transform="translate(1362.9,660.0) rotate(0) scale(0.07600,-0.07600) translate(-339.5,0)"><path d="M65 400H226Q230 354 231.5 312.0Q233 270 233.0 232.5Q233 195 233 159V0Q223 -2 200.5 -5.0Q178 -8 155 -8Q105 -8 85.0 9.5Q65 27 65 72ZM614 210H453Q447 280 446.5 339.0Q446 398 446 451V609Q457 611 479.0 614.0Q501 617 524 617Q574 617 594.0 599.5Q614 582 614 537ZM614 264V21Q600 8 573.5 0.0Q547 -8 510 -8Q473 -8 440.0 3.0Q407 14 386 56L287 258Q277 279 268.5 297.5Q260 316 252.0 336.0Q244 356 234 380L65 343V575Q79 595 108.0 605.0Q137 615 170 615Q207 615 240.5 603.5Q274 592 294 551L394 349Q404 329 412.5 310.0Q421 291 429.5 271.0Q438 251 447 227Z"/></g><g transform="translate(1419.2,660.0) rotate(0) scale(0.07600,-0.07600) translate(-336.0,0)"><path d="M65 442H240V1Q229 -2 206.0 -5.0Q183 -8 159 -8Q107 -8 86.0 10.5Q65 29 65 75ZM240 211H65V608Q77 610 100.5 613.5Q124 617 146 617Q196 617 218.0 600.0Q240 583 240 534ZM432 442H607V1Q596 -2 573.0 -5.0Q550 -8 526 -8Q474 -8 453.0 10.5Q432 29 432 75ZM607 211H432V608Q444 610 467.5 613.5Q491 617 513 617Q563 617 585.0 599.0Q607 581 607 532ZM533 234H140V372H533Z"/></g><g transform="translate(1483.4,660.0) rotate(0) scale(0.07600,-0.07600) translate(-177.0,0)"><path d="M263 186H49Q42 197 36.0 215.0Q30 233 30 253Q30 290 47.0 306.5Q64 323 91 323H305Q311 313 317.5 294.5Q324 276 324 256Q324 219 307.0 202.5Q290 186 263 186Z"/></g><g transform="translate(1543.2,660.0) rotate(0) scale(0.07600,-0.07600) translate(-278.0,0)"><path d="M185 466V606H518Q525 595 530.5 577.0Q536 559 536 538Q536 501 519.5 483.5Q503 466 475 466ZM369 606V466H36Q29 477 23.5 495.0Q18 513 18 534Q18 572 34.5 589.0Q51 606 79 606ZM187 493H362V1Q351 -2 328.0 -5.0Q305 -8 281 -8Q229 -8 208.0 10.5Q187 29 187 75Z"/></g><g transform="translate(1592.5,660.0) rotate(0) scale(0.07600,-0.07600) translate(-304.5,0)"><path d="M238 329H288Q330 329 357.0 348.5Q384 368 384 406Q384 444 359.5 463.5Q335 483 282 483Q269 483 259.0 482.0Q249 481 238 479ZM306 196H65V549Q65 570 77.0 581.5Q89 593 108 600Q142 612 187.0 617.5Q232 623 283 623Q421 623 491.0 564.5Q561 506 561 408Q561 347 526.5 299.0Q492 251 434.5 223.5Q377 196 306 196ZM269 235 428 267Q450 237 473.0 208.0Q496 179 516.5 152.0Q537 125 554.0 102.0Q571 79 581 62Q571 28 544.5 9.0Q518 -10 485 -10Q442 -10 419.5 9.0Q397 28 378 59ZM65 264H240V1Q229 -2 206.0 -5.0Q183 -8 159 -8Q107 -8 86.0 10.5Q65 29 65 75Z"/></g><g transform="translate(1644.4,660.0) rotate(0) scale(0.07600,-0.07600) translate(-313.5,0)"><path d="M320 459H314Q305 431 294.0 398.0Q283 365 271.0 328.5Q259 292 248 253L226 140Q220 120 215.5 101.0Q211 82 206.5 65.0Q202 48 198.0 32.0Q194 16 190 1Q177 -3 161.0 -7.0Q145 -11 123 -11Q73 -11 48.0 6.5Q23 24 23 55Q23 69 27.0 83.0Q31 97 36 116Q44 148 60.0 198.5Q76 249 95.5 307.5Q115 366 134.5 422.0Q154 478 170.0 522.5Q186 567 194 588Q211 598 246.0 607.0Q281 616 315 616Q365 616 404.0 601.5Q443 587 453 555Q471 504 491.5 435.5Q512 367 533.5 292.5Q555 218 575.0 147.5Q595 77 610 21Q598 8 574.0 -1.0Q550 -10 517 -10Q468 -10 449.0 6.5Q430 23 421 57L396 153L376 256Q366 295 356.0 331.0Q346 367 337.0 399.5Q328 432 320 459ZM151 126 220 261H440L461 126ZM245 675 153 739Q152 743 151.5 750.5Q151 758 151 762Q151 799 172.0 819.5Q193 840 224 840Q260 840 298 803L384 718Q380 683 358.5 666.0Q337 649 313 649Q292 649 277.0 656.5Q262 664 245 675Z"/></g><g transform="translate(1714.4,660.0) rotate(0) scale(0.07600,-0.07600) translate(-275.5,0)"><path d="M251 124Q300 124 320.0 140.0Q340 156 340 176Q340 196 324.0 207.5Q308 219 279 229L237 243Q179 263 134.5 285.5Q90 308 65.0 344.0Q40 380 40 438Q40 523 105.5 574.0Q171 625 289 625Q347 625 392.0 614.0Q437 603 463.0 580.5Q489 558 489 523Q489 498 477.0 479.0Q465 460 448 447Q426 461 389.0 471.5Q352 482 308 482Q263 482 242.0 469.5Q221 457 221 438Q221 423 234.5 413.5Q248 404 273 396L326 379Q421 349 471.0 301.5Q521 254 521 174Q521 89 453.5 35.5Q386 -18 257 -18Q196 -18 147.0 -5.0Q98 8 69.0 34.0Q40 60 40 97Q40 126 57.0 146.5Q74 167 94 178Q122 156 162.5 140.0Q203 124 251 124Z"/></g><g transform="translate(1769.6,660.0) rotate(0) scale(0.07600,-0.07600) translate(-384.5,0)"><path d="M328 -18Q244 -18 183.5 12.0Q123 42 90.5 96.0Q58 150 58 222V283H233V225Q233 178 259.5 150.5Q286 123 328 123Q370 123 396.5 150.5Q423 178 423 225V283H598V222Q598 150 565.5 96.0Q533 42 472.5 12.0Q412 -18 328 -18ZM233 256H58V608Q70 610 93.5 613.5Q117 617 139 617Q189 617 211.0 600.0Q233 583 233 534ZM598 254H423V608Q435 610 458.5 613.5Q482 617 504 617Q554 617 576.0 600.0Q598 583 598 534ZM231 843Q259 843 285.5 836.0Q312 829 334.5 821.5Q357 814 372 814Q394 814 406.0 827.0Q418 840 423 849H427Q459 849 482.0 826.5Q505 804 505 769Q505 725 477.0 703.5Q449 682 407 682Q375 682 349.5 689.5Q324 697 303.5 704.0Q283 711 266 711Q244 711 232.5 698.5Q221 686 215 676H212Q180 676 156.5 698.0Q133 720 133 756Q133 786 147.5 805.5Q162 825 185.0 834.0Q208 843 231 843ZM607 405 586 406Q579 417 573.0 447.5Q567 478 567 509Q605 509 629.0 533.5Q653 558 653 612V646Q667 653 680.5 657.0Q694 661 714 661Q746 661 769.0 646.0Q792 631 792 595V589Q792 532 767.0 490.5Q742 449 700.0 427.0Q658 405 607 405Z"/></g><g transform="translate(1827.6,660.0) rotate(0) scale(0.07600,-0.07600) translate(-313.5,0)"><path d="M320 459H314Q305 431 294.0 398.0Q283 365 271.0 328.5Q259 292 248 253L226 140Q220 120 215.5 101.0Q211 82 206.5 65.0Q202 48 198.0 32.0Q194 16 190 1Q177 -3 161.0 -7.0Q145 -11 123 -11Q73 -11 48.0 6.5Q23 24 23 55Q23 69 27.0 83.0Q31 97 36 116Q44 148 60.0 198.5Q76 249 95.5 307.5Q115 366 134.5 422.0Q154 478 170.0 522.5Q186 567 194 588Q211 598 246.0 607.0Q281 616 315 616Q365 616 404.0 601.5Q443 587 453 555Q471 504 491.5 435.5Q512 367 533.5 292.5Q555 218 575.0 147.5Q595 77 610 21Q598 8 574.0 -1.0Q550 -10 517 -10Q468 -10 449.0 6.5Q430 23 421 57L396 153L376 256Q366 295 356.0 331.0Q346 367 337.0 399.5Q328 432 320 459ZM151 126 220 261H440L461 126Z"/></g></g>
</svg>
