<svg xmlns="http://www.w3.org/2000/svg" viewBox="0 0 2200 900">
  
  <defs>
    <radialGradient id="iris" cx="0.5" cy="0.35" r="0.75">
      <stop offset="0%" stop-color="#8a5560"/>
      <stop offset="55%" stop-color="#5c333e"/>
      <stop offset="100%" stop-color="#241419"/>
    </radialGradient>
    <radialGradient id="hairG" cx="0.42" cy="0.22" r="1.0">
      <stop offset="0%" stop-color="#82525a"/>
      <stop offset="40%" stop-color="#553137"/>
      <stop offset="100%" stop-color="#2e161b"/>
    </radialGradient>
    <radialGradient id="bumpG" cx="0.38" cy="0.28" r="0.95">
      <stop offset="0%" stop-color="#7a4c53"/>
      <stop offset="55%" stop-color="#4d2b31"/>
      <stop offset="100%" stop-color="#2b1418"/>
    </radialGradient>
    <linearGradient id="dressG" x1="0" y1="0" x2="0" y2="1">
      <stop offset="0%" stop-color="#ff69ab"/>
      <stop offset="100%" stop-color="#e0357f"/>
    </linearGradient>
    <radialGradient id="blushG">
      <stop offset="0%" stop-color="#ff8fbc" stop-opacity="0.95"/>
      <stop offset="100%" stop-color="#ff8fbc" stop-opacity="0"/>
    </radialGradient>
  </defs>

  <g transform="translate(-115,-125) scale(1.25)">
  
  <g stroke="#241419" stroke-width="8" stroke-linecap="round" stroke-linejoin="round">
    <!-- braided pigtails -->
    <g fill="url(#bumpG)">
      <circle cx="288" cy="512" r="41"/>
      <circle cx="283" cy="582" r="33"/>
      <circle cx="279" cy="640" r="24"/>
      <circle cx="736" cy="512" r="41"/>
      <circle cx="741" cy="582" r="33"/>
      <circle cx="745" cy="640" r="24"/>
    </g>
    <!-- braid strand lines -->
    <path d="M 268,492 q 20,18 40,2 M 264,562 q 18,16 36,2 M 262,622 q 14,13 28,2" fill="none" stroke-width="6" opacity="0.55"/>
    <path d="M 716,492 q 20,18 40,2 M 724,562 q 18,16 36,2 M 734,622 q 14,13 28,2" fill="none" stroke-width="6" opacity="0.55"/>

    <!-- head -->
    <circle cx="512" cy="462" r="170" fill="#ffdcc5"/>

    <!-- hair cap with scalloped bangs -->
    <path d="M 338,502 Q 328,272 512,268 Q 696,272 686,502
             Q 664,438 630,454 Q 610,398 566,430 Q 544,388 512,420
             Q 480,388 458,430 Q 414,398 394,454 Q 360,438 338,502 Z" fill="url(#hairG)"/>
    <!-- hair shine -->
    <g fill="none" stroke="#7d4d52" stroke-width="9" stroke-linecap="round" opacity="0.55">
      <path d="M 420,330 Q 470,300 540,302"/>
      <path d="M 450,352 Q 495,328 550,328"/>
    </g>
    <!-- realistic hair strands -->
    <g fill="none" stroke="#33191e" stroke-width="5" opacity="0.4" stroke-linecap="round">
      <path d="M 512,274 Q 438,304 406,372"/>
      <path d="M 512,274 Q 586,304 618,372"/>
      <path d="M 512,272 Q 498,324 468,384"/>
      <path d="M 512,272 Q 526,324 556,384"/>
      <path d="M 418,322 Q 396,364 378,432"/>
      <path d="M 606,322 Q 628,364 646,432"/>
      <path d="M 452,432 q -8,26 -20,42"/>
      <path d="M 512,422 q -2,28 -8,46"/>
      <path d="M 572,432 q 8,26 20,42"/>
    </g>
    <!-- 3D dome highlight -->
    <ellipse cx="462" cy="330" rx="96" ry="44" transform="rotate(-16 462 330)" fill="#96626a" opacity="0.45" stroke="none"/>
    <ellipse cx="452" cy="318" rx="52" ry="22" transform="rotate(-16 452 318)" fill="#b07b82" opacity="0.4" stroke="none"/>
    <!-- scallop shading on fringe -->
    <g fill="none" stroke="#2f171c" stroke-width="7" opacity="0.35" stroke-linecap="round">
      <path d="M 610,404 q 22,14 26,38"/>
      <path d="M 546,394 q 18,12 22,32"/>
      <path d="M 484,394 q -18,12 -22,32"/>
      <path d="M 420,404 q -22,14 -26,38"/>
    </g>

    <!-- hair bows -->
    <g fill="#ff4f9a">
      <path d="M 298,450 L 260,426 Q 246,450 260,474 Z"/>
      <path d="M 298,450 L 336,426 Q 350,450 336,474 Z"/>
      <circle cx="298" cy="450" r="11"/>
    </g>
    <g fill="#ff4f9a">
      <path d="M 726,450 L 688,426 Q 674,450 688,474 Z"/>
      <path d="M 726,450 L 764,426 Q 778,450 764,474 Z"/>
      <circle cx="726" cy="450" r="11"/>
    </g>

    <!-- dress with frill -->
    <path d="M 434,620 Q 512,600 590,620 L 628,782 Q 512,812 396,782 Z" fill="url(#dressG)"/>
    <path d="M 396,782 Q 421,796 446,784 Q 468,800 490,786 Q 512,802 534,786 Q 556,800 578,784 Q 603,796 628,782 Q 570,806 512,806 Q 454,806 396,782 Z" fill="#fff" stroke-width="6"/>
    <!-- sleeves -->
    <circle cx="422" cy="648" r="27" fill="url(#dressG)"/>
    <circle cx="602" cy="648" r="27" fill="url(#dressG)"/>
    <!-- feet with shoes -->
    <ellipse cx="464" cy="812" rx="30" ry="17" fill="#ff87b8"/>
    <ellipse cx="560" cy="812" rx="30" ry="17" fill="#ff87b8"/>
  </g>

  <!-- collar -->
  <path d="M 470,614 Q 512,644 554,614 Q 533,601 512,603 Q 491,601 470,614 Z" fill="#fff" stroke="#241419" stroke-width="7"/>

  <!-- dress fold shading -->
  <g fill="#e0357f" opacity="0.5" stroke="none">
    <path d="M 452,640 L 444,762 L 462,764 Z"/>
    <path d="M 572,640 L 580,762 L 562,764 Z"/>
  </g>

  <!-- face -->
  <g stroke="none">
    <!-- eyebrows -->
    
    
    <ellipse cx="448" cy="480" rx="31" ry="41" fill="#fff"/>
    <ellipse cx="448" cy="482" rx="25" ry="36" fill="url(#iris)"/>
    <ellipse cx="448" cy="488" rx="11" ry="17" fill="#12080c"/>
    <circle cx="439" cy="466" r="10" fill="#fff"/>
    <circle cx="458" cy="498" r="4.5" fill="#fff" opacity="0.9"/>
    <ellipse cx="448" cy="470" rx="25" ry="12" fill="#fff" opacity="0.12"/>
    
    
    <ellipse cx="576" cy="480" rx="31" ry="41" fill="#fff"/>
    <ellipse cx="576" cy="482" rx="25" ry="36" fill="url(#iris)"/>
    <ellipse cx="576" cy="488" rx="11" ry="17" fill="#12080c"/>
    <circle cx="567" cy="466" r="10" fill="#fff"/>
    <circle cx="586" cy="498" r="4.5" fill="#fff" opacity="0.9"/>
    <ellipse cx="576" cy="470" rx="25" ry="12" fill="#fff" opacity="0.12"/>
    
    <!-- blush -->
    <ellipse cx="400" cy="535" rx="34" ry="20" fill="url(#blushG)"/>
    <ellipse cx="624" cy="535" rx="34" ry="20" fill="url(#blushG)"/>
    <!-- open happy mouth -->
    <path d="M 488,528 Q 512,558 536,528 Q 512,545 488,528 Z" fill="#c2455e" stroke="#241419" stroke-width="6" stroke-linejoin="round"/>
    <!-- nose dot -->
    <circle cx="512" cy="512" r="3.5" fill="#f5c3a8"/>
  </g>

  <!-- boba cup -->
  <g stroke="#241419" stroke-width="8" stroke-linejoin="round" stroke-linecap="round">
    <path d="M 470,662 L 478,774 Q 512,786 546,774 L 554,662 Z" fill="#ffeaf3"/>
    <path d="M 470,708 L 474,764 Q 512,776 550,764 L 554,708 Q 512,722 470,708 Z" fill="#ffc1d9" stroke="none"/>
    <circle cx="494" cy="746" r="9" fill="#4a2a2e" stroke="none"/>
    <circle cx="518" cy="756" r="9" fill="#4a2a2e" stroke="none"/>
    <circle cx="537" cy="742" r="9" fill="#4a2a2e" stroke="none"/>
    <ellipse cx="512" cy="660" rx="44" ry="13" fill="#fff"/>
    <line x1="528" y1="658" x2="552" y2="610" stroke="#ff4f9a" stroke-width="13"/>
    <circle cx="464" cy="710" r="22" fill="#ffdcc5"/>
    <circle cx="560" cy="710" r="22" fill="#ffdcc5"/>
  </g>

  </g>
  <text x="880" y="470" font-family="Arial, sans-serif" font-size="220" font-weight="bold" fill="#ff4f9a" letter-spacing="4">EM BÉ TÍT</text>
  <text x="886" y="600" font-family="Arial, sans-serif" font-size="80" font-weight="bold" fill="#ff87b8" letter-spacing="8">TRÀ CHANH ♥ TRÀ SỮA</text>
</svg>
