<svg xmlns="http://www.w3.org/2000/svg" width="900" height="640" viewBox="0 0 900 640">
  <defs>
    <clipPath id="nailClip"><path d="M42 0 C66 0 84 22 84 58 L84 132 C84 143 75 150 64 150 L20 150 C9 150 0 143 0 132 L0 58 C0 22 18 0 42 0 Z"/></clipPath>

    <linearGradient id="latte" x1="0" y1="0" x2="0" y2="1">
      <stop offset="0" stop-color="#C89A6C"/><stop offset="0.6" stop-color="#E3C6A2"/><stop offset="1" stop-color="#F6EBDD"/>
    </linearGradient>
    <linearGradient id="milkyNude" x1="0" y1="0" x2="0.3" y2="1">
      <stop offset="0" stop-color="#F8EFE4"/><stop offset="1" stop-color="#EBD6BE"/>
    </linearGradient>
    <linearGradient id="amberTip" x1="0" y1="0" x2="0.4" y2="1">
      <stop offset="0" stop-color="#E0B26E"/><stop offset="1" stop-color="#C08A47"/>
    </linearGradient>
    <linearGradient id="goldT" x1="0" y1="0" x2="0.4" y2="1">
      <stop offset="0" stop-color="#F9EBBC"/><stop offset="0.5" stop-color="#DCAC50"/><stop offset="1" stop-color="#B9852F"/>
    </linearGradient>
  </defs>

  <rect width="900" height="640" fill="#FFF9F2"/>
  <rect x="14" y="14" width="872" height="612" rx="26" fill="none" stroke="#A0703F" stroke-width="2.5" opacity="0.55"/>
  <rect x="24" y="24" width="852" height="592" rx="20" fill="none" stroke="#A0703F" stroke-width="1" opacity="0.35"/>
  <circle cx="80" cy="560" r="46" fill="#F0E2D0" opacity="0.6"/><circle cx="830" cy="80" r="38" fill="#F0E2D0" opacity="0.6"/>

  <text x="450" y="96" text-anchor="middle" font-family="'Baloo 2','Quicksand','Segoe UI',sans-serif" font-size="44" font-weight="700" fill="#4A3728">Latte Nâu Sữa</text>
  <text x="450" y="136" text-anchor="middle" font-family="'Baloo 2','Quicksand','Segoe UI',sans-serif" font-size="22" font-weight="600" fill="#A0703F">Mệnh Thổ  •  trend latte nails</text>

  <path d="M120 78 C122.16 87.84 122.16 87.84 132 90 C122.16 92.16 122.16 92.16 120 102 C117.84 92.16 117.84 92.16 108 90 C117.84 87.84 117.84 87.84 120 78 Z" fill="#A0703F" opacity="0.8"/>
  <path d="M780 78 C782.16 87.84 782.16 87.84 792 90 C782.16 92.16 782.16 92.16 780 102 C777.84 92.16 777.84 92.16 768 90 C777.84 87.84 777.84 87.84 780 78 Z" fill="#A0703F" opacity="0.8"/>
  <path d="M150 112 C151.08 116.92 151.08 116.92 156 118 C151.08 119.08 151.08 119.08 150 124 C148.92 119.08 148.92 119.08 144 118 C148.92 116.92 148.92 116.92 150 112 Z" fill="#A0703F" opacity="0.5"/>
  <path d="M750 112 C751.08 116.92 751.08 116.92 756 118 C751.08 119.08 751.08 119.08 750 124 C748.92 119.08 748.92 119.08 744 118 C748.92 116.92 748.92 116.92 750 112 Z" fill="#A0703F" opacity="0.5"/>

  <ellipse cx="450" cy="472" rx="290" ry="26" fill="#F0E2D0" opacity="0.6"/>

  <g transform="translate(188 295) scale(1)">
    <path d="M42 0 C66 0 84 22 84 58 L84 132 C84 143 75 150 64 150 L20 150 C9 150 0 143 0 132 L0 58 C0 22 18 0 42 0 Z" fill="#FFFFFF"/>
    <g clip-path="url(#nailClip)">
<rect width="84" height="150" fill="url(#milkyNude)"/>
   <path d="M14 26 C20 12 32 6 44 6 C36 16 30 30 28 48 C26 66 18 74 12 70 C8 60 10 40 14 26 Z" fill="#FFFFFF" opacity="0.45"/>
  <ellipse cx="24" cy="96" rx="6" ry="14" fill="#FFFFFF" opacity="0.18"/>
    </g>
    <path d="M42 0 C66 0 84 22 84 58 L84 132 C84 143 75 150 64 150 L20 150 C9 150 0 143 0 132 L0 58 C0 22 18 0 42 0 Z" fill="none" stroke="#CDB294" stroke-width="2.5"/>
  </g>
  <g transform="translate(294 283) scale(1.08)">
    <path d="M42 0 C66 0 84 22 84 58 L84 132 C84 143 75 150 64 150 L20 150 C9 150 0 143 0 132 L0 58 C0 22 18 0 42 0 Z" fill="#FFFFFF"/>
    <g clip-path="url(#nailClip)">
<rect width="84" height="150" fill="url(#latte)"/>
   <path d="M14 26 C20 12 32 6 44 6 C36 16 30 30 28 48 C26 66 18 74 12 70 C8 60 10 40 14 26 Z" fill="#FFFFFF" opacity="0.45"/>
  <ellipse cx="24" cy="96" rx="6" ry="14" fill="#FFFFFF" opacity="0.18"/>
    </g>
    <path d="M42 0 C66 0 84 22 84 58 L84 132 C84 143 75 150 64 150 L20 150 C9 150 0 143 0 132 L0 58 C0 22 18 0 42 0 Z" fill="none" stroke="#CDB294" stroke-width="2.5"/>
  </g>
  <g transform="translate(407 274) scale(1.14)">
    <path d="M42 0 C66 0 84 22 84 58 L84 132 C84 143 75 150 64 150 L20 150 C9 150 0 143 0 132 L0 58 C0 22 18 0 42 0 Z" fill="#FFFFFF"/>
    <g clip-path="url(#nailClip)">
<rect width="84" height="150" fill="#F6EBDD"/>
   <g clip-path="url(#nailClip)">
     <path d="M0 60 C0 22 18 0 42 0 C66 0 84 22 84 60 C62 46 22 46 0 60 Z" fill="url(#amberTip)"/>
   </g>
   <ellipse cx="18" cy="26" rx="7" ry="5" fill="#7A4A20" opacity="0.75" transform="rotate(-20 18 26)"/><ellipse cx="44" cy="12" rx="6" ry="4.4" fill="#7A4A20" opacity="0.75" transform="rotate(15 44 12)"/><ellipse cx="64" cy="30" rx="6.6" ry="4.6" fill="#7A4A20" opacity="0.75" transform="rotate(-10 64 30)"/><ellipse cx="34" cy="36" rx="5" ry="3.6" fill="#7A4A20" opacity="0.75" transform="rotate(30 34 36)"/>
   <path d="M2 62 C24 48 60 48 82 62" fill="none" stroke="#B9852F" stroke-width="2" opacity="0.55"/>
   <path d="M14 26 C20 12 32 6 44 6 C36 16 30 30 28 48 C26 66 18 74 12 70 C8 60 10 40 14 26 Z" fill="#FFFFFF" opacity="0.45"/>
  <ellipse cx="24" cy="96" rx="6" ry="14" fill="#FFFFFF" opacity="0.18"/>
    </g>
    <path d="M42 0 C66 0 84 22 84 58 L84 132 C84 143 75 150 64 150 L20 150 C9 150 0 143 0 132 L0 58 C0 22 18 0 42 0 Z" fill="none" stroke="#CDB294" stroke-width="2.5"/>
  </g>
  <g transform="translate(525 286) scale(1.06)">
    <path d="M42 0 C66 0 84 22 84 58 L84 132 C84 143 75 150 64 150 L20 150 C9 150 0 143 0 132 L0 58 C0 22 18 0 42 0 Z" fill="#FFFFFF"/>
    <g clip-path="url(#nailClip)">
<rect width="84" height="150" fill="#F3E6D4"/>
   <path d="M-4 40 C16 28 34 50 52 38 C68 28 80 38 90 30" fill="none" stroke="#C89A6C" stroke-width="5" opacity="0.8"/>
   <path d="M-4 84 C18 72 38 94 58 82 C72 74 82 82 90 76" fill="none" stroke="#B07E4C" stroke-width="4" opacity="0.65"/>
   <path d="M-4 62 C20 52 40 70 62 58 C74 52 84 58 90 54" fill="none" stroke="url(#goldT)" stroke-width="2" opacity="0.9"/>
   <path d="M14 26 C20 12 32 6 44 6 C36 16 30 30 28 48 C26 66 18 74 12 70 C8 60 10 40 14 26 Z" fill="#FFFFFF" opacity="0.45"/>
  <ellipse cx="24" cy="96" rx="6" ry="14" fill="#FFFFFF" opacity="0.18"/>
    </g>
    <path d="M42 0 C66 0 84 22 84 58 L84 132 C84 143 75 150 64 150 L20 150 C9 150 0 143 0 132 L0 58 C0 22 18 0 42 0 Z" fill="none" stroke="#CDB294" stroke-width="2.5"/>
  </g>
  <g transform="translate(636 307) scale(0.92)">
    <path d="M42 0 C66 0 84 22 84 58 L84 132 C84 143 75 150 64 150 L20 150 C9 150 0 143 0 132 L0 58 C0 22 18 0 42 0 Z" fill="#FFFFFF"/>
    <g clip-path="url(#nailClip)">
<rect width="84" height="150" fill="url(#milkyNude)"/>
   <rect x="-4" y="118" width="92" height="9" fill="url(#goldT)"/>
   <path d="M14 26 C20 12 32 6 44 6 C36 16 30 30 28 48 C26 66 18 74 12 70 C8 60 10 40 14 26 Z" fill="#FFFFFF" opacity="0.45"/>
  <ellipse cx="24" cy="96" rx="6" ry="14" fill="#FFFFFF" opacity="0.18"/>
    </g>
    <path d="M42 0 C66 0 84 22 84 58 L84 132 C84 143 75 150 64 150 L20 150 C9 150 0 143 0 132 L0 58 C0 22 18 0 42 0 Z" fill="none" stroke="#CDB294" stroke-width="2.5"/>
  </g>

  <text x="450" y="540" text-anchor="middle" font-family="'Baloo 2','Quicksand','Segoe UI',sans-serif" font-size="20" font-weight="600" fill="#6B5540">Hợp mệnh Thổ &amp; Kim — nâu latte, be sữa, hổ phách giữ vững tài khí</text>
  <g>
    <circle cx="330" cy="568" r="11" fill="#F8EFE4" stroke="#C9B49A" stroke-width="1.5"/>
    <circle cx="364" cy="568" r="11" fill="#C89A6C" stroke="#C9B49A" stroke-width="1.5"/>
    <circle cx="398" cy="568" r="11" fill="#7A4A20" stroke="#C9B49A" stroke-width="1.5"/>
    <text x="436" y="574" font-family="'Baloo 2','Quicksand','Segoe UI',sans-serif" font-size="17" fill="#8A7460">bảng màu may mắn</text>
  </g>
</svg>
