<svg xmlns="http://www.w3.org/2000/svg" width="900" height="640" viewBox="0 0 900 640">
  <defs>
    <clipPath id="nailClip"><path d="M42 0 C66 0 84 22 84 58 L84 132 C84 143 75 150 64 150 L20 150 C9 150 0 143 0 132 L0 58 C0 22 18 0 42 0 Z"/></clipPath>

    <radialGradient id="auraBlue" cx="0.5" cy="0.42" r="0.62">
      <stop offset="0" stop-color="#4E8FE0"/><stop offset="0.55" stop-color="#8DBCF0" stop-opacity="0.8"/><stop offset="1" stop-color="#EAF3FF" stop-opacity="0"/>
    </radialGradient>
    <radialGradient id="auraViolet" cx="0.5" cy="0.42" r="0.62">
      <stop offset="0" stop-color="#7E7BE8"/><stop offset="0.55" stop-color="#ABA8F0" stop-opacity="0.75"/><stop offset="1" stop-color="#F0EFFF" stop-opacity="0"/>
    </radialGradient>
    <linearGradient id="oceanOmbre" x1="0" y1="0" x2="0" y2="1">
      <stop offset="0" stop-color="#3D7FCB"/><stop offset="0.65" stop-color="#AFD2F2"/><stop offset="1" stop-color="#F4FAFF"/>
    </linearGradient>
    <linearGradient id="deepSea" x1="0" y1="0" x2="0.3" y2="1">
      <stop offset="0" stop-color="#3D7FCB"/><stop offset="1" stop-color="#1C4E8F"/>
    </linearGradient>
  </defs>

  <rect width="900" height="640" fill="#FFF9F2"/>
  <rect x="14" y="14" width="872" height="612" rx="26" fill="none" stroke="#2C6FB8" stroke-width="2.5" opacity="0.55"/>
  <rect x="24" y="24" width="852" height="592" rx="20" fill="none" stroke="#2C6FB8" stroke-width="1" opacity="0.35"/>
  <circle cx="80" cy="560" r="46" fill="#DCEBFA" opacity="0.6"/><circle cx="830" cy="80" r="38" fill="#DCEBFA" opacity="0.6"/>

  <text x="450" y="96" text-anchor="middle" font-family="'Baloo 2','Quicksand','Segoe UI',sans-serif" font-size="44" font-weight="700" fill="#4A3728">Aura Đại Dương</text>
  <text x="450" y="136" text-anchor="middle" font-family="'Baloo 2','Quicksand','Segoe UI',sans-serif" font-size="22" font-weight="600" fill="#2C6FB8">Mệnh Thuỷ  •  trend aura nails</text>

  <path d="M120 78 C122.16 87.84 122.16 87.84 132 90 C122.16 92.16 122.16 92.16 120 102 C117.84 92.16 117.84 92.16 108 90 C117.84 87.84 117.84 87.84 120 78 Z" fill="#2C6FB8" opacity="0.8"/>
  <path d="M780 78 C782.16 87.84 782.16 87.84 792 90 C782.16 92.16 782.16 92.16 780 102 C777.84 92.16 777.84 92.16 768 90 C777.84 87.84 777.84 87.84 780 78 Z" fill="#2C6FB8" opacity="0.8"/>
  <path d="M150 112 C151.08 116.92 151.08 116.92 156 118 C151.08 119.08 151.08 119.08 150 124 C148.92 119.08 148.92 119.08 144 118 C148.92 116.92 148.92 116.92 150 112 Z" fill="#2C6FB8" opacity="0.5"/>
  <path d="M750 112 C751.08 116.92 751.08 116.92 756 118 C751.08 119.08 751.08 119.08 750 124 C748.92 119.08 748.92 119.08 744 118 C748.92 116.92 748.92 116.92 750 112 Z" fill="#2C6FB8" opacity="0.5"/>

  <ellipse cx="450" cy="472" rx="290" ry="26" fill="#DCEBFA" opacity="0.6"/>

  <g transform="translate(188 295) scale(1)">
    <path d="M42 0 C66 0 84 22 84 58 L84 132 C84 143 75 150 64 150 L20 150 C9 150 0 143 0 132 L0 58 C0 22 18 0 42 0 Z" fill="#FFFFFF"/>
    <g clip-path="url(#nailClip)">
<rect width="84" height="150" fill="#F2F8FF"/>
   <rect width="84" height="150" fill="url(#auraBlue)"/>
   <path d="M14 26 C20 12 32 6 44 6 C36 16 30 30 28 48 C26 66 18 74 12 70 C8 60 10 40 14 26 Z" fill="#FFFFFF" opacity="0.45"/>
  <ellipse cx="24" cy="96" rx="6" ry="14" fill="#FFFFFF" opacity="0.18"/>
    </g>
    <path d="M42 0 C66 0 84 22 84 58 L84 132 C84 143 75 150 64 150 L20 150 C9 150 0 143 0 132 L0 58 C0 22 18 0 42 0 Z" fill="none" stroke="#B9CFE4" stroke-width="2.5"/>
  </g>
  <g transform="translate(294 283) scale(1.08)">
    <path d="M42 0 C66 0 84 22 84 58 L84 132 C84 143 75 150 64 150 L20 150 C9 150 0 143 0 132 L0 58 C0 22 18 0 42 0 Z" fill="#FFFFFF"/>
    <g clip-path="url(#nailClip)">
<rect width="84" height="150" fill="#F4F0E8"/>
   <path d="M-4 44 C10 34 22 54 36 44 C50 34 62 54 90 40" fill="none" stroke="#1E4E8C" stroke-width="2.6" stroke-linecap="round"/>
   <path d="M-4 78 C12 68 26 88 42 78 C58 68 70 86 90 74" fill="none" stroke="#4E8FE0" stroke-width="2.6" stroke-linecap="round"/>
   <path d="M-4 112 C14 102 28 120 46 110 C62 102 74 116 90 106" fill="none" stroke="#9DC4EA" stroke-width="2.6" stroke-linecap="round"/>
   <path d="M14 26 C20 12 32 6 44 6 C36 16 30 30 28 48 C26 66 18 74 12 70 C8 60 10 40 14 26 Z" fill="#FFFFFF" opacity="0.45"/>
  <ellipse cx="24" cy="96" rx="6" ry="14" fill="#FFFFFF" opacity="0.18"/>
    </g>
    <path d="M42 0 C66 0 84 22 84 58 L84 132 C84 143 75 150 64 150 L20 150 C9 150 0 143 0 132 L0 58 C0 22 18 0 42 0 Z" fill="none" stroke="#B9CFE4" stroke-width="2.5"/>
  </g>
  <g transform="translate(407 274) scale(1.14)">
    <path d="M42 0 C66 0 84 22 84 58 L84 132 C84 143 75 150 64 150 L20 150 C9 150 0 143 0 132 L0 58 C0 22 18 0 42 0 Z" fill="#FFFFFF"/>
    <g clip-path="url(#nailClip)">
<rect width="84" height="150" fill="url(#oceanOmbre)"/>
   
   <ellipse cx="30" cy="62.2" rx="9" ry="6" fill="#1C4E8F" opacity="0.18"/>
   <ellipse cx="30" cy="58" rx="9" ry="12" fill="#FFFFFF" opacity="0.55"/>
   <ellipse cx="27.3" cy="53.8" rx="2.88" ry="3.5999999999999996" fill="#FFFFFF" opacity="0.95"/>
   <ellipse cx="56" cy="99.15" rx="7" ry="4.5" fill="#1C4E8F" opacity="0.18"/>
   <ellipse cx="56" cy="96" rx="7" ry="9" fill="#FFFFFF" opacity="0.55"/>
   <ellipse cx="53.9" cy="92.85" rx="2.24" ry="2.6999999999999997" fill="#FFFFFF" opacity="0.95"/>
   <path d="M14 26 C20 12 32 6 44 6 C36 16 30 30 28 48 C26 66 18 74 12 70 C8 60 10 40 14 26 Z" fill="#FFFFFF" opacity="0.45"/>
  <ellipse cx="24" cy="96" rx="6" ry="14" fill="#FFFFFF" opacity="0.18"/>
    </g>
    <path d="M42 0 C66 0 84 22 84 58 L84 132 C84 143 75 150 64 150 L20 150 C9 150 0 143 0 132 L0 58 C0 22 18 0 42 0 Z" fill="none" stroke="#B9CFE4" stroke-width="2.5"/>
  </g>
  <g transform="translate(525 286) scale(1.06)">
    <path d="M42 0 C66 0 84 22 84 58 L84 132 C84 143 75 150 64 150 L20 150 C9 150 0 143 0 132 L0 58 C0 22 18 0 42 0 Z" fill="#FFFFFF"/>
    <g clip-path="url(#nailClip)">
<rect width="84" height="150" fill="#F5F2FF"/>
   <rect width="84" height="150" fill="url(#auraViolet)"/>
   <path d="M14 26 C20 12 32 6 44 6 C36 16 30 30 28 48 C26 66 18 74 12 70 C8 60 10 40 14 26 Z" fill="#FFFFFF" opacity="0.45"/>
  <ellipse cx="24" cy="96" rx="6" ry="14" fill="#FFFFFF" opacity="0.18"/>
    </g>
    <path d="M42 0 C66 0 84 22 84 58 L84 132 C84 143 75 150 64 150 L20 150 C9 150 0 143 0 132 L0 58 C0 22 18 0 42 0 Z" fill="none" stroke="#B9CFE4" stroke-width="2.5"/>
  </g>
  <g transform="translate(636 307) scale(0.92)">
    <path d="M42 0 C66 0 84 22 84 58 L84 132 C84 143 75 150 64 150 L20 150 C9 150 0 143 0 132 L0 58 C0 22 18 0 42 0 Z" fill="#FFFFFF"/>
    <g clip-path="url(#nailClip)">
<rect width="84" height="150" fill="url(#deepSea)"/>
   <circle cx="24" cy="44" r="2.4" fill="#EAF4FF"/><circle cx="52" cy="30" r="1.8" fill="#EAF4FF"/><circle cx="60" cy="72" r="2.6" fill="#CFE4FA"/>
   <circle cx="30" cy="96" r="1.8" fill="#CFE4FA"/><circle cx="50" cy="120" r="2.4" fill="#EAF4FF"/>
   <path d="M40 52 C41.44 58.56 41.44 58.56 48 60 C41.44 61.44 41.44 61.44 40 68 C38.56 61.44 38.56 61.44 32 60 C38.56 58.56 38.56 58.56 40 52 Z" fill="#FFFFFF" opacity="0.9"/>
   <path d="M14 26 C20 12 32 6 44 6 C36 16 30 30 28 48 C26 66 18 74 12 70 C8 60 10 40 14 26 Z" fill="#FFFFFF" opacity="0.45"/>
  <ellipse cx="24" cy="96" rx="6" ry="14" fill="#FFFFFF" opacity="0.18"/>
    </g>
    <path d="M42 0 C66 0 84 22 84 58 L84 132 C84 143 75 150 64 150 L20 150 C9 150 0 143 0 132 L0 58 C0 22 18 0 42 0 Z" fill="none" stroke="#B9CFE4" stroke-width="2.5"/>
  </g>

  <text x="450" y="540" text-anchor="middle" font-family="'Baloo 2','Quicksand','Segoe UI',sans-serif" font-size="20" font-weight="600" fill="#6B5540">Hợp mệnh Thuỷ &amp; Mộc — xanh dương, trắng sữa, ánh bạc khai thông tài vận</text>
  <g>
    <circle cx="330" cy="568" r="11" fill="#4E8FE0" stroke="#C9B49A" stroke-width="1.5"/>
    <circle cx="364" cy="568" r="11" fill="#1C4E8F" stroke="#C9B49A" stroke-width="1.5"/>
    <circle cx="398" cy="568" r="11" fill="#EAF4FF" stroke="#C9B49A" stroke-width="1.5"/>
    <text x="436" y="574" font-family="'Baloo 2','Quicksand','Segoe UI',sans-serif" font-size="17" fill="#8A7460">bảng màu may mắn</text>
  </g>
</svg>
