<svg xmlns="http://www.w3.org/2000/svg" viewBox="0 0 1000 1250">
  <defs><radialGradient id="hairG4" cx="0.42" cy="0.2" r="1.05"><stop offset="0%" stop-color="#f2d49a"/><stop offset="45%" stop-color="#dbb066"/><stop offset="100%" stop-color="#a37c35"/></radialGradient><radialGradient id="eyeG4" cx="0.5" cy="0.3" r="0.8"><stop offset="0%" stop-color="#9a7ad0"/><stop offset="60%" stop-color="#6a4aa8"/><stop offset="100%" stop-color="#2e1d52"/></radialGradient><linearGradient id="dressG4" x1="0" y1="0" x2="0" y2="1"><stop offset="0%" stop-color="#c3a2f0"/><stop offset="100%" stop-color="#9a6ee0"/></linearGradient><radialGradient id="blushG"><stop offset="0%" stop-color="#ff9dbd" stop-opacity="0.95"/><stop offset="100%" stop-color="#ff9dbd" stop-opacity="0"/></radialGradient><clipPath id="dressClip"><path d="M 386,724 Q 500,698 614,724 L 668,1002 Q 500,1040 332,1002 Z"/></clipPath></defs>
  <rect x="14" y="14" width="972" height="1222" rx="44" fill="#f5f0fc" stroke="#9a6ee0" stroke-width="5"/>
  <path d="M 275,440 Q 235,700 255,940 Q 290,912 315,952 Q 345,910 380,955 Q 405,915 430,950 L 430,760 Q 420,600 400,520 Z" fill="url(#hairG4)" stroke="#3a2430" stroke-width="9" stroke-linejoin="round"/><path d="M 725,440 Q 765,700 745,940 Q 710,912 685,952 Q 655,910 620,955 Q 595,915 570,950 L 570,760 Q 580,600 600,520 Z" fill="url(#hairG4)" stroke="#3a2430" stroke-width="9" stroke-linejoin="round"/><path d="M 300,560 Q 285,740 292,880 M 700,560 Q 715,740 708,880" fill="none" stroke="#00000030" stroke-width="6" stroke-linecap="round"/>
  <circle cx="500" cy="490" r="228" fill="#ffe0cc" stroke="#3a2430" stroke-width="9"/>
  <path d="M 288,532 Q 262,258 500,252 Q 738,258 712,532 Q 686,442 646,530 Q 614,436 556,534 Q 500,440 444,534 Q 386,436 354,530 Q 314,442 288,532 Z" fill="url(#hairG4)" stroke="#3a2430" stroke-width="9" stroke-linejoin="round"/><path d="M 500,262 Q 420,300 388,380 M 500,262 Q 580,300 612,380 M 500,258 Q 490,320 452,392" fill="none" stroke="#00000033" stroke-width="6" stroke-linecap="round"/><ellipse cx="440" cy="322" rx="92" ry="38" transform="rotate(-14 440 322)" fill="#ffffff2e"/>
  <path d="M 292,470 Q 500,350 708,470" fill="none" stroke="#9a6ee0" stroke-width="30" stroke-linecap="round"/><g fill="#9a6ee0" stroke="#3a2430" stroke-width="7" stroke-linejoin="round">
      <path d="M 500,300 L 452,270.24 Q 435.68,300 452,329.76 Z"/>
      <path d="M 500,300 L 548,270.24 Q 564.32,300 548,329.76 Z"/>
      <circle cx="500" cy="300" r="14.399999999999999"/>
    </g>
  
    <g>
      <path d="M 340,418 q 32,-16 64,-6" fill="none" stroke="#3a2430" stroke-width="8" stroke-linecap="round" opacity="0.75"/>
      <path d="M 660,418 q -32,-16 -64,-6" fill="none" stroke="#3a2430" stroke-width="8" stroke-linecap="round" opacity="0.75"/>
      
    <ellipse cx="388" cy="540" rx="60" ry="76" fill="#fff"/>
    <ellipse cx="388" cy="544" rx="48" ry="66" fill="url(#eyeG4)"/>
    <ellipse cx="388" cy="554" rx="21" ry="32" fill="#140a10"/>
    <ellipse cx="372" cy="516" rx="17" ry="22" fill="#fff"/>
    <circle cx="406" cy="568" r="8" fill="#fff" opacity="0.95"/>
    <circle cx="358" cy="558" r="5" fill="#fff" opacity="0.8"/>
    <path d="M 330,506 Q 388,454 446,506" fill="none" stroke="#3a2430" stroke-width="15" stroke-linecap="round"/>
    <path d="M 442,498 q 14,-4 20,-16" fill="none" stroke="#3a2430" stroke-width="11" stroke-linecap="round"/>
    <path d="M 334,498 q -14,-4 -20,-16" fill="none" stroke="#3a2430" stroke-width="11" stroke-linecap="round"/>
    
      
    <ellipse cx="612" cy="540" rx="60" ry="76" fill="#fff"/>
    <ellipse cx="612" cy="544" rx="48" ry="66" fill="url(#eyeG4)"/>
    <ellipse cx="612" cy="554" rx="21" ry="32" fill="#140a10"/>
    <ellipse cx="596" cy="516" rx="17" ry="22" fill="#fff"/>
    <circle cx="630" cy="568" r="8" fill="#fff" opacity="0.95"/>
    <circle cx="582" cy="558" r="5" fill="#fff" opacity="0.8"/>
    <path d="M 554,506 Q 612,454 670,506" fill="none" stroke="#3a2430" stroke-width="15" stroke-linecap="round"/>
    <path d="M 666,498 q 14,-4 20,-16" fill="none" stroke="#3a2430" stroke-width="11" stroke-linecap="round"/>
    <path d="M 558,498 q -14,-4 -20,-16" fill="none" stroke="#3a2430" stroke-width="11" stroke-linecap="round"/>
    
      <ellipse cx="322" cy="620" rx="44" ry="24" fill="url(#blushG)"/>
      <ellipse cx="678" cy="620" rx="44" ry="24" fill="url(#blushG)"/>
      <path d="M 300,612 l 26,14 M 316,602 l 26,14" stroke="#ff9db9" stroke-width="6" stroke-linecap="round" opacity="0.7"/>
      <path d="M 674,602 l 26,14 M 658,612 l 26,14" stroke="#ff9db9" stroke-width="6" stroke-linecap="round" opacity="0.7"/>
      <circle cx="500" cy="608" r="4" fill="#eab89a"/>
      <path d="M 470,648 Q 500,684 530,648 Q 500,666 470,648 Z" fill="#d95a72" stroke="#3a2430" stroke-width="6" stroke-linejoin="round"/>
    </g>
  
    <path id="dressP" d="M 386,724 Q 500,698 614,724 L 668,1002 Q 500,1040 332,1002 Z" fill="url(#dressG4)" stroke="#3a2430" stroke-width="9" stroke-linejoin="round"/>
    
    <path d="M 330,1006 Q 358,1026 386,1008 Q 412,1030 440,1010 Q 470,1032 500,1012 Q 530,1032 560,1010 Q 588,1030 614,1008 Q 642,1026 670,1006 Q 585,1044 500,1044 Q 415,1044 330,1006 Z" fill="#fff" stroke="#3a2430" stroke-width="7"/>
    <circle cx="356" cy="768" r="36" fill="url(#dressG4)" stroke="#3a2430" stroke-width="9"/>
    <circle cx="644" cy="768" r="36" fill="url(#dressG4)" stroke="#3a2430" stroke-width="9"/>
  <ellipse cx="446" cy="1052" rx="36" ry="20" fill="#c3a2f0" stroke="#3a2430" stroke-width="9"/><ellipse cx="554" cy="1052" rx="36" ry="20" fill="#c3a2f0" stroke="#3a2430" stroke-width="9"/>
  
    <g stroke="#3a2430" stroke-width="9" stroke-linejoin="round" stroke-linecap="round">
      <path d="M 446,850 L 456,986 Q 500,1000 544,986 L 554,850 Z" fill="#fff5fa"/>
      <path d="M 446,902 L 452,976 Q 500,990 548,976 L 554,902 Q 500,920 446,902 Z" fill="#d5baf5" stroke="none"/>
      <circle cx="474" cy="960" r="11" fill="#3a2430"/><circle cx="504" cy="972" r="11" fill="#3a2430"/><circle cx="530" cy="956" r="11" fill="#3a2430"/>
      <ellipse cx="500" cy="848" rx="56" ry="16" fill="#fff"/>
      <line x1="520" y1="846" x2="548" y2="788" stroke="#9a6ee0" stroke-width="16"/>
      <circle cx="438" cy="912" r="27" fill="#ffe0cc"/>
      <circle cx="562" cy="912" r="27" fill="#ffe0cc"/>
    </g>
  <g fill="#9a6ee0"><g transform="translate(362.9,1190.0) rotate(0) scale(0.05200,-0.05200) translate(-301.0,0)"><path d="M53 294 282 601Q301 607 326.0 611.0Q351 615 370 615Q401 615 428.0 607.0Q455 599 472.5 579.0Q490 559 490 522V256H569Q575 246 581.0 227.5Q587 209 587 189Q587 152 570.0 135.5Q553 119 527 119H490V1Q480 -1 457.5 -4.5Q435 -8 415 -8Q372 -8 348.0 3.5Q324 15 324 63V119H87Q64 131 47.5 154.5Q31 178 31 212Q31 231 35.5 254.5Q40 278 53 294ZM333 256V444H330L206 256Z"/></g><g transform="translate(384.7,1190.0) rotate(0) scale(0.05200,-0.05200) translate(-119.0,0)"><path d="M22 81Q22 122 48.5 150.5Q75 179 119 179Q163 179 189.5 150.5Q216 122 216 81Q216 40 189.5 11.5Q163 -17 119 -17Q75 -17 48.5 11.5Q22 40 22 81Z"/></g><g transform="translate(419.6,1190.0) rotate(0) scale(0.05200,-0.05200) translate(-351.5,0)"><path d="M668 304Q668 200 626.5 128.0Q585 56 513.5 19.0Q442 -18 351 -18Q260 -18 188.5 19.0Q117 56 76.0 128.0Q35 200 35 304Q35 408 77.0 479.5Q119 551 190.5 588.0Q262 625 351 625Q440 625 512.0 588.0Q584 551 626.0 479.5Q668 408 668 304ZM488 304Q488 393 451.0 438.5Q414 484 351 484Q290 484 252.5 439.0Q215 394 215 304Q215 213 252.5 168.0Q290 123 352 123Q414 123 451.0 168.0Q488 213 488 304Z"/></g><g transform="translate(452.0,1190.0) rotate(0) scale(0.05200,-0.05200) translate(-272.0,0)"><path d="M260 108Q277 108 297.5 111.5Q318 115 328 121V201L256 195Q228 193 210.0 183.0Q192 173 192 153Q192 133 207.5 120.5Q223 108 260 108ZM252 501Q361 501 426.5 456.5Q492 412 492 318V94Q492 68 477.5 51.5Q463 35 443 23Q411 4 365.0 -6.0Q319 -16 260 -16Q155 -16 91.5 24.5Q28 65 28 147Q28 216 69.5 253.0Q111 290 196 299L327 313V320Q327 349 301.5 361.5Q276 374 228 374Q191 374 154.5 366.0Q118 358 89 346Q76 355 67.0 373.5Q58 392 58 412Q58 460 109 480Q138 491 177.5 496.0Q217 501 252 501ZM263 772Q302 772 338.5 759.5Q375 747 398.5 721.0Q422 695 422 654Q422 602 389.0 578.0Q356 554 314 552V525Q309 522 294.5 518.5Q280 515 261 515Q227 515 214.5 522.0Q202 529 202 541V579Q202 605 214.5 613.5Q227 622 244 622H261Q298 622 298 650Q298 664 285.0 672.5Q272 681 244 681Q221 681 201.0 675.0Q181 669 169 664Q158 672 151.5 684.0Q145 696 145 710Q145 742 180.0 757.0Q215 772 263 772Z"/></g><g transform="translate(473.5,1190.0) rotate(0) scale(0.05200,-0.05200) translate(-141.0,0)"><path d="M48 621Q48 659 74.0 685.0Q100 711 141 711Q182 711 208.0 685.0Q234 659 234 621Q234 584 208.0 557.5Q182 531 141 531Q100 531 74.0 557.5Q48 584 48 621ZM56 264H226V1Q215 -2 194.5 -5.0Q174 -8 150 -8Q101 -8 78.5 9.0Q56 26 56 72ZM226 175H56V479Q67 482 87.5 485.0Q108 488 132 488Q182 488 204.0 471.5Q226 455 226 408Z"/></g><g transform="translate(506.4,1190.0) rotate(0) scale(0.05200,-0.05200) translate(-292.5,0)"><path d="M532 205H362V294Q362 335 341.5 351.5Q321 368 291 368Q261 368 238.0 357.0Q215 346 198 333V470Q221 482 253.0 491.5Q285 501 323 501Q421 501 476.5 451.5Q532 402 532 304ZM54 264H224V1Q213 -2 192.5 -5.0Q172 -8 148 -8Q99 -8 76.5 9.0Q54 26 54 72ZM362 264H532V1Q521 -2 500.5 -5.0Q480 -8 456 -8Q407 -8 384.5 9.0Q362 26 362 72ZM224 175H54V652Q65 655 85.5 658.0Q106 661 130 661Q180 661 202.0 644.5Q224 628 224 581Z"/></g><g transform="translate(540.4,1190.0) rotate(0) scale(0.05200,-0.05200) translate(-361.0,0)"><path d="M52 193V259H222V193Q222 153 242.5 135.0Q263 117 300 117Q323 117 338.0 121.0Q353 125 360 129V259H530V104Q530 79 519.5 60.5Q509 42 488 29Q453 7 404.5 -4.5Q356 -16 299 -16Q227 -16 171.0 5.5Q115 27 83.5 73.0Q52 119 52 193ZM530 216H360V484Q371 487 391.5 490.0Q412 493 436 493Q486 493 508.0 476.5Q530 460 530 413ZM222 216H52V484Q63 487 83.5 490.0Q104 493 128 493Q178 493 200.0 476.5Q222 460 222 413ZM527 295 506 296Q499 307 493.0 337.5Q487 368 487 399Q525 399 549.0 423.5Q573 448 573 502V536Q587 543 600.5 547.0Q614 551 634 551Q666 551 689.0 536.0Q712 521 712 485V479Q712 422 687.0 380.5Q662 339 620.0 317.0Q578 295 527 295Z"/></g><g transform="translate(576.1,1190.0) rotate(0) scale(0.05200,-0.05200) translate(-326.0,0)"><path d="M555 243Q555 163 522.6828193832599 105.08823529411765Q490.36563876651985 47.1764705882353 431.5022026431718 15.588235294117649Q372.6387665198238 -16 293 -16Q213.97093023255815 -16 154.98546511627907 15.0Q96 46 63.5 104.0Q31 162 31 243Q31 322.48369565217394 64.0 380.241847826087Q97 438 156.0 469.5Q215 501 293.3728813559322 501Q371.7457627118644 501 430.52542372881356 469.0473372781065Q489.3050847457627 437.094674556213 522.1525423728814 379.0473372781065Q555 321 555 243ZM292.7688679245283 368Q252 368 228.5 335.5Q205 303 205 243Q205 181 228.2054794520548 149.0Q251.41095890410958 117 293 117Q335 117 358.0 149.5Q381 182 381 243Q381 302 357.5731132075472 335.0Q334.14622641509436 368 292.7688679245283 368ZM477 295 456 296Q449 307 443.0 337.5Q437 368 437 399Q475 399 499.0 423.5Q523 448 523 502V536Q537 543 550.5 547.0Q564 551 584 551Q616 551 639.0 536.0Q662 521 662 485V479Q662 422 637.0 380.5Q612 339 570.0 317.0Q528 295 477 295Z"/></g><g transform="translate(608.2,1190.0) rotate(0) scale(0.05200,-0.05200) translate(-291.5,0)"><path d="M530 313V221H360V308Q360 339 341.5 353.5Q323 368 293 368Q273 368 255.5 363.0Q238 358 222 350V221H52V373Q52 400 63.5 417.0Q75 434 95 448Q129 472 181.0 486.5Q233 501 295 501Q408 501 469.0 451.5Q530 402 530 313ZM52 264H222V1Q211 -2 190.5 -5.0Q170 -8 146 -8Q97 -8 74.5 9.0Q52 26 52 72ZM360 264H530V1Q519 -2 498.5 -5.0Q478 -8 454 -8Q405 -8 382.5 9.0Q360 26 360 72Z"/></g><g transform="translate(638.1,1190.0) rotate(0) scale(0.05200,-0.05200) translate(-282.5,0)"><path d="M253 20Q193 20 142.0 43.0Q91 66 60.5 118.5Q30 171 30 257Q30 337 62.0 391.5Q94 446 152.5 473.5Q211 501 289 501Q346 501 394.5 486.0Q443 471 469 454Q489 441 500.5 423.0Q512 405 512 378V63H349V356Q339 361 327.0 364.5Q315 368 296 368Q253 368 226.0 341.5Q199 315 199 256Q199 193 223.5 170.0Q248 147 285 147Q315 147 335.0 157.5Q355 168 371 181L376 48Q353 36 323.5 28.0Q294 20 253 20ZM352 11V101H512V7Q512 -63 478.0 -108.5Q444 -154 386.5 -176.0Q329 -198 258 -198Q205 -198 163.5 -189.5Q122 -181 98 -165Q62 -141 62 -97Q62 -74 71.5 -55.0Q81 -36 93 -27Q122 -43 158.5 -54.0Q195 -65 235 -65Q288 -65 320.0 -47.0Q352 -29 352 11Z"/></g></g>
</svg>