<svg xmlns="http://www.w3.org/2000/svg" viewBox="0 0 1000 1250">
  <defs><radialGradient id="hairG2" cx="0.42" cy="0.2" r="1.05"><stop offset="0%" stop-color="#c98a4b"/><stop offset="45%" stop-color="#a5642c"/><stop offset="100%" stop-color="#6e3d14"/></radialGradient><radialGradient id="eyeG2" cx="0.5" cy="0.3" r="0.8"><stop offset="0%" stop-color="#c98a4b"/><stop offset="60%" stop-color="#8a5320"/><stop offset="100%" stop-color="#3a2408"/></radialGradient><linearGradient id="dressG2" x1="0" y1="0" x2="0" y2="1"><stop offset="0%" stop-color="#ffb26b"/><stop offset="100%" stop-color="#f28a2e"/></linearGradient><radialGradient id="blushG"><stop offset="0%" stop-color="#ff9dbd" stop-opacity="0.95"/><stop offset="100%" stop-color="#ff9dbd" stop-opacity="0"/></radialGradient><clipPath id="dressClip"><path d="M 386,724 Q 500,698 614,724 L 668,1002 Q 500,1040 332,1002 Z"/></clipPath></defs>
  <rect x="14" y="14" width="972" height="1222" rx="44" fill="#fff8ec" stroke="#ffd76e" stroke-width="5"/>
  <path d="M 242,460 Q 147,560 170,760 Q 180,880 232,930 Q 224,820 254,700 Q 270,580 282,510 Z" fill="url(#hairG2)" stroke="#3a2430" stroke-width="9" stroke-linejoin="round"/><path d="M 212,560 Q 200,700 216,840" fill="none" stroke="#00000030" stroke-width="6" stroke-linecap="round"/><path d="M 758,460 Q 853,560 830,760 Q 820,880 768,930 Q 776,820 746,700 Q 730,580 718,510 Z" fill="url(#hairG2)" stroke="#3a2430" stroke-width="9" stroke-linejoin="round"/><path d="M 788,560 Q 800,700 784,840" fill="none" stroke="#00000030" stroke-width="6" stroke-linecap="round"/>
  <circle cx="500" cy="490" r="228" fill="#ffe0cc" stroke="#3a2430" stroke-width="9"/>
  <path d="M 288,532 Q 262,258 500,252 Q 738,258 712,532 Q 686,442 646,530 Q 614,436 556,534 Q 500,440 444,534 Q 386,436 354,530 Q 314,442 288,532 Z" fill="url(#hairG2)" stroke="#3a2430" stroke-width="9" stroke-linejoin="round"/><path d="M 500,262 Q 420,300 388,380 M 500,262 Q 580,300 612,380 M 500,258 Q 490,320 452,392" fill="none" stroke="#00000033" stroke-width="6" stroke-linecap="round"/><ellipse cx="440" cy="322" rx="92" ry="38" transform="rotate(-14 440 322)" fill="#ffffff2e"/>
  <g fill="#ffd76e" stroke="#3a2430" stroke-width="7" stroke-linejoin="round">
      <path d="M 258,470 L 214,442.72 Q 199.04,470 214,497.28 Z"/>
      <path d="M 258,470 L 302,442.72 Q 316.96,470 302,497.28 Z"/>
      <circle cx="258" cy="470" r="13.2"/>
    </g><g fill="#ffd76e" stroke="#3a2430" stroke-width="7" stroke-linejoin="round">
      <path d="M 742,470 L 698,442.72 Q 683.04,470 698,497.28 Z"/>
      <path d="M 742,470 L 786,442.72 Q 800.96,470 786,497.28 Z"/>
      <circle cx="742" cy="470" r="13.2"/>
    </g>
  
    <g>
      <path d="M 340,418 q 32,-16 64,-6" fill="none" stroke="#3a2430" stroke-width="8" stroke-linecap="round" opacity="0.75"/>
      <path d="M 660,418 q -32,-16 -64,-6" fill="none" stroke="#3a2430" stroke-width="8" stroke-linecap="round" opacity="0.75"/>
      
    <ellipse cx="388" cy="540" rx="60" ry="76" fill="#fff"/>
    <ellipse cx="388" cy="544" rx="48" ry="66" fill="url(#eyeG2)"/>
    <ellipse cx="388" cy="554" rx="21" ry="32" fill="#140a10"/>
    <ellipse cx="372" cy="516" rx="17" ry="22" fill="#fff"/>
    <circle cx="406" cy="568" r="8" fill="#fff" opacity="0.95"/>
    <circle cx="358" cy="558" r="5" fill="#fff" opacity="0.8"/>
    <path d="M 330,506 Q 388,454 446,506" fill="none" stroke="#3a2430" stroke-width="15" stroke-linecap="round"/>
    <path d="M 442,498 q 14,-4 20,-16" fill="none" stroke="#3a2430" stroke-width="11" stroke-linecap="round"/>
    <path d="M 334,498 q -14,-4 -20,-16" fill="none" stroke="#3a2430" stroke-width="11" stroke-linecap="round"/>
    
      
    <ellipse cx="612" cy="540" rx="60" ry="76" fill="#fff"/>
    <ellipse cx="612" cy="544" rx="48" ry="66" fill="url(#eyeG2)"/>
    <ellipse cx="612" cy="554" rx="21" ry="32" fill="#140a10"/>
    <ellipse cx="596" cy="516" rx="17" ry="22" fill="#fff"/>
    <circle cx="630" cy="568" r="8" fill="#fff" opacity="0.95"/>
    <circle cx="582" cy="558" r="5" fill="#fff" opacity="0.8"/>
    <path d="M 554,506 Q 612,454 670,506" fill="none" stroke="#3a2430" stroke-width="15" stroke-linecap="round"/>
    <path d="M 666,498 q 14,-4 20,-16" fill="none" stroke="#3a2430" stroke-width="11" stroke-linecap="round"/>
    <path d="M 558,498 q -14,-4 -20,-16" fill="none" stroke="#3a2430" stroke-width="11" stroke-linecap="round"/>
    
      <ellipse cx="322" cy="620" rx="44" ry="24" fill="url(#blushG)"/>
      <ellipse cx="678" cy="620" rx="44" ry="24" fill="url(#blushG)"/>
      <path d="M 300,612 l 26,14 M 316,602 l 26,14" stroke="#ff9db9" stroke-width="6" stroke-linecap="round" opacity="0.7"/>
      <path d="M 674,602 l 26,14 M 658,612 l 26,14" stroke="#ff9db9" stroke-width="6" stroke-linecap="round" opacity="0.7"/>
      <circle cx="500" cy="608" r="4" fill="#eab89a"/>
      <path d="M 470,648 Q 500,684 530,648 Q 500,666 470,648 Z" fill="#d95a72" stroke="#3a2430" stroke-width="6" stroke-linejoin="round"/>
    </g>
  
    <path id="dressP" d="M 386,724 Q 500,698 614,724 L 668,1002 Q 500,1040 332,1002 Z" fill="url(#dressG2)" stroke="#3a2430" stroke-width="9" stroke-linejoin="round"/>
    <path d="M 424,746 Q 500,726 576,746 L 612,996 Q 500,1026 388,996 Z" fill="#ffffff" opacity="0.96" stroke="#3a2430" stroke-width="8" stroke-linejoin="round"/><path d="M 434,752 L 448,722 M 566,752 L 552,722" stroke="#3a2430" stroke-width="8" stroke-linecap="round"/><rect x="462" y="850" width="76" height="56" rx="14" fill="none" stroke="#3a2430" stroke-width="7"/>
    
    <circle cx="356" cy="768" r="36" fill="url(#dressG2)" stroke="#3a2430" stroke-width="9"/>
    <circle cx="644" cy="768" r="36" fill="url(#dressG2)" stroke="#3a2430" stroke-width="9"/>
  <ellipse cx="446" cy="1052" rx="36" ry="20" fill="#ffd76e" stroke="#3a2430" stroke-width="9"/><ellipse cx="554" cy="1052" rx="36" ry="20" fill="#ffd76e" stroke="#3a2430" stroke-width="9"/>
  
    <g stroke="#3a2430" stroke-width="9" stroke-linejoin="round" stroke-linecap="round">
      <path d="M 446,850 L 456,986 Q 500,1000 544,986 L 554,850 Z" fill="#fff5fa"/>
      <path d="M 446,902 L 452,976 Q 500,990 548,976 L 554,902 Q 500,920 446,902 Z" fill="#ffe27a" stroke="none"/>
      
      <ellipse cx="500" cy="848" rx="56" ry="16" fill="#fff"/>
      <line x1="520" y1="846" x2="548" y2="788" stroke="#f2a52e" stroke-width="16"/>
      <circle cx="438" cy="912" r="27" fill="#ffe0cc"/>
      <circle cx="562" cy="912" r="27" fill="#ffe0cc"/>
    </g>
  <g fill="#ffd76e"><g transform="translate(363.4,1190.0) rotate(0) scale(0.05200,-0.05200) translate(-261.0,0)"><path d="M60 520Q60 555 82.5 577.5Q105 600 145.5 611.5Q186 623 241 623Q320 623 373.0 598.5Q426 574 453.0 532.0Q480 490 480 437Q480 384 450.5 334.5Q421 285 361 237L230 132H470Q476 122 481.5 104.5Q487 87 487 67Q487 31 471.0 15.5Q455 0 429 0H82Q60 15 47.5 39.0Q35 63 35 94Q35 128 49.5 151.5Q64 175 80 189L218 307Q270 351 289.0 378.0Q308 405 308 427Q308 455 285.5 471.0Q263 487 223 487Q183 487 151.5 474.5Q120 462 99 448Q83 460 71.5 478.0Q60 496 60 520Z"/></g><g transform="translate(383.2,1190.0) rotate(0) scale(0.05200,-0.05200) translate(-119.0,0)"><path d="M22 81Q22 122 48.5 150.5Q75 179 119 179Q163 179 189.5 150.5Q216 122 216 81Q216 40 189.5 11.5Q163 -17 119 -17Q75 -17 48.5 11.5Q22 40 22 81Z"/></g><g transform="translate(417.9,1190.0) rotate(0) scale(0.05200,-0.05200) translate(-350.0,0)"><path d="M197 374V238H319Q347 238 363.0 254.5Q379 271 379 308Q379 329 373.5 346.0Q368 363 361 374ZM209 238V374H75Q47 374 31.0 357.5Q15 341 15 304Q15 283 20.5 266.0Q26 249 33 238ZM485 301Q485 213 441.5 169.0Q398 125 330 125Q317 125 300.5 126.5Q284 128 273 130V478Q288 480 302.5 481.0Q317 482 331 482Q378 482 412.5 461.5Q447 441 466.0 401.0Q485 361 485 301ZM665 304Q665 413 621.5 483.5Q578 554 500.5 588.5Q423 623 319 623Q281 623 233.0 618.5Q185 614 142 600Q123 593 111.0 581.5Q99 570 99 549V82Q99 30 154 9Q194 -6 244.5 -11.0Q295 -16 329 -16Q430 -16 505.5 19.5Q581 55 623.0 126.0Q665 197 665 304Z"/></g><g transform="translate(450.3,1190.0) rotate(0) scale(0.05200,-0.05200) translate(-272.0,0)"><path d="M260 108Q277 108 297.5 111.5Q318 115 328 121V201L256 195Q228 193 210.0 183.0Q192 173 192 153Q192 133 207.5 120.5Q223 108 260 108ZM252 501Q361 501 426.5 456.5Q492 412 492 318V94Q492 68 477.5 51.5Q463 35 443 23Q411 4 365.0 -6.0Q319 -16 260 -16Q155 -16 91.5 24.5Q28 65 28 147Q28 216 69.5 253.0Q111 290 196 299L327 313V320Q327 349 301.5 361.5Q276 374 228 374Q191 374 154.5 366.0Q118 358 89 346Q76 355 67.0 373.5Q58 392 58 412Q58 460 109 480Q138 491 177.5 496.0Q217 501 252 501ZM211 556 113 646Q112 650 111.5 657.5Q111 665 111 669Q111 706 132.0 726.5Q153 747 184 747Q204 747 222.5 739.0Q241 731 258 710L347 599Q343 564 321.5 547.0Q300 530 276 530Q255 530 240.5 536.5Q226 543 211 556Z"/></g><g transform="translate(479.7,1190.0) rotate(0) scale(0.05200,-0.05200) translate(-293.0,0)"><path d="M555 243Q555 163 522.6828193832599 105.08823529411765Q490.36563876651985 47.1764705882353 431.5022026431718 15.588235294117649Q372.6387665198238 -16 293 -16Q213.97093023255815 -16 154.98546511627907 15.0Q96 46 63.5 104.0Q31 162 31 243Q31 322.48369565217394 64.0 380.241847826087Q97 438 156.0 469.5Q215 501 293.3728813559322 501Q371.7457627118644 501 430.52542372881356 469.0473372781065Q489.3050847457627 437.094674556213 522.1525423728814 379.0473372781065Q555 321 555 243ZM292.7688679245283 368Q252 368 228.5 335.5Q205 303 205 243Q205 181 228.2054794520548 149.0Q251.41095890410958 117 293 117Q335 117 358.0 149.5Q381 182 381 243Q381 302 357.5731132075472 335.0Q334.14622641509436 368 292.7688679245283 368Z"/></g><g transform="translate(518.0,1190.0) rotate(0) scale(0.05200,-0.05200) translate(-244.5,0)"><path d="M326 367Q276 367 239.5 335.0Q203 303 203 241Q203 179 238.0 149.0Q273 119 325 119Q355 119 378.5 126.5Q402 134 418 142Q437 128 446.5 112.0Q456 96 456 73Q456 33 416.5 9.0Q377 -15 304 -15Q221 -15 159.5 14.0Q98 43 64.5 100.5Q31 158 31 241Q31 329 68.0 386.5Q105 444 166.0 472.5Q227 501 299 501Q370 501 409.5 475.0Q449 449 449 408Q449 389 440.0 372.5Q431 356 419 344Q402 352 378.0 359.5Q354 367 326 367Z"/></g><g transform="translate(545.9,1190.0) rotate(0) scale(0.05200,-0.05200) translate(-292.5,0)"><path d="M532 205H362V294Q362 335 341.5 351.5Q321 368 291 368Q261 368 238.0 357.0Q215 346 198 333V470Q221 482 253.0 491.5Q285 501 323 501Q421 501 476.5 451.5Q532 402 532 304ZM54 264H224V1Q213 -2 192.5 -5.0Q172 -8 148 -8Q99 -8 76.5 9.0Q54 26 54 72ZM362 264H532V1Q521 -2 500.5 -5.0Q480 -8 456 -8Q407 -8 384.5 9.0Q362 26 362 72ZM224 175H54V652Q65 655 85.5 658.0Q106 661 130 661Q180 661 202.0 644.5Q224 628 224 581Z"/></g><g transform="translate(575.3,1190.0) rotate(0) scale(0.05200,-0.05200) translate(-272.0,0)"><path d="M260 108Q277 108 297.5 111.5Q318 115 328 121V201L256 195Q228 193 210.0 183.0Q192 173 192 153Q192 133 207.5 120.5Q223 108 260 108ZM252 501Q361 501 426.5 456.5Q492 412 492 318V94Q492 68 477.5 51.5Q463 35 443 23Q411 4 365.0 -6.0Q319 -16 260 -16Q155 -16 91.5 24.5Q28 65 28 147Q28 216 69.5 253.0Q111 290 196 299L327 313V320Q327 349 301.5 361.5Q276 374 228 374Q191 374 154.5 366.0Q118 358 89 346Q76 355 67.0 373.5Q58 392 58 412Q58 460 109 480Q138 491 177.5 496.0Q217 501 252 501Z"/></g><g transform="translate(604.6,1190.0) rotate(0) scale(0.05200,-0.05200) translate(-291.5,0)"><path d="M530 313V221H360V308Q360 339 341.5 353.5Q323 368 293 368Q273 368 255.5 363.0Q238 358 222 350V221H52V373Q52 400 63.5 417.0Q75 434 95 448Q129 472 181.0 486.5Q233 501 295 501Q408 501 469.0 451.5Q530 402 530 313ZM52 264H222V1Q211 -2 190.5 -5.0Q170 -8 146 -8Q97 -8 74.5 9.0Q52 26 52 72ZM360 264H530V1Q519 -2 498.5 -5.0Q478 -8 454 -8Q405 -8 382.5 9.0Q360 26 360 72Z"/></g><g transform="translate(635.0,1190.0) rotate(0) scale(0.05200,-0.05200) translate(-292.5,0)"><path d="M532 205H362V294Q362 335 341.5 351.5Q321 368 291 368Q261 368 238.0 357.0Q215 346 198 333V470Q221 482 253.0 491.5Q285 501 323 501Q421 501 476.5 451.5Q532 402 532 304ZM54 264H224V1Q213 -2 192.5 -5.0Q172 -8 148 -8Q99 -8 76.5 9.0Q54 26 54 72ZM362 264H532V1Q521 -2 500.5 -5.0Q480 -8 456 -8Q407 -8 384.5 9.0Q362 26 362 72ZM224 175H54V652Q65 655 85.5 658.0Q106 661 130 661Q180 661 202.0 644.5Q224 628 224 581Z"/></g></g>
</svg>