<svg xmlns="http://www.w3.org/2000/svg" viewBox="0 0 1000 1250">
  <defs><radialGradient id="hairG9" cx="0.42" cy="0.2" r="1.05"><stop offset="0%" stop-color="#7a5a48"/><stop offset="45%" stop-color="#553a2a"/><stop offset="100%" stop-color="#2e1c10"/></radialGradient><radialGradient id="eyeG9" cx="0.5" cy="0.3" r="0.8"><stop offset="0%" stop-color="#a57a52"/><stop offset="60%" stop-color="#6e4a2c"/><stop offset="100%" stop-color="#2e1c0c"/></radialGradient><linearGradient id="dressG9" x1="0" y1="0" x2="0" y2="1"><stop offset="0%" stop-color="#e8d5b8"/><stop offset="100%" stop-color="#c8a882"/></linearGradient><radialGradient id="blushG"><stop offset="0%" stop-color="#ff9dbd" stop-opacity="0.95"/><stop offset="100%" stop-color="#ff9dbd" stop-opacity="0"/></radialGradient><clipPath id="dressClip"><path d="M 386,724 Q 500,698 614,724 L 668,1002 Q 500,1040 332,1002 Z"/></clipPath></defs>
  <rect x="14" y="14" width="972" height="1222" rx="44" fill="#f9f4ec" stroke="#a5654a" stroke-width="5"/>
  <path d="M 278,450 Q 252,650 300,740 Q 330,700 355,742 L 372,640 Q 360,540 350,500 Z" fill="url(#hairG9)" stroke="#3a2430" stroke-width="9" stroke-linejoin="round"/><path d="M 722,450 Q 748,650 700,740 Q 670,700 645,742 L 628,640 Q 640,540 650,500 Z" fill="url(#hairG9)" stroke="#3a2430" stroke-width="9" stroke-linejoin="round"/>
  <circle cx="500" cy="490" r="228" fill="#ffe0cc" stroke="#3a2430" stroke-width="9"/>
  <path d="M 288,532 Q 262,258 500,252 Q 738,258 712,532 Q 686,442 646,530 Q 614,436 556,534 Q 500,440 444,534 Q 386,436 354,530 Q 314,442 288,532 Z" fill="url(#hairG9)" stroke="#3a2430" stroke-width="9" stroke-linejoin="round"/><path d="M 500,262 Q 420,300 388,380 M 500,262 Q 580,300 612,380 M 500,258 Q 490,320 452,392" fill="none" stroke="#00000033" stroke-width="6" stroke-linecap="round"/><ellipse cx="440" cy="322" rx="92" ry="38" transform="rotate(-14 440 322)" fill="#ffffff2e"/>
  <ellipse cx="500" cy="272" rx="216" ry="78" transform="rotate(-5 500 272)" fill="#a5654a" stroke="#3a2430" stroke-width="9"/><circle cx="500" cy="205" r="16" fill="#a5654a" stroke="#3a2430" stroke-width="7"/>
  
    <g>
      <path d="M 340,418 q 32,-16 64,-6" fill="none" stroke="#3a2430" stroke-width="8" stroke-linecap="round" opacity="0.75"/>
      <path d="M 660,418 q -32,-16 -64,-6" fill="none" stroke="#3a2430" stroke-width="8" stroke-linecap="round" opacity="0.75"/>
      
    <ellipse cx="388" cy="540" rx="60" ry="76" fill="#fff"/>
    <ellipse cx="388" cy="544" rx="48" ry="66" fill="url(#eyeG9)"/>
    <ellipse cx="388" cy="554" rx="21" ry="32" fill="#140a10"/>
    <ellipse cx="372" cy="516" rx="17" ry="22" fill="#fff"/>
    <circle cx="406" cy="568" r="8" fill="#fff" opacity="0.95"/>
    <circle cx="358" cy="558" r="5" fill="#fff" opacity="0.8"/>
    <path d="M 330,506 Q 388,454 446,506" fill="none" stroke="#3a2430" stroke-width="15" stroke-linecap="round"/>
    <path d="M 442,498 q 14,-4 20,-16" fill="none" stroke="#3a2430" stroke-width="11" stroke-linecap="round"/>
    <path d="M 334,498 q -14,-4 -20,-16" fill="none" stroke="#3a2430" stroke-width="11" stroke-linecap="round"/>
    
      
    <ellipse cx="612" cy="540" rx="60" ry="76" fill="#fff"/>
    <ellipse cx="612" cy="544" rx="48" ry="66" fill="url(#eyeG9)"/>
    <ellipse cx="612" cy="554" rx="21" ry="32" fill="#140a10"/>
    <ellipse cx="596" cy="516" rx="17" ry="22" fill="#fff"/>
    <circle cx="630" cy="568" r="8" fill="#fff" opacity="0.95"/>
    <circle cx="582" cy="558" r="5" fill="#fff" opacity="0.8"/>
    <path d="M 554,506 Q 612,454 670,506" fill="none" stroke="#3a2430" stroke-width="15" stroke-linecap="round"/>
    <path d="M 666,498 q 14,-4 20,-16" fill="none" stroke="#3a2430" stroke-width="11" stroke-linecap="round"/>
    <path d="M 558,498 q -14,-4 -20,-16" fill="none" stroke="#3a2430" stroke-width="11" stroke-linecap="round"/>
    
      <ellipse cx="322" cy="620" rx="44" ry="24" fill="url(#blushG)"/>
      <ellipse cx="678" cy="620" rx="44" ry="24" fill="url(#blushG)"/>
      <path d="M 300,612 l 26,14 M 316,602 l 26,14" stroke="#ff9db9" stroke-width="6" stroke-linecap="round" opacity="0.7"/>
      <path d="M 674,602 l 26,14 M 658,612 l 26,14" stroke="#ff9db9" stroke-width="6" stroke-linecap="round" opacity="0.7"/>
      <circle cx="500" cy="608" r="4" fill="#eab89a"/>
      <path d="M 470,648 Q 500,684 530,648 Q 500,666 470,648 Z" fill="#d95a72" stroke="#3a2430" stroke-width="6" stroke-linejoin="round"/>
    </g>
  
    <path id="dressP" d="M 386,724 Q 500,698 614,724 L 668,1002 Q 500,1040 332,1002 Z" fill="url(#dressG9)" stroke="#3a2430" stroke-width="9" stroke-linejoin="round"/>
    <path d="M 424,746 Q 500,726 576,746 L 612,996 Q 500,1026 388,996 Z" fill="#fffaf2" opacity="0.96" stroke="#3a2430" stroke-width="8" stroke-linejoin="round"/><path d="M 434,752 L 448,722 M 566,752 L 552,722" stroke="#3a2430" stroke-width="8" stroke-linecap="round"/><rect x="462" y="850" width="76" height="56" rx="14" fill="none" stroke="#3a2430" stroke-width="7"/>
    
    <circle cx="356" cy="768" r="36" fill="url(#dressG9)" stroke="#3a2430" stroke-width="9"/>
    <circle cx="644" cy="768" r="36" fill="url(#dressG9)" stroke="#3a2430" stroke-width="9"/>
  <ellipse cx="446" cy="1052" rx="36" ry="20" fill="#a5654a" stroke="#3a2430" stroke-width="9"/><ellipse cx="554" cy="1052" rx="36" ry="20" fill="#a5654a" stroke="#3a2430" stroke-width="9"/>
  
    <g stroke="#3a2430" stroke-width="9" stroke-linejoin="round" stroke-linecap="round">
      <path d="M 446,850 L 456,986 Q 500,1000 544,986 L 554,850 Z" fill="#fff5fa"/>
      <path d="M 446,902 L 452,976 Q 500,990 548,976 L 554,902 Q 500,920 446,902 Z" fill="#c8956a" stroke="none"/>
      <circle cx="474" cy="960" r="11" fill="#3a2430"/><circle cx="504" cy="972" r="11" fill="#3a2430"/><circle cx="530" cy="956" r="11" fill="#3a2430"/>
      <ellipse cx="500" cy="848" rx="56" ry="16" fill="#fff"/>
      <line x1="520" y1="846" x2="548" y2="788" stroke="#a5654a" stroke-width="16"/>
      <circle cx="438" cy="912" r="27" fill="#ffe0cc"/>
      <circle cx="562" cy="912" r="27" fill="#ffe0cc"/>
    </g>
  <g fill="#a5654a"><g transform="translate(354.4,1190.0) rotate(0) scale(0.05200,-0.05200) translate(-279.0,0)"><path d="M69 73Q69 94 78.5 113.5Q88 133 101 143Q128 131 157.5 124.5Q187 118 212 118Q256 118 287.5 133.5Q319 149 336.5 177.5Q354 206 353 243Q340 233 321.5 225.0Q303 217 282.0 213.0Q261 209 237 209Q177 209 131.0 231.5Q85 254 58.5 298.5Q32 343 32 408Q32 466 59.0 514.5Q86 563 139.0 593.0Q192 623 270 623Q349 623 405.5 587.5Q462 552 492.5 484.0Q523 416 523 319Q523 208 487.0 133.5Q451 59 387.5 21.5Q324 -16 240 -16Q161 -16 115.0 6.5Q69 29 69 73ZM276 337Q295 337 314.5 345.0Q334 353 347 367V380Q347 433 327.5 460.5Q308 488 269 488Q236 488 218.5 467.5Q201 447 201 412Q201 377 222.5 357.0Q244 337 276 337Z"/></g><g transform="translate(375.1,1190.0) rotate(0) scale(0.05200,-0.05200) translate(-119.0,0)"><path d="M22 81Q22 122 48.5 150.5Q75 179 119 179Q163 179 189.5 150.5Q216 122 216 81Q216 40 189.5 11.5Q163 -17 119 -17Q75 -17 48.5 11.5Q22 40 22 81Z"/></g><g transform="translate(407.6,1190.0) rotate(0) scale(0.05200,-0.05200) translate(-307.5,0)"><path d="M155 326 359 340Q436 255 498.5 188.0Q561 121 598 81Q598 38 569.0 13.5Q540 -11 502 -11Q461 -11 435.0 9.5Q409 30 385 58ZM360 265 131 248 448 612Q516 612 545.5 586.5Q575 561 575 526Q575 500 562.0 477.0Q549 454 520 425ZM65 442H240V1Q229 -2 206.0 -5.0Q183 -8 159 -8Q107 -8 86.0 10.5Q65 29 65 75ZM240 211H65V608Q77 610 100.5 613.5Q124 617 146 617Q196 617 218.0 600.0Q240 583 240 534Z"/></g><g transform="translate(437.9,1190.0) rotate(0) scale(0.05200,-0.05200) translate(-274.5,0)"><path d="M134 167 128 279 359 317Q357 337 339.0 357.0Q321 377 283 377Q243 377 216.5 351.0Q190 325 188 277L194 193Q204 147 239.5 129.0Q275 111 319 111Q361 111 399.0 122.0Q437 133 460 146Q476 136 487.0 118.0Q498 100 498 80Q498 47 473.5 25.5Q449 4 406.0 -6.0Q363 -16 307 -16Q229 -16 166.5 13.5Q104 43 67.5 102.0Q31 161 31 250Q31 316 52.5 364.0Q74 412 110.0 442.0Q146 472 190.5 486.5Q235 501 282 501Q353 501 406.0 473.5Q459 446 489.0 398.5Q519 351 519 289Q519 255 500.0 237.0Q481 219 447 214Z"/></g><g transform="translate(474.2,1190.0) rotate(0) scale(0.05200,-0.05200) translate(-423.5,0)"><path d="M508 334V221H338V311Q338 341 320.5 354.5Q303 368 278 368Q259 368 245.0 362.5Q231 357 222 352V221H52V373Q52 400 63.5 417.0Q75 434 95 448Q129 472 179.5 486.5Q230 501 285 501Q332 501 375.0 486.5Q418 472 453 440Q461 433 469.5 426.0Q478 419 482 411Q493 394 500.5 374.0Q508 354 508 334ZM794 316V221H624V311Q624 341 608.0 354.5Q592 368 566 368Q547 368 530.0 360.5Q513 353 502 344L409 439Q444 464 486.5 482.5Q529 501 592 501Q643 501 689.5 483.0Q736 465 765.0 424.5Q794 384 794 316ZM52 264H222V1Q211 -2 190.5 -5.0Q170 -8 146 -8Q97 -8 74.5 9.0Q52 26 52 72ZM338 264H508V1Q497 -2 476.5 -5.0Q456 -8 432 -8Q383 -8 360.5 9.0Q338 26 338 72ZM624 264H794V1Q783 -2 762.5 -5.0Q742 -8 718 -8Q669 -8 646.5 9.0Q624 26 624 72Z"/></g><g transform="translate(519.3,1190.0) rotate(0) scale(0.05200,-0.05200) translate(-244.5,0)"><path d="M326 367Q276 367 239.5 335.0Q203 303 203 241Q203 179 238.0 149.0Q273 119 325 119Q355 119 378.5 126.5Q402 134 418 142Q437 128 446.5 112.0Q456 96 456 73Q456 33 416.5 9.0Q377 -15 304 -15Q221 -15 159.5 14.0Q98 43 64.5 100.5Q31 158 31 241Q31 329 68.0 386.5Q105 444 166.0 472.5Q227 501 299 501Q370 501 409.5 475.0Q449 449 449 408Q449 389 440.0 372.5Q431 356 419 344Q402 352 378.0 359.5Q354 367 326 367Z"/></g><g transform="translate(546.2,1190.0) rotate(0) scale(0.05200,-0.05200) translate(-272.0,0)"><path d="M260 108Q277 108 297.5 111.5Q318 115 328 121V201L256 195Q228 193 210.0 183.0Q192 173 192 153Q192 133 207.5 120.5Q223 108 260 108ZM252 501Q361 501 426.5 456.5Q492 412 492 318V94Q492 68 477.5 51.5Q463 35 443 23Q411 4 365.0 -6.0Q319 -16 260 -16Q155 -16 91.5 24.5Q28 65 28 147Q28 216 69.5 253.0Q111 290 196 299L327 313V320Q327 349 301.5 361.5Q276 374 228 374Q191 374 154.5 366.0Q118 358 89 346Q76 355 67.0 373.5Q58 392 58 412Q58 460 109 480Q138 491 177.5 496.0Q217 501 252 501ZM211 556 113 646Q112 650 111.5 657.5Q111 665 111 669Q111 706 132.0 726.5Q153 747 184 747Q204 747 222.5 739.0Q241 731 258 710L347 599Q343 564 321.5 547.0Q300 530 276 530Q255 530 240.5 536.5Q226 543 211 556Z"/></g><g transform="translate(586.0,1190.0) rotate(0) scale(0.05200,-0.05200) translate(-292.5,0)"><path d="M303 -15Q375 -15 431.5 15.0Q488 45 521.0 103.0Q554 161 554 246Q554 335 520.0 391.5Q486 448 425.0 474.5Q364 501 283 501Q224 501 175.0 488.5Q126 476 95 456Q75 443 63.5 425.0Q52 407 52 380V55H221V353Q232 359 248.0 363.5Q264 368 283 368Q315 368 336.5 355.0Q358 342 369.0 315.5Q380 289 380 246Q380 184 353.5 151.5Q327 119 277 119Q249 119 227.0 130.0Q205 141 188 154V12Q212 1 239.5 -7.0Q267 -15 303 -15ZM222 96H52V-107Q52 -153 74.5 -170.0Q97 -187 146 -187Q170 -187 190.5 -184.0Q211 -181 222 -178Z"/></g><g transform="translate(616.4,1190.0) rotate(0) scale(0.05200,-0.05200) translate(-292.5,0)"><path d="M532 205H362V294Q362 335 341.5 351.5Q321 368 291 368Q261 368 238.0 357.0Q215 346 198 333V470Q221 482 253.0 491.5Q285 501 323 501Q421 501 476.5 451.5Q532 402 532 304ZM54 264H224V1Q213 -2 192.5 -5.0Q172 -8 148 -8Q99 -8 76.5 9.0Q54 26 54 72ZM362 264H532V1Q521 -2 500.5 -5.0Q480 -8 456 -8Q407 -8 384.5 9.0Q362 26 362 72ZM224 175H54V652Q65 655 85.5 658.0Q106 661 130 661Q180 661 202.0 644.5Q224 628 224 581Z"/></g><g transform="translate(645.9,1190.0) rotate(0) scale(0.05200,-0.05200) translate(-274.5,0)"><path d="M134 167 128 279 359 317Q357 337 339.0 357.0Q321 377 283 377Q243 377 216.5 351.0Q190 325 188 277L194 193Q204 147 239.5 129.0Q275 111 319 111Q361 111 399.0 122.0Q437 133 460 146Q476 136 487.0 118.0Q498 100 498 80Q498 47 473.5 25.5Q449 4 406.0 -6.0Q363 -16 307 -16Q229 -16 166.5 13.5Q104 43 67.5 102.0Q31 161 31 250Q31 316 52.5 364.0Q74 412 110.0 442.0Q146 472 190.5 486.5Q235 501 282 501Q353 501 406.0 473.5Q459 446 489.0 398.5Q519 351 519 289Q519 255 500.0 237.0Q481 219 447 214ZM323 577 283 626Q257 597 240.5 578.5Q224 560 202 534Q163 534 140.0 552.0Q117 570 117 598Q117 618 128.0 632.5Q139 647 161 669L195 703Q214 722 235.5 733.5Q257 745 286 745Q312 745 334.5 735.0Q357 725 385 690L456 603Q456 575 439.5 555.5Q423 536 389 536Q370 536 354.5 547.0Q339 558 323 577Z"/></g></g>
</svg>