<svg xmlns="http://www.w3.org/2000/svg" viewBox="0 0 1000 1250">
  <defs><radialGradient id="hairG10" cx="0.42" cy="0.2" r="1.05"><stop offset="0%" stop-color="#ff8fc0"/><stop offset="45%" stop-color="#b06ad0"/><stop offset="100%" stop-color="#5c3a9a"/></radialGradient><radialGradient id="eyeG10" cx="0.5" cy="0.3" r="0.8"><stop offset="0%" stop-color="#c05ad0"/><stop offset="60%" stop-color="#8a3aa8"/><stop offset="100%" stop-color="#3a1052"/></radialGradient><linearGradient id="dressG10" x1="0" y1="0" x2="0" y2="1"><stop offset="0%" stop-color="#4a3a6e"/><stop offset="100%" stop-color="#2c2048"/></linearGradient><radialGradient id="blushG"><stop offset="0%" stop-color="#ff9dbd" stop-opacity="0.95"/><stop offset="100%" stop-color="#ff9dbd" stop-opacity="0"/></radialGradient><clipPath id="dressClip"><path d="M 386,724 Q 500,698 614,724 L 668,1002 Q 500,1040 332,1002 Z"/></clipPath></defs>
  <rect x="14" y="14" width="972" height="1222" rx="44" fill="#f3f0fa" stroke="#ffd76e" stroke-width="5"/>
  <circle cx="288" cy="298" r="84" fill="url(#hairG10)" stroke="#3a2430" stroke-width="9"/><path d="M 248,288 Q 288,250 330,290 Q 306,318 274,304" fill="none" stroke="#00000035" stroke-width="7" stroke-linecap="round"/><circle cx="712" cy="298" r="84" fill="url(#hairG10)" stroke="#3a2430" stroke-width="9"/><path d="M 672,288 Q 712,250 754,290 Q 730,318 698,304" fill="none" stroke="#00000035" stroke-width="7" stroke-linecap="round"/><path d="M 278,450 Q 252,650 300,740 Q 330,700 355,742 L 372,640 Q 360,540 350,500 Z" fill="url(#hairG10)" stroke="#3a2430" stroke-width="9" stroke-linejoin="round"/><path d="M 722,450 Q 748,650 700,740 Q 670,700 645,742 L 628,640 Q 640,540 650,500 Z" fill="url(#hairG10)" stroke="#3a2430" stroke-width="9" stroke-linejoin="round"/>
  <circle cx="500" cy="490" r="228" fill="#ffe0cc" stroke="#3a2430" stroke-width="9"/>
  <path d="M 288,532 Q 262,258 500,252 Q 738,258 712,532 Q 686,442 646,530 Q 614,436 556,534 Q 500,440 444,534 Q 386,436 354,530 Q 314,442 288,532 Z" fill="url(#hairG10)" stroke="#3a2430" stroke-width="9" stroke-linejoin="round"/><path d="M 500,262 Q 420,300 388,380 M 500,262 Q 580,300 612,380 M 500,258 Q 490,320 452,392" fill="none" stroke="#00000033" stroke-width="6" stroke-linecap="round"/><ellipse cx="440" cy="322" rx="92" ry="38" transform="rotate(-14 440 322)" fill="#ffffff2e"/>
  <path d="M 288,286 L 291.5,294.5 L 300,298 L 291.5,301.5 L 288,310 L 284.5,301.5 L 276,298 L 284.5,294.5 Z" fill="#ffd76e"/><path d="M 712,286 L 715.5,294.5 L 724,298 L 715.5,301.5 L 712,310 L 708.5,301.5 L 700,298 L 708.5,294.5 Z" fill="#ffd76e"/><path d="M 340,328 L 343.5,336.5 L 352,340 L 343.5,343.5 L 340,352 L 336.5,343.5 L 328,340 L 336.5,336.5 Z" fill="#ffd76e"/><path d="M 660,248 L 663.5,256.5 L 672,260 L 663.5,263.5 L 660,272 L 656.5,263.5 L 648,260 L 656.5,256.5 Z" fill="#ffd76e"/>
  
    <g>
      <path d="M 340,418 q 32,-16 64,-6" fill="none" stroke="#3a2430" stroke-width="8" stroke-linecap="round" opacity="0.75"/>
      <path d="M 660,418 q -32,-16 -64,-6" fill="none" stroke="#3a2430" stroke-width="8" stroke-linecap="round" opacity="0.75"/>
      
    <ellipse cx="388" cy="540" rx="60" ry="76" fill="#fff"/>
    <ellipse cx="388" cy="544" rx="48" ry="66" fill="url(#eyeG10)"/>
    <ellipse cx="388" cy="554" rx="21" ry="32" fill="#140a10"/>
    <ellipse cx="372" cy="516" rx="17" ry="22" fill="#fff"/>
    <circle cx="406" cy="568" r="8" fill="#fff" opacity="0.95"/>
    <circle cx="358" cy="558" r="5" fill="#fff" opacity="0.8"/>
    <path d="M 330,506 Q 388,454 446,506" fill="none" stroke="#3a2430" stroke-width="15" stroke-linecap="round"/>
    <path d="M 442,498 q 14,-4 20,-16" fill="none" stroke="#3a2430" stroke-width="11" stroke-linecap="round"/>
    <path d="M 334,498 q -14,-4 -20,-16" fill="none" stroke="#3a2430" stroke-width="11" stroke-linecap="round"/>
    
      
    <ellipse cx="612" cy="540" rx="60" ry="76" fill="#fff"/>
    <ellipse cx="612" cy="544" rx="48" ry="66" fill="url(#eyeG10)"/>
    <ellipse cx="612" cy="554" rx="21" ry="32" fill="#140a10"/>
    <ellipse cx="596" cy="516" rx="17" ry="22" fill="#fff"/>
    <circle cx="630" cy="568" r="8" fill="#fff" opacity="0.95"/>
    <circle cx="582" cy="558" r="5" fill="#fff" opacity="0.8"/>
    <path d="M 554,506 Q 612,454 670,506" fill="none" stroke="#3a2430" stroke-width="15" stroke-linecap="round"/>
    <path d="M 666,498 q 14,-4 20,-16" fill="none" stroke="#3a2430" stroke-width="11" stroke-linecap="round"/>
    <path d="M 558,498 q -14,-4 -20,-16" fill="none" stroke="#3a2430" stroke-width="11" stroke-linecap="round"/>
    
      <ellipse cx="322" cy="620" rx="44" ry="24" fill="url(#blushG)"/>
      <ellipse cx="678" cy="620" rx="44" ry="24" fill="url(#blushG)"/>
      <path d="M 300,612 l 26,14 M 316,602 l 26,14" stroke="#ff9db9" stroke-width="6" stroke-linecap="round" opacity="0.7"/>
      <path d="M 674,602 l 26,14 M 658,612 l 26,14" stroke="#ff9db9" stroke-width="6" stroke-linecap="round" opacity="0.7"/>
      <circle cx="500" cy="608" r="4" fill="#eab89a"/>
      <path d="M 470,648 Q 500,684 530,648 Q 500,666 470,648 Z" fill="#d95a72" stroke="#3a2430" stroke-width="6" stroke-linejoin="round"/>
    </g>
  
    <path id="dressP" d="M 386,724 Q 500,698 614,724 L 668,1002 Q 500,1040 332,1002 Z" fill="url(#dressG10)" stroke="#3a2430" stroke-width="9" stroke-linejoin="round"/>
    <g clip-path="url(#dressClip)"><path d="M 410,784 L 414.64,795.36 L 426,800 L 414.64,804.64 L 410,816 L 405.36,804.64 L 394,800 L 405.36,795.36 Z" fill="#fff2a8"/><path d="M 560,837 L 563.77,846.23 L 573,850 L 563.77,853.77 L 560,863 L 556.23,853.77 L 547,850 L 556.23,846.23 Z" fill="#fff2a8"/><path d="M 480,924 L 484.64,935.36 L 496,940 L 484.64,944.64 L 480,956 L 475.36,944.64 L 464,940 L 475.36,935.36 Z" fill="#fff2a8"/><path d="M 620,768 L 623.48,776.52 L 632,780 L 623.48,783.48 L 620,792 L 616.52,783.48 L 608,780 L 616.52,776.52 Z" fill="#fff2a8"/><path d="M 390,938 L 393.48,946.52 L 402,950 L 393.48,953.48 L 390,962 L 386.52,953.48 L 378,950 L 386.52,946.52 Z" fill="#fff2a8"/></g>
    
    <circle cx="356" cy="768" r="36" fill="url(#dressG10)" stroke="#3a2430" stroke-width="9"/>
    <circle cx="644" cy="768" r="36" fill="url(#dressG10)" stroke="#3a2430" stroke-width="9"/>
  <ellipse cx="446" cy="1052" rx="36" ry="20" fill="#5c3a9a" stroke="#3a2430" stroke-width="9"/><ellipse cx="554" cy="1052" rx="36" ry="20" fill="#5c3a9a" stroke="#3a2430" stroke-width="9"/>
  
    <g stroke="#3a2430" stroke-width="9" stroke-linejoin="round" stroke-linecap="round">
      <path d="M 446,850 L 456,986 Q 500,1000 544,986 L 554,850 Z" fill="#fff5fa"/>
      <path d="M 446,902 L 452,976 Q 500,990 548,976 L 554,902 Q 500,920 446,902 Z" fill="#c3a2f0" stroke="none"/>
      <circle cx="474" cy="960" r="11" fill="#3a2430"/><circle cx="504" cy="972" r="11" fill="#3a2430"/><circle cx="530" cy="956" r="11" fill="#3a2430"/>
      <ellipse cx="500" cy="848" rx="56" ry="16" fill="#fff"/>
      <line x1="520" y1="846" x2="548" y2="788" stroke="#ff8fc0" stroke-width="16"/>
      <circle cx="438" cy="912" r="27" fill="#ffe0cc"/>
      <circle cx="562" cy="912" r="27" fill="#ffe0cc"/>
    </g>
  <g fill="#ffd76e"><g transform="translate(376.7,1190.0) rotate(0) scale(0.05200,-0.05200) translate(-196.5,0)"><path d="M325 131H155V446L55 415Q40 425 25.0 443.0Q10 461 10 493Q10 553 83 577L195 615H232Q275 615 300.0 590.0Q325 565 325 522ZM155 264H325V1Q314 -2 293.5 -5.0Q273 -8 249 -8Q200 -8 177.5 9.0Q155 26 155 72Z"/></g><g transform="translate(402.6,1190.0) rotate(0) scale(0.05200,-0.05200) translate(-303.0,0)"><path d="M400 304Q400 363 388.5 404.0Q377 445 355.0 466.5Q333 488 302 488Q271 488 249.5 466.5Q228 445 217.0 404.0Q206 363 206 304Q206 210 231.0 164.5Q256 119 302 119Q349 119 374.5 164.5Q400 210 400 304ZM303 -16Q224 -16 163.5 20.0Q103 56 69.0 127.0Q35 198 35 304Q35 407 69.0 478.0Q103 549 163.5 586.0Q224 623 303 623Q381 623 441.5 586.0Q502 549 536.5 478.0Q571 407 571 304Q571 198 536.5 127.0Q502 56 441.5 20.0Q381 -16 303 -16Z"/></g><g transform="translate(424.6,1190.0) rotate(0) scale(0.05200,-0.05200) translate(-119.0,0)"><path d="M22 81Q22 122 48.5 150.5Q75 179 119 179Q163 179 189.5 150.5Q216 122 216 81Q216 40 189.5 11.5Q163 -17 119 -17Q75 -17 48.5 11.5Q22 40 22 81Z"/></g><g transform="translate(458.8,1190.0) rotate(0) scale(0.05200,-0.05200) translate(-339.5,0)"><path d="M65 400H226Q230 354 231.5 312.0Q233 270 233.0 232.5Q233 195 233 159V0Q223 -2 200.5 -5.0Q178 -8 155 -8Q105 -8 85.0 9.5Q65 27 65 72ZM614 210H453Q447 280 446.5 339.0Q446 398 446 451V609Q457 611 479.0 614.0Q501 617 524 617Q574 617 594.0 599.5Q614 582 614 537ZM614 264V21Q600 8 573.5 0.0Q547 -8 510 -8Q473 -8 440.0 3.0Q407 14 386 56L287 258Q277 279 268.5 297.5Q260 316 252.0 336.0Q244 356 234 380L65 343V575Q79 595 108.0 605.0Q137 615 170 615Q207 615 240.5 603.5Q274 592 294 551L394 349Q404 329 412.5 310.0Q421 291 429.5 271.0Q438 251 447 227Z"/></g><g transform="translate(491.2,1190.0) rotate(0) scale(0.05200,-0.05200) translate(-282.5,0)"><path d="M253 20Q193 20 142.0 43.0Q91 66 60.5 118.5Q30 171 30 257Q30 337 62.0 391.5Q94 446 152.5 473.5Q211 501 289 501Q346 501 394.5 486.0Q443 471 469 454Q489 441 500.5 423.0Q512 405 512 378V63H349V356Q339 361 327.0 364.5Q315 368 296 368Q253 368 226.0 341.5Q199 315 199 256Q199 193 223.5 170.0Q248 147 285 147Q315 147 335.0 157.5Q355 168 371 181L376 48Q353 36 323.5 28.0Q294 20 253 20ZM352 11V101H512V7Q512 -63 478.0 -108.5Q444 -154 386.5 -176.0Q329 -198 258 -198Q205 -198 163.5 -189.5Q122 -181 98 -165Q62 -141 62 -97Q62 -74 71.5 -55.0Q81 -36 93 -27Q122 -43 158.5 -54.0Q195 -65 235 -65Q288 -65 320.0 -47.0Q352 -29 352 11Z"/></g><g transform="translate(520.0,1190.0) rotate(0) scale(0.05200,-0.05200) translate(-272.0,0)"><path d="M260 108Q277 108 297.5 111.5Q318 115 328 121V201L256 195Q228 193 210.0 183.0Q192 173 192 153Q192 133 207.5 120.5Q223 108 260 108ZM252 501Q361 501 426.5 456.5Q492 412 492 318V94Q492 68 477.5 51.5Q463 35 443 23Q411 4 365.0 -6.0Q319 -16 260 -16Q155 -16 91.5 24.5Q28 65 28 147Q28 216 69.5 253.0Q111 290 196 299L327 313V320Q327 349 301.5 361.5Q276 374 228 374Q191 374 154.5 366.0Q118 358 89 346Q76 355 67.0 373.5Q58 392 58 412Q58 460 109 480Q138 491 177.5 496.0Q217 501 252 501ZM310 577 270 626Q244 597 227.5 578.5Q211 560 189 534Q150 534 127.0 552.0Q104 570 104 598Q104 618 115.0 632.5Q126 647 148 669L182 703Q201 722 222.5 733.5Q244 745 273 745Q299 745 321.5 735.0Q344 725 372 690L443 603Q443 575 426.5 555.5Q410 536 376 536Q357 536 341.5 547.0Q326 558 310 577Z"/></g><g transform="translate(549.3,1190.0) rotate(0) scale(0.05200,-0.05200) translate(-291.5,0)"><path d="M530 313V221H360V308Q360 339 341.5 353.5Q323 368 293 368Q273 368 255.5 363.0Q238 358 222 350V221H52V373Q52 400 63.5 417.0Q75 434 95 448Q129 472 181.0 486.5Q233 501 295 501Q408 501 469.0 451.5Q530 402 530 313ZM52 264H222V1Q211 -2 190.5 -5.0Q170 -8 146 -8Q97 -8 74.5 9.0Q52 26 52 72ZM360 264H530V1Q519 -2 498.5 -5.0Q478 -8 454 -8Q405 -8 382.5 9.0Q360 26 360 72Z"/></g><g transform="translate(590.1,1190.0) rotate(0) scale(0.05200,-0.05200) translate(-292.5,0)"><path d="M532 205H362V294Q362 335 341.5 351.5Q321 368 291 368Q261 368 238.0 357.0Q215 346 198 333V470Q221 482 253.0 491.5Q285 501 323 501Q421 501 476.5 451.5Q532 402 532 304ZM54 264H224V1Q213 -2 192.5 -5.0Q172 -8 148 -8Q99 -8 76.5 9.0Q54 26 54 72ZM362 264H532V1Q521 -2 500.5 -5.0Q480 -8 456 -8Q407 -8 384.5 9.0Q362 26 362 72ZM224 175H54V652Q65 655 85.5 658.0Q106 661 130 661Q180 661 202.0 644.5Q224 628 224 581Z"/></g><g transform="translate(619.4,1190.0) rotate(0) scale(0.05200,-0.05200) translate(-272.0,0)"><path d="M260 108Q277 108 297.5 111.5Q318 115 328 121V201L256 195Q228 193 210.0 183.0Q192 173 192 153Q192 133 207.5 120.5Q223 108 260 108ZM252 501Q361 501 426.5 456.5Q492 412 492 318V94Q492 68 477.5 51.5Q463 35 443 23Q411 4 365.0 -6.0Q319 -16 260 -16Q155 -16 91.5 24.5Q28 65 28 147Q28 216 69.5 253.0Q111 290 196 299L327 313V320Q327 349 301.5 361.5Q276 374 228 374Q191 374 154.5 366.0Q118 358 89 346Q76 355 67.0 373.5Q58 392 58 412Q58 460 109 480Q138 491 177.5 496.0Q217 501 252 501ZM211 556 113 646Q112 650 111.5 657.5Q111 665 111 669Q111 706 132.0 726.5Q153 747 184 747Q204 747 222.5 739.0Q241 731 258 710L347 599Q343 564 321.5 547.0Q300 530 276 530Q255 530 240.5 536.5Q226 543 211 556Z"/></g></g>
</svg>