<svg xmlns="http://www.w3.org/2000/svg" viewBox="0 0 1000 1250">
  <defs><radialGradient id="hairG1" cx="0.42" cy="0.2" r="1.05"><stop offset="0%" stop-color="#8a5a60"/><stop offset="45%" stop-color="#5c3238"/><stop offset="100%" stop-color="#33161c"/></radialGradient><radialGradient id="eyeG1" cx="0.5" cy="0.3" r="0.8"><stop offset="0%" stop-color="#a06a74"/><stop offset="60%" stop-color="#5c333e"/><stop offset="100%" stop-color="#241419"/></radialGradient><linearGradient id="dressG1" x1="0" y1="0" x2="0" y2="1"><stop offset="0%" stop-color="#ff7ab0"/><stop offset="100%" stop-color="#e0357f"/></linearGradient><radialGradient id="blushG"><stop offset="0%" stop-color="#ff9dbd" stop-opacity="0.95"/><stop offset="100%" stop-color="#ff9dbd" stop-opacity="0"/></radialGradient><clipPath id="dressClip"><path d="M 386,724 Q 500,698 614,724 L 668,1002 Q 500,1040 332,1002 Z"/></clipPath></defs>
  <rect x="14" y="14" width="972" height="1222" rx="44" fill="#fff1f7" stroke="#ff4f9a" stroke-width="5"/>
  <ellipse cx="259" cy="560" rx="40" ry="27" transform="rotate(38 259 560)" fill="url(#hairG1)" stroke="#3a2430" stroke-width="8"/><ellipse cx="277" cy="604" rx="37" ry="25" transform="rotate(-38 277 604)" fill="url(#hairG1)" stroke="#3a2430" stroke-width="8"/><ellipse cx="259" cy="648" rx="34" ry="23" transform="rotate(38 259 648)" fill="url(#hairG1)" stroke="#3a2430" stroke-width="8"/><ellipse cx="277" cy="692" rx="30" ry="20" transform="rotate(-38 277 692)" fill="url(#hairG1)" stroke="#3a2430" stroke-width="8"/><ellipse cx="259" cy="732" rx="26" ry="17" transform="rotate(38 259 732)" fill="url(#hairG1)" stroke="#3a2430" stroke-width="8"/><ellipse cx="277" cy="768" rx="22" ry="14" transform="rotate(-38 277 768)" fill="url(#hairG1)" stroke="#3a2430" stroke-width="8"/><path d="M 250,790 Q 260,836 255,852 Q 268,830 286,792 Z" fill="url(#hairG1)" stroke="#3a2430" stroke-width="8" stroke-linejoin="round"/><ellipse cx="741" cy="560" rx="40" ry="27" transform="rotate(-38 741 560)" fill="url(#hairG1)" stroke="#3a2430" stroke-width="8"/><ellipse cx="723" cy="604" rx="37" ry="25" transform="rotate(38 723 604)" fill="url(#hairG1)" stroke="#3a2430" stroke-width="8"/><ellipse cx="741" cy="648" rx="34" ry="23" transform="rotate(-38 741 648)" fill="url(#hairG1)" stroke="#3a2430" stroke-width="8"/><ellipse cx="723" cy="692" rx="30" ry="20" transform="rotate(38 723 692)" fill="url(#hairG1)" stroke="#3a2430" stroke-width="8"/><ellipse cx="741" cy="732" rx="26" ry="17" transform="rotate(-38 741 732)" fill="url(#hairG1)" stroke="#3a2430" stroke-width="8"/><ellipse cx="723" cy="768" rx="22" ry="14" transform="rotate(38 723 768)" fill="url(#hairG1)" stroke="#3a2430" stroke-width="8"/><path d="M 714,790 Q 740,836 745,852 Q 732,830 750,792 Z" fill="url(#hairG1)" stroke="#3a2430" stroke-width="8" stroke-linejoin="round"/>
  <circle cx="500" cy="490" r="228" fill="#ffe0cc" stroke="#3a2430" stroke-width="9"/>
  <path d="M 288,532 Q 262,258 500,252 Q 738,258 712,532 Q 686,442 646,530 Q 614,436 556,534 Q 500,440 444,534 Q 386,436 354,530 Q 314,442 288,532 Z" fill="url(#hairG1)" stroke="#3a2430" stroke-width="9" stroke-linejoin="round"/><path d="M 500,262 Q 420,300 388,380 M 500,262 Q 580,300 612,380 M 500,258 Q 490,320 452,392" fill="none" stroke="#00000033" stroke-width="6" stroke-linecap="round"/><ellipse cx="440" cy="322" rx="92" ry="38" transform="rotate(-14 440 322)" fill="#ffffff2e"/>
  <g fill="#ff4f9a" stroke="#3a2430" stroke-width="7" stroke-linejoin="round">
      <path d="M 268,528 L 226,501.96 Q 211.72,528 226,554.04 Z"/>
      <path d="M 268,528 L 310,501.96 Q 324.28,528 310,554.04 Z"/>
      <circle cx="268" cy="528" r="12.6"/>
    </g><g fill="#ff4f9a" stroke="#3a2430" stroke-width="7" stroke-linejoin="round">
      <path d="M 732,528 L 690,501.96 Q 675.72,528 690,554.04 Z"/>
      <path d="M 732,528 L 774,501.96 Q 788.28,528 774,554.04 Z"/>
      <circle cx="732" cy="528" r="12.6"/>
    </g>
  
    <g>
      <path d="M 340,418 q 32,-16 64,-6" fill="none" stroke="#3a2430" stroke-width="8" stroke-linecap="round" opacity="0.75"/>
      <path d="M 660,418 q -32,-16 -64,-6" fill="none" stroke="#3a2430" stroke-width="8" stroke-linecap="round" opacity="0.75"/>
      
    <ellipse cx="388" cy="540" rx="60" ry="76" fill="#fff"/>
    <ellipse cx="388" cy="544" rx="48" ry="66" fill="url(#eyeG1)"/>
    <ellipse cx="388" cy="554" rx="21" ry="32" fill="#140a10"/>
    <ellipse cx="372" cy="516" rx="17" ry="22" fill="#fff"/>
    <circle cx="406" cy="568" r="8" fill="#fff" opacity="0.95"/>
    <circle cx="358" cy="558" r="5" fill="#fff" opacity="0.8"/>
    <path d="M 330,506 Q 388,454 446,506" fill="none" stroke="#3a2430" stroke-width="15" stroke-linecap="round"/>
    <path d="M 442,498 q 14,-4 20,-16" fill="none" stroke="#3a2430" stroke-width="11" stroke-linecap="round"/>
    <path d="M 334,498 q -14,-4 -20,-16" fill="none" stroke="#3a2430" stroke-width="11" stroke-linecap="round"/>
    
      
    <ellipse cx="612" cy="540" rx="60" ry="76" fill="#fff"/>
    <ellipse cx="612" cy="544" rx="48" ry="66" fill="url(#eyeG1)"/>
    <ellipse cx="612" cy="554" rx="21" ry="32" fill="#140a10"/>
    <ellipse cx="596" cy="516" rx="17" ry="22" fill="#fff"/>
    <circle cx="630" cy="568" r="8" fill="#fff" opacity="0.95"/>
    <circle cx="582" cy="558" r="5" fill="#fff" opacity="0.8"/>
    <path d="M 554,506 Q 612,454 670,506" fill="none" stroke="#3a2430" stroke-width="15" stroke-linecap="round"/>
    <path d="M 666,498 q 14,-4 20,-16" fill="none" stroke="#3a2430" stroke-width="11" stroke-linecap="round"/>
    <path d="M 558,498 q -14,-4 -20,-16" fill="none" stroke="#3a2430" stroke-width="11" stroke-linecap="round"/>
    
      <ellipse cx="322" cy="620" rx="44" ry="24" fill="url(#blushG)"/>
      <ellipse cx="678" cy="620" rx="44" ry="24" fill="url(#blushG)"/>
      <path d="M 300,612 l 26,14 M 316,602 l 26,14" stroke="#ff9db9" stroke-width="6" stroke-linecap="round" opacity="0.7"/>
      <path d="M 674,602 l 26,14 M 658,612 l 26,14" stroke="#ff9db9" stroke-width="6" stroke-linecap="round" opacity="0.7"/>
      <circle cx="500" cy="608" r="4" fill="#eab89a"/>
      <path d="M 470,648 Q 500,684 530,648 Q 500,666 470,648 Z" fill="#d95a72" stroke="#3a2430" stroke-width="6" stroke-linejoin="round"/>
    </g>
  
    <path id="dressP" d="M 386,724 Q 500,698 614,724 L 668,1002 Q 500,1040 332,1002 Z" fill="url(#dressG1)" stroke="#3a2430" stroke-width="9" stroke-linejoin="round"/>
    <g clip-path="url(#dressClip)" fill="#ffffff" opacity="0.9"><circle cx="400" cy="790" r="10"/><circle cx="500" cy="830" r="10"/><circle cx="600" cy="790" r="10"/><circle cx="430" cy="900" r="10"/><circle cx="570" cy="900" r="10"/><circle cx="500" cy="960" r="10"/><circle cx="380" cy="970" r="10"/><circle cx="620" cy="970" r="10"/></g>
    <path d="M 330,1006 Q 358,1026 386,1008 Q 412,1030 440,1010 Q 470,1032 500,1012 Q 530,1032 560,1010 Q 588,1030 614,1008 Q 642,1026 670,1006 Q 585,1044 500,1044 Q 415,1044 330,1006 Z" fill="#fff" stroke="#3a2430" stroke-width="7"/>
    <circle cx="356" cy="768" r="36" fill="url(#dressG1)" stroke="#3a2430" stroke-width="9"/>
    <circle cx="644" cy="768" r="36" fill="url(#dressG1)" stroke="#3a2430" stroke-width="9"/>
  <ellipse cx="446" cy="1052" rx="36" ry="20" fill="#ff87b8" stroke="#3a2430" stroke-width="9"/><ellipse cx="554" cy="1052" rx="36" ry="20" fill="#ff87b8" stroke="#3a2430" stroke-width="9"/>
  
    <g stroke="#3a2430" stroke-width="9" stroke-linejoin="round" stroke-linecap="round">
      <path d="M 446,850 L 456,986 Q 500,1000 544,986 L 554,850 Z" fill="#fff5fa"/>
      <path d="M 446,902 L 452,976 Q 500,990 548,976 L 554,902 Q 500,920 446,902 Z" fill="#ffc1d9" stroke="none"/>
      <circle cx="474" cy="960" r="11" fill="#3a2430"/><circle cx="504" cy="972" r="11" fill="#3a2430"/><circle cx="530" cy="956" r="11" fill="#3a2430"/>
      <ellipse cx="500" cy="848" rx="56" ry="16" fill="#fff"/>
      <line x1="520" y1="846" x2="548" y2="788" stroke="#ff4f9a" stroke-width="16"/>
      <circle cx="438" cy="912" r="27" fill="#ffe0cc"/>
      <circle cx="562" cy="912" r="27" fill="#ffe0cc"/>
    </g>
  <g fill="#ff4f9a"><g transform="translate(346.7,1190.0) rotate(0) scale(0.05200,-0.05200) translate(-196.5,0)"><path d="M325 131H155V446L55 415Q40 425 25.0 443.0Q10 461 10 493Q10 553 83 577L195 615H232Q275 615 300.0 590.0Q325 565 325 522ZM155 264H325V1Q314 -2 293.5 -5.0Q273 -8 249 -8Q200 -8 177.5 9.0Q155 26 155 72Z"/></g><g transform="translate(363.1,1190.0) rotate(0) scale(0.05200,-0.05200) translate(-119.0,0)"><path d="M22 81Q22 122 48.5 150.5Q75 179 119 179Q163 179 189.5 150.5Q216 122 216 81Q216 40 189.5 11.5Q163 -17 119 -17Q75 -17 48.5 11.5Q22 40 22 81Z"/></g><g transform="translate(397.2,1190.0) rotate(0) scale(0.05200,-0.05200) translate(-336.0,0)"><path d="M65 442H240V1Q229 -2 206.0 -5.0Q183 -8 159 -8Q107 -8 86.0 10.5Q65 29 65 75ZM240 211H65V608Q77 610 100.5 613.5Q124 617 146 617Q196 617 218.0 600.0Q240 583 240 534ZM432 442H607V1Q596 -2 573.0 -5.0Q550 -8 526 -8Q474 -8 453.0 10.5Q432 29 432 75ZM607 211H432V608Q444 610 467.5 613.5Q491 617 513 617Q563 617 585.0 599.0Q607 581 607 532ZM533 234H140V372H533Z"/></g><g transform="translate(429.9,1190.0) rotate(0) scale(0.05200,-0.05200) translate(-293.0,0)"><path d="M452 704 374 793Q375 825 393.5 842.5Q412 860 435 860Q457 860 473.0 849.5Q489 839 502 819L563 727Q559 702 542.0 689.0Q525 676 506 676Q490 676 477.5 683.5Q465 691 452 704ZM555 243Q555 163 522.5 105.0Q490 47 431.5 15.5Q373 -16 293 -16Q214 -16 155.0 15.0Q96 46 63.5 104.0Q31 162 31 243Q31 322 64.0 380.0Q97 438 156.0 469.5Q215 501 293 501Q372 501 430.5 469.0Q489 437 522.0 379.0Q555 321 555 243ZM293 368Q252 368 228.5 335.5Q205 303 205 243Q205 181 228.0 149.0Q251 117 293 117Q335 117 358.0 149.5Q381 182 381 243Q381 302 357.5 335.0Q334 368 293 368ZM330 577 290 626Q264 597 247.5 578.5Q231 560 209 534Q170 534 147.0 552.0Q124 570 124 598Q124 618 135.0 632.5Q146 647 168 669L202 703Q221 722 242.5 733.5Q264 745 293 745Q319 745 341.5 735.0Q364 725 392 690L463 603Q463 575 446.5 555.5Q430 536 396 536Q377 536 361.5 547.0Q346 558 330 577Z"/></g><g transform="translate(460.3,1190.0) rotate(0) scale(0.05200,-0.05200) translate(-291.5,0)"><path d="M530 313V221H360V308Q360 339 341.5 353.5Q323 368 293 368Q273 368 255.5 363.0Q238 358 222 350V221H52V373Q52 400 63.5 417.0Q75 434 95 448Q129 472 181.0 486.5Q233 501 295 501Q408 501 469.0 451.5Q530 402 530 313ZM52 264H222V1Q211 -2 190.5 -5.0Q170 -8 146 -8Q97 -8 74.5 9.0Q52 26 52 72ZM360 264H530V1Q519 -2 498.5 -5.0Q478 -8 454 -8Q405 -8 382.5 9.0Q360 26 360 72Z"/></g><g transform="translate(490.1,1190.0) rotate(0) scale(0.05200,-0.05200) translate(-282.5,0)"><path d="M253 20Q193 20 142.0 43.0Q91 66 60.5 118.5Q30 171 30 257Q30 337 62.0 391.5Q94 446 152.5 473.5Q211 501 289 501Q346 501 394.5 486.0Q443 471 469 454Q489 441 500.5 423.0Q512 405 512 378V63H349V356Q339 361 327.0 364.5Q315 368 296 368Q253 368 226.0 341.5Q199 315 199 256Q199 193 223.5 170.0Q248 147 285 147Q315 147 335.0 157.5Q355 168 371 181L376 48Q353 36 323.5 28.0Q294 20 253 20ZM352 11V101H512V7Q512 -63 478.0 -108.5Q444 -154 386.5 -176.0Q329 -198 258 -198Q205 -198 163.5 -189.5Q122 -181 98 -165Q62 -141 62 -97Q62 -74 71.5 -55.0Q81 -36 93 -27Q122 -43 158.5 -54.0Q195 -65 235 -65Q288 -65 320.0 -47.0Q352 -29 352 11Z"/></g><g transform="translate(530.4,1190.0) rotate(0) scale(0.05200,-0.05200) translate(-292.5,0)"><path d="M303 -15Q375 -15 431.5 15.0Q488 45 521.0 103.0Q554 161 554 246Q554 335 520.0 391.5Q486 448 425.0 474.5Q364 501 283 501Q224 501 175.0 488.5Q126 476 95 456Q75 443 63.5 425.0Q52 407 52 380V55H221V353Q232 359 248.0 363.5Q264 368 283 368Q315 368 336.5 355.0Q358 342 369.0 315.5Q380 289 380 246Q380 184 353.5 151.5Q327 119 277 119Q249 119 227.0 130.0Q205 141 188 154V12Q212 1 239.5 -7.0Q267 -15 303 -15ZM222 96H52V-107Q52 -153 74.5 -170.0Q97 -187 146 -187Q170 -187 190.5 -184.0Q211 -181 222 -178Z"/></g><g transform="translate(559.8,1190.0) rotate(0) scale(0.05200,-0.05200) translate(-272.0,0)"><path d="M260 108Q277 108 297.5 111.5Q318 115 328 121V201L256 195Q228 193 210.0 183.0Q192 173 192 153Q192 133 207.5 120.5Q223 108 260 108ZM252 501Q361 501 426.5 456.5Q492 412 492 318V94Q492 68 477.5 51.5Q463 35 443 23Q411 4 365.0 -6.0Q319 -16 260 -16Q155 -16 91.5 24.5Q28 65 28 147Q28 216 69.5 253.0Q111 290 196 299L327 313V320Q327 349 301.5 361.5Q276 374 228 374Q191 374 154.5 366.0Q118 358 89 346Q76 355 67.0 373.5Q58 392 58 412Q58 460 109 480Q138 491 177.5 496.0Q217 501 252 501Z"/></g><g transform="translate(586.7,1190.0) rotate(0) scale(0.05200,-0.05200) translate(-246.0,0)"><path d="M462 145Q462 69 404.5 26.0Q347 -17 237 -17Q152 -17 97.5 7.5Q43 32 43 84Q43 108 53.0 125.0Q63 142 77 152Q106 136 143.5 123.5Q181 111 230 111Q294 111 294 144Q294 158 282.0 166.0Q270 174 242 179L212 185Q126 202 83.0 239.0Q40 276 40 343Q40 418 101.0 460.0Q162 502 260 502Q309 502 349.5 492.5Q390 483 414.0 462.5Q438 442 438 410Q438 388 429.5 371.0Q421 354 408 343Q397 350 373.5 357.0Q350 364 323.0 369.0Q296 374 275 374Q242 374 224.0 366.5Q206 359 206 343Q206 332 216.0 325.0Q226 318 254 312L285 305Q381 283 421.5 244.5Q462 206 462 145Z"/></g><g transform="translate(609.8,1190.0) rotate(0) scale(0.05200,-0.05200) translate(-198.5,0)"><path d="M54 264H222V167Q222 142 238.5 130.5Q255 119 285 119Q300 119 316.0 121.5Q332 124 344 128Q353 118 359.5 104.0Q366 90 366 71Q366 34 337.5 9.5Q309 -15 237 -15Q149 -15 101.5 25.0Q54 65 54 155ZM164 345V475H353Q359 465 364.5 448.0Q370 431 370 411Q370 376 354.5 360.5Q339 345 313 345ZM222 240H54V599Q65 602 85.5 605.5Q106 609 129 609Q178 609 200.0 592.0Q222 575 222 529Z"/></g><g transform="translate(634.4,1190.0) rotate(0) scale(0.05200,-0.05200) translate(-274.5,0)"><path d="M134 167 128 279 359 317Q357 337 339.0 357.0Q321 377 283 377Q243 377 216.5 351.0Q190 325 188 277L194 193Q204 147 239.5 129.0Q275 111 319 111Q361 111 399.0 122.0Q437 133 460 146Q476 136 487.0 118.0Q498 100 498 80Q498 47 473.5 25.5Q449 4 406.0 -6.0Q363 -16 307 -16Q229 -16 166.5 13.5Q104 43 67.5 102.0Q31 161 31 250Q31 316 52.5 364.0Q74 412 110.0 442.0Q146 472 190.5 486.5Q235 501 282 501Q353 501 406.0 473.5Q459 446 489.0 398.5Q519 351 519 289Q519 255 500.0 237.0Q481 219 447 214Z"/></g><g transform="translate(656.1,1190.0) rotate(0) scale(0.05200,-0.05200) translate(-142.0,0)"><path d="M57 264H227V1Q216 -2 195.5 -5.0Q175 -8 151 -8Q102 -8 79.5 9.0Q57 26 57 72ZM227 175H57V652Q68 655 88.5 658.0Q109 661 133 661Q183 661 205.0 644.5Q227 628 227 581Z"/></g></g>
</svg>