<svg xmlns="http://www.w3.org/2000/svg" viewBox="0 0 1000 1250">
  <defs><radialGradient id="hairG5" cx="0.42" cy="0.2" r="1.05"><stop offset="0%" stop-color="#4a4a58"/><stop offset="45%" stop-color="#2c2c38"/><stop offset="100%" stop-color="#141420"/></radialGradient><radialGradient id="eyeG5" cx="0.5" cy="0.3" r="0.8"><stop offset="0%" stop-color="#5a7ac8"/><stop offset="60%" stop-color="#3a55a0"/><stop offset="100%" stop-color="#16224a"/></radialGradient><linearGradient id="dressG5" x1="0" y1="0" x2="0" y2="1"><stop offset="0%" stop-color="#ffffff"/><stop offset="100%" stop-color="#f0f4ff"/></linearGradient><radialGradient id="blushG"><stop offset="0%" stop-color="#ff9dbd" stop-opacity="0.95"/><stop offset="100%" stop-color="#ff9dbd" stop-opacity="0"/></radialGradient><clipPath id="dressClip"><path d="M 386,724 Q 500,698 614,724 L 668,1002 Q 500,1040 332,1002 Z"/></clipPath></defs>
  <rect x="14" y="14" width="972" height="1222" rx="44" fill="#eef4ff" stroke="#e04a5a" stroke-width="5"/>
  <path d="M 278,450 Q 252,650 300,740 Q 330,700 355,742 L 372,640 Q 360,540 350,500 Z" fill="url(#hairG5)" stroke="#3a2430" stroke-width="9" stroke-linejoin="round"/><path d="M 722,450 Q 748,650 700,740 Q 670,700 645,742 L 628,640 Q 640,540 650,500 Z" fill="url(#hairG5)" stroke="#3a2430" stroke-width="9" stroke-linejoin="round"/>
  <circle cx="500" cy="490" r="228" fill="#ffe0cc" stroke="#3a2430" stroke-width="9"/>
  <path d="M 288,532 Q 262,258 500,252 Q 738,258 712,532 Q 686,442 646,530 Q 614,436 556,534 Q 500,440 444,534 Q 386,436 354,530 Q 314,442 288,532 Z" fill="url(#hairG5)" stroke="#3a2430" stroke-width="9" stroke-linejoin="round"/><path d="M 500,262 Q 420,300 388,380 M 500,262 Q 580,300 612,380 M 500,258 Q 490,320 452,392" fill="none" stroke="#00000033" stroke-width="6" stroke-linecap="round"/><ellipse cx="440" cy="322" rx="92" ry="38" transform="rotate(-14 440 322)" fill="#ffffff2e"/>
  <g fill="#e04a5a" stroke="#3a2430" stroke-width="7" stroke-linejoin="round">
      <path d="M 500,268 L 442,232.04 Q 422.28,268 442,303.96 Z"/>
      <path d="M 500,268 L 558,232.04 Q 577.72,268 558,303.96 Z"/>
      <circle cx="500" cy="268" r="17.4"/>
    </g>
  
    <g>
      <path d="M 340,418 q 32,-16 64,-6" fill="none" stroke="#3a2430" stroke-width="8" stroke-linecap="round" opacity="0.75"/>
      <path d="M 660,418 q -32,-16 -64,-6" fill="none" stroke="#3a2430" stroke-width="8" stroke-linecap="round" opacity="0.75"/>
      
    <ellipse cx="388" cy="540" rx="60" ry="76" fill="#fff"/>
    <ellipse cx="388" cy="544" rx="48" ry="66" fill="url(#eyeG5)"/>
    <ellipse cx="388" cy="554" rx="21" ry="32" fill="#140a10"/>
    <ellipse cx="372" cy="516" rx="17" ry="22" fill="#fff"/>
    <circle cx="406" cy="568" r="8" fill="#fff" opacity="0.95"/>
    <circle cx="358" cy="558" r="5" fill="#fff" opacity="0.8"/>
    <path d="M 330,506 Q 388,454 446,506" fill="none" stroke="#3a2430" stroke-width="15" stroke-linecap="round"/>
    <path d="M 442,498 q 14,-4 20,-16" fill="none" stroke="#3a2430" stroke-width="11" stroke-linecap="round"/>
    <path d="M 334,498 q -14,-4 -20,-16" fill="none" stroke="#3a2430" stroke-width="11" stroke-linecap="round"/>
    
      
    <ellipse cx="612" cy="540" rx="60" ry="76" fill="#fff"/>
    <ellipse cx="612" cy="544" rx="48" ry="66" fill="url(#eyeG5)"/>
    <ellipse cx="612" cy="554" rx="21" ry="32" fill="#140a10"/>
    <ellipse cx="596" cy="516" rx="17" ry="22" fill="#fff"/>
    <circle cx="630" cy="568" r="8" fill="#fff" opacity="0.95"/>
    <circle cx="582" cy="558" r="5" fill="#fff" opacity="0.8"/>
    <path d="M 554,506 Q 612,454 670,506" fill="none" stroke="#3a2430" stroke-width="15" stroke-linecap="round"/>
    <path d="M 666,498 q 14,-4 20,-16" fill="none" stroke="#3a2430" stroke-width="11" stroke-linecap="round"/>
    <path d="M 558,498 q -14,-4 -20,-16" fill="none" stroke="#3a2430" stroke-width="11" stroke-linecap="round"/>
    
      <ellipse cx="322" cy="620" rx="44" ry="24" fill="url(#blushG)"/>
      <ellipse cx="678" cy="620" rx="44" ry="24" fill="url(#blushG)"/>
      <path d="M 300,612 l 26,14 M 316,602 l 26,14" stroke="#ff9db9" stroke-width="6" stroke-linecap="round" opacity="0.7"/>
      <path d="M 674,602 l 26,14 M 658,612 l 26,14" stroke="#ff9db9" stroke-width="6" stroke-linecap="round" opacity="0.7"/>
      <circle cx="500" cy="608" r="4" fill="#eab89a"/>
      <path d="M 470,648 Q 500,684 530,648 Q 500,666 470,648 Z" fill="#d95a72" stroke="#3a2430" stroke-width="6" stroke-linejoin="round"/>
    </g>
  
    <path id="dressP" d="M 386,724 Q 500,698 614,724 L 668,1002 Q 500,1040 332,1002 Z" fill="url(#dressG5)" stroke="#3a2430" stroke-width="9" stroke-linejoin="round"/>
    <path d="M 396,722 L 500,846 L 604,722 Q 552,700 500,704 Q 448,700 396,722 Z" fill="#2e4a8a" stroke="#3a2430" stroke-width="8" stroke-linejoin="round"/><path d="M 416,736 L 500,834 L 584,736" fill="none" stroke="#ffffff" stroke-width="8"/><g fill="#ffffff" stroke="#3a2430" stroke-width="7" stroke-linejoin="round">
      <path d="M 500,852 L 460,827.2 Q 446.4,852 460,876.8 Z"/>
      <path d="M 500,852 L 540,827.2 Q 553.6,852 540,876.8 Z"/>
      <circle cx="500" cy="852" r="12.0"/>
    </g>
    
    <circle cx="356" cy="768" r="36" fill="url(#dressG5)" stroke="#3a2430" stroke-width="9"/>
    <circle cx="644" cy="768" r="36" fill="url(#dressG5)" stroke="#3a2430" stroke-width="9"/>
  <ellipse cx="446" cy="1052" rx="36" ry="20" fill="#2e4a8a" stroke="#3a2430" stroke-width="9"/><ellipse cx="554" cy="1052" rx="36" ry="20" fill="#2e4a8a" stroke="#3a2430" stroke-width="9"/>
  
    <g stroke="#3a2430" stroke-width="9" stroke-linejoin="round" stroke-linecap="round">
      <path d="M 446,850 L 456,986 Q 500,1000 544,986 L 554,850 Z" fill="#fff5fa"/>
      <path d="M 446,902 L 452,976 Q 500,990 548,976 L 554,902 Q 500,920 446,902 Z" fill="#ff9daa" stroke="none"/>
      <circle cx="474" cy="960" r="11" fill="#3a2430"/><circle cx="504" cy="972" r="11" fill="#3a2430"/><circle cx="530" cy="956" r="11" fill="#3a2430"/>
      <ellipse cx="500" cy="848" rx="56" ry="16" fill="#fff"/>
      <line x1="520" y1="846" x2="548" y2="788" stroke="#e04a5a" stroke-width="16"/>
      <circle cx="438" cy="912" r="27" fill="#ffe0cc"/>
      <circle cx="562" cy="912" r="27" fill="#ffe0cc"/>
    </g>
  <g fill="#e04a5a"><g transform="translate(321.1,1190.0) rotate(0) scale(0.05200,-0.05200) translate(-261.0,0)"><path d="M244 608 219 508 209 377Q228 382 247.5 386.0Q267 390 297 390Q367 390 411.5 363.5Q456 337 478.0 292.0Q500 247 500 192Q500 137 474.0 89.5Q448 42 393.0 13.0Q338 -16 250 -16Q189 -16 143.0 -3.5Q97 9 71.0 33.5Q45 58 45 94Q45 122 61.5 141.5Q78 161 97 171Q125 150 157.0 134.5Q189 119 238 119Q285 119 306.5 140.0Q328 161 328 191Q328 220 309.0 239.0Q290 258 247 258Q220 258 202.0 252.0Q184 246 161 235Q112 237 83.5 262.0Q55 287 55 337Q55 344 55.0 350.5Q55 357 56 370L68 515Q71 558 95.0 583.0Q119 608 162 608ZM174 471V608H450Q457 597 462.5 580.0Q468 563 468 542Q468 505 452.0 488.0Q436 471 408 471Z"/></g><g transform="translate(340.9,1190.0) rotate(0) scale(0.05200,-0.05200) translate(-119.0,0)"><path d="M22 81Q22 122 48.5 150.5Q75 179 119 179Q163 179 189.5 150.5Q216 122 216 81Q216 40 189.5 11.5Q163 -17 119 -17Q75 -17 48.5 11.5Q22 40 22 81Z"/></g><g transform="translate(371.9,1190.0) rotate(0) scale(0.05200,-0.05200) translate(-278.0,0)"><path d="M185 466V606H518Q525 595 530.5 577.0Q536 559 536 538Q536 501 519.5 483.5Q503 466 475 466ZM369 606V466H36Q29 477 23.5 495.0Q18 513 18 534Q18 572 34.5 589.0Q51 606 79 606ZM187 493H362V1Q351 -2 328.0 -5.0Q305 -8 281 -8Q229 -8 208.0 10.5Q187 29 187 75Z"/></g><g transform="translate(401.6,1190.0) rotate(0) scale(0.05200,-0.05200) translate(-292.5,0)"><path d="M532 205H362V294Q362 335 341.5 351.5Q321 368 291 368Q261 368 238.0 357.0Q215 346 198 333V470Q221 482 253.0 491.5Q285 501 323 501Q421 501 476.5 451.5Q532 402 532 304ZM54 264H224V1Q213 -2 192.5 -5.0Q172 -8 148 -8Q99 -8 76.5 9.0Q54 26 54 72ZM362 264H532V1Q521 -2 500.5 -5.0Q480 -8 456 -8Q407 -8 384.5 9.0Q362 26 362 72ZM224 175H54V652Q65 655 85.5 658.0Q106 661 130 661Q180 661 202.0 644.5Q224 628 224 581Z"/></g><g transform="translate(431.9,1190.0) rotate(0) scale(0.05200,-0.05200) translate(-291.0,0)"><path d="M52 193V259H222V193Q222 153 242.5 135.0Q263 117 300 117Q323 117 338.0 121.0Q353 125 360 129V259H530V104Q530 79 519.5 60.5Q509 42 488 29Q453 7 404.5 -4.5Q356 -16 299 -16Q227 -16 171.0 5.5Q115 27 83.5 73.0Q52 119 52 193ZM530 216H360V484Q371 487 391.5 490.0Q412 493 436 493Q486 493 508.0 476.5Q530 460 530 413ZM222 216H52V484Q63 487 83.5 490.0Q104 493 128 493Q178 493 200.0 476.5Q222 460 222 413ZM283 772Q322 772 358.5 759.5Q395 747 418.5 721.0Q442 695 442 654Q442 602 409.0 578.0Q376 554 334 552V525Q329 522 314.5 518.5Q300 515 281 515Q247 515 234.5 522.0Q222 529 222 541V579Q222 605 234.5 613.5Q247 622 264 622H281Q318 622 318 650Q318 664 305.0 672.5Q292 681 264 681Q241 681 221.0 675.0Q201 669 189 664Q178 672 171.5 684.0Q165 696 165 710Q165 742 200.0 757.0Q235 772 283 772Z"/></g><g transform="translate(461.4,1190.0) rotate(0) scale(0.05200,-0.05200) translate(-275.5,0)"><path d="M128 124Q113 158 96.0 202.5Q79 247 60.5 309.5Q42 372 20 461Q34 475 57.5 485.5Q81 496 109 496Q144 496 167.0 481.5Q190 467 201 427Q221 357 241.0 288.5Q261 220 280 152H284Q300 198 315.5 253.0Q331 308 344.5 365.5Q358 423 367 477Q384 486 402.0 491.0Q420 496 440 496Q475 496 501.0 481.0Q527 466 527 429Q527 397 519.0 355.0Q511 313 497.0 266.0Q483 219 465.0 171.5Q447 124 427.0 80.5Q407 37 387 2Q331 -95 283.0 -142.0Q235 -189 186 -189Q146 -189 119.0 -164.0Q92 -139 87 -99Q108 -81 129.5 -60.0Q151 -39 171.0 -15.5Q191 8 207 31Q190 36 170.5 54.5Q151 73 128 124Z"/></g><g transform="translate(496.4,1190.0) rotate(0) scale(0.05200,-0.05200) translate(-198.5,0)"><path d="M54 264H222V167Q222 142 238.5 130.5Q255 119 285 119Q300 119 316.0 121.5Q332 124 344 128Q353 118 359.5 104.0Q366 90 366 71Q366 34 337.5 9.5Q309 -15 237 -15Q149 -15 101.5 25.0Q54 65 54 155ZM164 345V475H353Q359 465 364.5 448.0Q370 431 370 411Q370 376 354.5 360.5Q339 345 313 345ZM222 240H54V599Q65 602 85.5 605.5Q106 609 129 609Q178 609 200.0 592.0Q222 575 222 529Z"/></g><g transform="translate(521.9,1190.0) rotate(0) scale(0.05200,-0.05200) translate(-292.5,0)"><path d="M532 205H362V294Q362 335 341.5 351.5Q321 368 291 368Q261 368 238.0 357.0Q215 346 198 333V470Q221 482 253.0 491.5Q285 501 323 501Q421 501 476.5 451.5Q532 402 532 304ZM54 264H224V1Q213 -2 192.5 -5.0Q172 -8 148 -8Q99 -8 76.5 9.0Q54 26 54 72ZM362 264H532V1Q521 -2 500.5 -5.0Q480 -8 456 -8Q407 -8 384.5 9.0Q362 26 362 72ZM224 175H54V652Q65 655 85.5 658.0Q106 661 130 661Q180 661 202.0 644.5Q224 628 224 581Z"/></g><g transform="translate(552.3,1190.0) rotate(0) scale(0.05200,-0.05200) translate(-291.0,0)"><path d="M52 193V259H222V193Q222 153 242.5 135.0Q263 117 300 117Q323 117 338.0 121.0Q353 125 360 129V259H530V104Q530 79 519.5 60.5Q509 42 488 29Q453 7 404.5 -4.5Q356 -16 299 -16Q227 -16 171.0 5.5Q115 27 83.5 73.0Q52 119 52 193ZM530 216H360V484Q371 487 391.5 490.0Q412 493 436 493Q486 493 508.0 476.5Q530 460 530 413ZM222 216H52V484Q63 487 83.5 490.0Q104 493 128 493Q178 493 200.0 476.5Q222 460 222 413ZM283 772Q322 772 358.5 759.5Q395 747 418.5 721.0Q442 695 442 654Q442 602 409.0 578.0Q376 554 334 552V525Q329 522 314.5 518.5Q300 515 281 515Q247 515 234.5 522.0Q222 529 222 541V579Q222 605 234.5 613.5Q247 622 264 622H281Q318 622 318 650Q318 664 305.0 672.5Q292 681 264 681Q241 681 221.0 675.0Q201 669 189 664Q178 672 171.5 684.0Q165 696 165 710Q165 742 200.0 757.0Q235 772 283 772Z"/></g><g transform="translate(595.5,1190.0) rotate(0) scale(0.05200,-0.05200) translate(-339.5,0)"><path d="M65 400H226Q230 354 231.5 312.0Q233 270 233.0 232.5Q233 195 233 159V0Q223 -2 200.5 -5.0Q178 -8 155 -8Q105 -8 85.0 9.5Q65 27 65 72ZM614 210H453Q447 280 446.5 339.0Q446 398 446 451V609Q457 611 479.0 614.0Q501 617 524 617Q574 617 594.0 599.5Q614 582 614 537ZM614 264V21Q600 8 573.5 0.0Q547 -8 510 -8Q473 -8 440.0 3.0Q407 14 386 56L287 258Q277 279 268.5 297.5Q260 316 252.0 336.0Q244 356 234 380L65 343V575Q79 595 108.0 605.0Q137 615 170 615Q207 615 240.5 603.5Q274 592 294 551L394 349Q404 329 412.5 310.0Q421 291 429.5 271.0Q438 251 447 227Z"/></g><g transform="translate(628.3,1190.0) rotate(0) scale(0.05200,-0.05200) translate(-292.5,0)"><path d="M532 205H362V294Q362 335 341.5 351.5Q321 368 291 368Q261 368 238.0 357.0Q215 346 198 333V470Q221 482 253.0 491.5Q285 501 323 501Q421 501 476.5 451.5Q532 402 532 304ZM54 264H224V1Q213 -2 192.5 -5.0Q172 -8 148 -8Q99 -8 76.5 9.0Q54 26 54 72ZM362 264H532V1Q521 -2 500.5 -5.0Q480 -8 456 -8Q407 -8 384.5 9.0Q362 26 362 72ZM224 175H54V652Q65 655 85.5 658.0Q106 661 130 661Q180 661 202.0 644.5Q224 628 224 581Z"/></g><g transform="translate(657.7,1190.0) rotate(0) scale(0.05200,-0.05200) translate(-272.0,0)"><path d="M260 108Q277 108 297.5 111.5Q318 115 328 121V201L256 195Q228 193 210.0 183.0Q192 173 192 153Q192 133 207.5 120.5Q223 108 260 108ZM252 501Q361 501 426.5 456.5Q492 412 492 318V94Q492 68 477.5 51.5Q463 35 443 23Q411 4 365.0 -6.0Q319 -16 260 -16Q155 -16 91.5 24.5Q28 65 28 147Q28 216 69.5 253.0Q111 290 196 299L327 313V320Q327 349 301.5 361.5Q276 374 228 374Q191 374 154.5 366.0Q118 358 89 346Q76 355 67.0 373.5Q58 392 58 412Q58 460 109 480Q138 491 177.5 496.0Q217 501 252 501ZM310 577 270 626Q244 597 227.5 578.5Q211 560 189 534Q150 534 127.0 552.0Q104 570 104 598Q104 618 115.0 632.5Q126 647 148 669L182 703Q201 722 222.5 733.5Q244 745 273 745Q299 745 321.5 735.0Q344 725 372 690L443 603Q443 575 426.5 555.5Q410 536 376 536Q357 536 341.5 547.0Q326 558 310 577ZM351 -142Q351 -179 326.5 -204.0Q302 -229 260.7260273972603 -229.0Q221.24657534246575 -229.0 196.12328767123287 -204.0Q171 -179 171 -142Q171 -105 196.12328767123287 -80.0Q221.24657534246575 -55.0 260.7260273972603 -55.0Q302 -55 326.5 -80.0Q351 -105 351 -142Z"/></g><g transform="translate(682.2,1190.0) rotate(0) scale(0.05200,-0.05200) translate(-198.5,0)"><path d="M54 264H222V167Q222 142 238.5 130.5Q255 119 285 119Q300 119 316.0 121.5Q332 124 344 128Q353 118 359.5 104.0Q366 90 366 71Q366 34 337.5 9.5Q309 -15 237 -15Q149 -15 101.5 25.0Q54 65 54 155ZM164 345V475H353Q359 465 364.5 448.0Q370 431 370 411Q370 376 354.5 360.5Q339 345 313 345ZM222 240H54V599Q65 602 85.5 605.5Q106 609 129 609Q178 609 200.0 592.0Q222 575 222 529Z"/></g></g>
</svg>