<svg xmlns="http://www.w3.org/2000/svg" viewBox="0 0 1000 1250">
  <defs><radialGradient id="hairG3" cx="0.42" cy="0.2" r="1.05"><stop offset="0%" stop-color="#6f4a42"/><stop offset="45%" stop-color="#4a2c26"/><stop offset="100%" stop-color="#2b1512"/></radialGradient><radialGradient id="eyeG3" cx="0.5" cy="0.3" r="0.8"><stop offset="0%" stop-color="#4fae8a"/><stop offset="60%" stop-color="#2e7a5c"/><stop offset="100%" stop-color="#123526"/></radialGradient><linearGradient id="dressG3" x1="0" y1="0" x2="0" y2="1"><stop offset="0%" stop-color="#7adcb8"/><stop offset="100%" stop-color="#33b285"/></linearGradient><radialGradient id="blushG"><stop offset="0%" stop-color="#ff9dbd" stop-opacity="0.95"/><stop offset="100%" stop-color="#ff9dbd" stop-opacity="0"/></radialGradient><clipPath id="dressClip"><path d="M 386,724 Q 500,698 614,724 L 668,1002 Q 500,1040 332,1002 Z"/></clipPath></defs>
  <rect x="14" y="14" width="972" height="1222" rx="44" fill="#eefaf4" stroke="#33b285" stroke-width="5"/>
  <circle cx="288" cy="298" r="84" fill="url(#hairG3)" stroke="#3a2430" stroke-width="9"/><path d="M 248,288 Q 288,250 330,290 Q 306,318 274,304" fill="none" stroke="#00000035" stroke-width="7" stroke-linecap="round"/><circle cx="712" cy="298" r="84" fill="url(#hairG3)" stroke="#3a2430" stroke-width="9"/><path d="M 672,288 Q 712,250 754,290 Q 730,318 698,304" fill="none" stroke="#00000035" stroke-width="7" stroke-linecap="round"/>
  <circle cx="500" cy="490" r="228" fill="#ffe0cc" stroke="#3a2430" stroke-width="9"/>
  <path d="M 288,532 Q 262,258 500,252 Q 738,258 712,532 Q 686,442 646,530 Q 614,436 556,534 Q 500,440 444,534 Q 386,436 354,530 Q 314,442 288,532 Z" fill="url(#hairG3)" stroke="#3a2430" stroke-width="9" stroke-linejoin="round"/><path d="M 500,262 Q 420,300 388,380 M 500,262 Q 580,300 612,380 M 500,258 Q 490,320 452,392" fill="none" stroke="#00000033" stroke-width="6" stroke-linecap="round"/><ellipse cx="440" cy="322" rx="92" ry="38" transform="rotate(-14 440 322)" fill="#ffffff2e"/>
  <g fill="#33b285" stroke="#3a2430" stroke-width="7" stroke-linejoin="round">
      <path d="M 288,372 L 248,347.2 Q 234.4,372 248,396.8 Z"/>
      <path d="M 288,372 L 328,347.2 Q 341.6,372 328,396.8 Z"/>
      <circle cx="288" cy="372" r="12.0"/>
    </g><g fill="#33b285" stroke="#3a2430" stroke-width="7" stroke-linejoin="round">
      <path d="M 712,372 L 672,347.2 Q 658.4,372 672,396.8 Z"/>
      <path d="M 712,372 L 752,347.2 Q 765.6,372 752,396.8 Z"/>
      <circle cx="712" cy="372" r="12.0"/>
    </g>
  
    <g>
      <path d="M 340,418 q 32,-16 64,-6" fill="none" stroke="#3a2430" stroke-width="8" stroke-linecap="round" opacity="0.75"/>
      <path d="M 660,418 q -32,-16 -64,-6" fill="none" stroke="#3a2430" stroke-width="8" stroke-linecap="round" opacity="0.75"/>
      
    <ellipse cx="388" cy="540" rx="60" ry="76" fill="#fff"/>
    <ellipse cx="388" cy="544" rx="48" ry="66" fill="url(#eyeG3)"/>
    <ellipse cx="388" cy="554" rx="21" ry="32" fill="#140a10"/>
    <ellipse cx="372" cy="516" rx="17" ry="22" fill="#fff"/>
    <circle cx="406" cy="568" r="8" fill="#fff" opacity="0.95"/>
    <circle cx="358" cy="558" r="5" fill="#fff" opacity="0.8"/>
    <path d="M 330,506 Q 388,454 446,506" fill="none" stroke="#3a2430" stroke-width="15" stroke-linecap="round"/>
    <path d="M 442,498 q 14,-4 20,-16" fill="none" stroke="#3a2430" stroke-width="11" stroke-linecap="round"/>
    <path d="M 334,498 q -14,-4 -20,-16" fill="none" stroke="#3a2430" stroke-width="11" stroke-linecap="round"/>
    
      
    <ellipse cx="612" cy="540" rx="60" ry="76" fill="#fff"/>
    <ellipse cx="612" cy="544" rx="48" ry="66" fill="url(#eyeG3)"/>
    <ellipse cx="612" cy="554" rx="21" ry="32" fill="#140a10"/>
    <ellipse cx="596" cy="516" rx="17" ry="22" fill="#fff"/>
    <circle cx="630" cy="568" r="8" fill="#fff" opacity="0.95"/>
    <circle cx="582" cy="558" r="5" fill="#fff" opacity="0.8"/>
    <path d="M 554,506 Q 612,454 670,506" fill="none" stroke="#3a2430" stroke-width="15" stroke-linecap="round"/>
    <path d="M 666,498 q 14,-4 20,-16" fill="none" stroke="#3a2430" stroke-width="11" stroke-linecap="round"/>
    <path d="M 558,498 q -14,-4 -20,-16" fill="none" stroke="#3a2430" stroke-width="11" stroke-linecap="round"/>
    
      <ellipse cx="322" cy="620" rx="44" ry="24" fill="url(#blushG)"/>
      <ellipse cx="678" cy="620" rx="44" ry="24" fill="url(#blushG)"/>
      <path d="M 300,612 l 26,14 M 316,602 l 26,14" stroke="#ff9db9" stroke-width="6" stroke-linecap="round" opacity="0.7"/>
      <path d="M 674,602 l 26,14 M 658,612 l 26,14" stroke="#ff9db9" stroke-width="6" stroke-linecap="round" opacity="0.7"/>
      <circle cx="500" cy="608" r="4" fill="#eab89a"/>
      <path d="M 470,648 Q 500,684 530,648 Q 500,666 470,648 Z" fill="#d95a72" stroke="#3a2430" stroke-width="6" stroke-linejoin="round"/>
    </g>
  
    <path id="dressP" d="M 386,724 Q 500,698 614,724 L 668,1002 Q 500,1040 332,1002 Z" fill="url(#dressG3)" stroke="#3a2430" stroke-width="9" stroke-linejoin="round"/>
    <g clip-path="url(#dressClip)" fill="#ffffff" opacity="0.9"><circle cx="400" cy="790" r="10"/><circle cx="500" cy="830" r="10"/><circle cx="600" cy="790" r="10"/><circle cx="430" cy="900" r="10"/><circle cx="570" cy="900" r="10"/><circle cx="500" cy="960" r="10"/><circle cx="380" cy="970" r="10"/><circle cx="620" cy="970" r="10"/></g>
    <path d="M 330,1006 Q 358,1026 386,1008 Q 412,1030 440,1010 Q 470,1032 500,1012 Q 530,1032 560,1010 Q 588,1030 614,1008 Q 642,1026 670,1006 Q 585,1044 500,1044 Q 415,1044 330,1006 Z" fill="#fff" stroke="#3a2430" stroke-width="7"/>
    <circle cx="356" cy="768" r="36" fill="url(#dressG3)" stroke="#3a2430" stroke-width="9"/>
    <circle cx="644" cy="768" r="36" fill="url(#dressG3)" stroke="#3a2430" stroke-width="9"/>
  <ellipse cx="446" cy="1052" rx="36" ry="20" fill="#7adcb8" stroke="#3a2430" stroke-width="9"/><ellipse cx="554" cy="1052" rx="36" ry="20" fill="#7adcb8" stroke="#3a2430" stroke-width="9"/>
  
    <g stroke="#3a2430" stroke-width="9" stroke-linejoin="round" stroke-linecap="round">
      <path d="M 446,850 L 456,986 Q 500,1000 544,986 L 554,850 Z" fill="#fff5fa"/>
      <path d="M 446,902 L 452,976 Q 500,990 548,976 L 554,902 Q 500,920 446,902 Z" fill="#a8e6c8" stroke="none"/>
      <circle cx="474" cy="960" r="11" fill="#3a2430"/><circle cx="504" cy="972" r="11" fill="#3a2430"/><circle cx="530" cy="956" r="11" fill="#3a2430"/>
      <ellipse cx="500" cy="848" rx="56" ry="16" fill="#fff"/>
      <line x1="520" y1="846" x2="548" y2="788" stroke="#33b285" stroke-width="16"/>
      <circle cx="438" cy="912" r="27" fill="#ffe0cc"/>
      <circle cx="562" cy="912" r="27" fill="#ffe0cc"/>
    </g>
  <g fill="#33b285"><g transform="translate(411.1,1190.0) rotate(0) scale(0.05200,-0.05200) translate(-259.0,0)"><path d="M233 623Q347 623 407.5 575.5Q468 528 468 448Q468 416 456.5 390.5Q445 365 425.5 346.0Q406 327 382 316Q410 306 432.5 287.5Q455 269 469.0 240.0Q483 211 483 168Q483 111 451.0 69.5Q419 28 363.5 6.0Q308 -16 235 -16Q166 -16 119.5 -3.0Q73 10 49.0 33.5Q25 57 25 87Q25 114 38.0 134.0Q51 154 70 164Q90 151 123.5 135.0Q157 119 211 119Q261 119 286.0 137.5Q311 156 311 184Q311 213 291.5 228.0Q272 243 224 243H130Q123 254 118.0 270.0Q113 286 113 308Q113 331 118.0 348.0Q123 365 130 375H224Q261 375 278.5 389.0Q296 403 296 430Q296 456 273.0 472.0Q250 488 204 488Q164 488 132.5 478.5Q101 469 81 455Q65 467 53.5 484.5Q42 502 42 526Q42 560 65.5 581.0Q89 602 132.0 612.5Q175 623 233 623Z"/></g><g transform="translate(430.8,1190.0) rotate(0) scale(0.05200,-0.05200) translate(-119.0,0)"><path d="M22 81Q22 122 48.5 150.5Q75 179 119 179Q163 179 189.5 150.5Q216 122 216 81Q216 40 189.5 11.5Q163 -17 119 -17Q75 -17 48.5 11.5Q22 40 22 81Z"/></g><g transform="translate(463.4,1190.0) rotate(0) scale(0.05200,-0.05200) translate(-309.5,0)"><path d="M379 369V247H173V369ZM317 247 322 341Q410 341 468.0 322.0Q526 303 555.5 267.0Q585 231 585 178Q585 80 511.0 32.0Q437 -16 300 -16Q277 -16 245.0 -14.0Q213 -12 180.0 -6.5Q147 -1 120 9Q65 30 65 82V549Q65 570 77.0 581.5Q89 593 108 600Q142 612 193.5 617.5Q245 623 298 623Q425 623 494.5 579.5Q564 536 564 447Q564 397 533.5 363.5Q503 330 447.0 313.5Q391 297 314 297L308 369Q351 369 370.5 385.0Q390 401 390 432Q390 459 367.5 475.0Q345 491 300 491Q285 491 265.5 490.0Q246 489 235 487V125Q249 121 271.5 119.5Q294 118 313 118Q353 118 379.5 134.5Q406 151 406 186Q406 219 383.5 233.0Q361 247 317 247Z"/></g><g transform="translate(493.7,1190.0) rotate(0) scale(0.05200,-0.05200) translate(-272.0,0)"><path d="M260 108Q277 108 297.5 111.5Q318 115 328 121V201L256 195Q228 193 210.0 183.0Q192 173 192 153Q192 133 207.5 120.5Q223 108 260 108ZM252 501Q361 501 426.5 456.5Q492 412 492 318V94Q492 68 477.5 51.5Q463 35 443 23Q411 4 365.0 -6.0Q319 -16 260 -16Q155 -16 91.5 24.5Q28 65 28 147Q28 216 69.5 253.0Q111 290 196 299L327 313V320Q327 349 301.5 361.5Q276 374 228 374Q191 374 154.5 366.0Q118 358 89 346Q76 355 67.0 373.5Q58 392 58 412Q58 460 109 480Q138 491 177.5 496.0Q217 501 252 501ZM351 -142Q351 -179 326.5 -204.0Q302 -229 260.7260273972603 -229.0Q221.24657534246575 -229.0 196.12328767123287 -204.0Q171 -179 171 -142Q171 -105 196.12328767123287 -80.0Q221.24657534246575 -55.0 260.7260273972603 -55.0Q302 -55 326.5 -80.0Q351 -105 351 -142Z"/></g><g transform="translate(520.5,1190.0) rotate(0) scale(0.05200,-0.05200) translate(-244.5,0)"><path d="M326 367Q276 367 239.5 335.0Q203 303 203 241Q203 179 238.0 149.0Q273 119 325 119Q355 119 378.5 126.5Q402 134 418 142Q437 128 446.5 112.0Q456 96 456 73Q456 33 416.5 9.0Q377 -15 304 -15Q221 -15 159.5 14.0Q98 43 64.5 100.5Q31 158 31 241Q31 329 68.0 386.5Q105 444 166.0 472.5Q227 501 299 501Q370 501 409.5 475.0Q449 449 449 408Q449 389 440.0 372.5Q431 356 419 344Q402 352 378.0 359.5Q354 367 326 367Z"/></g><g transform="translate(558.9,1190.0) rotate(0) scale(0.05200,-0.05200) translate(-292.5,0)"><path d="M532 205H362V294Q362 335 341.5 351.5Q321 368 291 368Q261 368 238.0 357.0Q215 346 198 333V470Q221 482 253.0 491.5Q285 501 323 501Q421 501 476.5 451.5Q532 402 532 304ZM54 264H224V1Q213 -2 192.5 -5.0Q172 -8 148 -8Q99 -8 76.5 9.0Q54 26 54 72ZM362 264H532V1Q521 -2 500.5 -5.0Q480 -8 456 -8Q407 -8 384.5 9.0Q362 26 362 72ZM224 175H54V652Q65 655 85.5 658.0Q106 661 130 661Q180 661 202.0 644.5Q224 628 224 581Z"/></g><g transform="translate(588.2,1190.0) rotate(0) scale(0.05200,-0.05200) translate(-272.0,0)"><path d="M260 108Q277 108 297.5 111.5Q318 115 328 121V201L256 195Q228 193 210.0 183.0Q192 173 192 153Q192 133 207.5 120.5Q223 108 260 108ZM252 501Q361 501 426.5 456.5Q492 412 492 318V94Q492 68 477.5 51.5Q463 35 443 23Q411 4 365.0 -6.0Q319 -16 260 -16Q155 -16 91.5 24.5Q28 65 28 147Q28 216 69.5 253.0Q111 290 196 299L327 313V320Q327 349 301.5 361.5Q276 374 228 374Q191 374 154.5 366.0Q118 358 89 346Q76 355 67.0 373.5Q58 392 58 412Q58 460 109 480Q138 491 177.5 496.0Q217 501 252 501ZM211 556 113 646Q112 650 111.5 657.5Q111 665 111 669Q111 706 132.0 726.5Q153 747 184 747Q204 747 222.5 739.0Q241 731 258 710L347 599Q343 564 321.5 547.0Q300 530 276 530Q255 530 240.5 536.5Q226 543 211 556Z"/></g></g>
</svg>