<svg xmlns="http://www.w3.org/2000/svg" viewBox="0 0 1000 1250">
  <defs><radialGradient id="hairG6" cx="0.42" cy="0.2" r="1.05"><stop offset="0%" stop-color="#6f4a42"/><stop offset="45%" stop-color="#4a2c26"/><stop offset="100%" stop-color="#2b1512"/></radialGradient><radialGradient id="eyeG6" cx="0.5" cy="0.3" r="0.8"><stop offset="0%" stop-color="#b06a5a"/><stop offset="60%" stop-color="#7c4034"/><stop offset="100%" stop-color="#361812"/></radialGradient><linearGradient id="dressG6" x1="0" y1="0" x2="0" y2="1"><stop offset="0%" stop-color="#ff8fae"/><stop offset="100%" stop-color="#f06a8e"/></linearGradient><radialGradient id="blushG"><stop offset="0%" stop-color="#ff9dbd" stop-opacity="0.95"/><stop offset="100%" stop-color="#ff9dbd" stop-opacity="0"/></radialGradient><clipPath id="dressClip"><path d="M 386,724 Q 500,698 614,724 L 668,1002 Q 500,1040 332,1002 Z"/></clipPath></defs>
  <rect x="14" y="14" width="972" height="1222" rx="44" fill="#fdf2f2" stroke="#ffb3c8" stroke-width="5"/>
  <circle cx="500" cy="238" r="80" fill="url(#hairG6)" stroke="#3a2430" stroke-width="9"/><path d="M 462,228 Q 500,196 540,230 Q 512,258 478,244" fill="none" stroke="#00000035" stroke-width="7" stroke-linecap="round"/>
  <circle cx="500" cy="490" r="228" fill="#ffe0cc" stroke="#3a2430" stroke-width="9"/>
  <path d="M 288,532 Q 262,258 500,252 Q 738,258 712,532 Q 686,442 646,530 Q 614,436 556,534 Q 500,440 444,534 Q 386,436 354,530 Q 314,442 288,532 Z" fill="url(#hairG6)" stroke="#3a2430" stroke-width="9" stroke-linejoin="round"/><path d="M 500,262 Q 420,300 388,380 M 500,262 Q 580,300 612,380 M 500,258 Q 490,320 452,392" fill="none" stroke="#00000033" stroke-width="6" stroke-linecap="round"/><ellipse cx="440" cy="322" rx="92" ry="38" transform="rotate(-14 440 322)" fill="#ffffff2e"/>
  <circle cx="600" cy="230" r="20" fill="#ffb3c8" stroke="#3a2430" stroke-width="6"/><circle cx="626.6" cy="249.32" r="20" fill="#ffb3c8" stroke="#3a2430" stroke-width="6"/><circle cx="616.52" cy="280.68" r="20" fill="#ffb3c8" stroke="#3a2430" stroke-width="6"/><circle cx="583.48" cy="280.68" r="20" fill="#ffb3c8" stroke="#3a2430" stroke-width="6"/><circle cx="573.4" cy="249.32" r="20" fill="#ffb3c8" stroke="#3a2430" stroke-width="6"/><circle cx="600" cy="258" r="14" fill="#ffd76e" stroke="#3a2430" stroke-width="6"/>
  
    <g>
      <path d="M 340,418 q 32,-16 64,-6" fill="none" stroke="#3a2430" stroke-width="8" stroke-linecap="round" opacity="0.75"/>
      <path d="M 660,418 q -32,-16 -64,-6" fill="none" stroke="#3a2430" stroke-width="8" stroke-linecap="round" opacity="0.75"/>
      
    <ellipse cx="388" cy="540" rx="60" ry="76" fill="#fff"/>
    <ellipse cx="388" cy="544" rx="48" ry="66" fill="url(#eyeG6)"/>
    <ellipse cx="388" cy="554" rx="21" ry="32" fill="#140a10"/>
    <ellipse cx="372" cy="516" rx="17" ry="22" fill="#fff"/>
    <circle cx="406" cy="568" r="8" fill="#fff" opacity="0.95"/>
    <circle cx="358" cy="558" r="5" fill="#fff" opacity="0.8"/>
    <path d="M 330,506 Q 388,454 446,506" fill="none" stroke="#3a2430" stroke-width="15" stroke-linecap="round"/>
    <path d="M 442,498 q 14,-4 20,-16" fill="none" stroke="#3a2430" stroke-width="11" stroke-linecap="round"/>
    <path d="M 334,498 q -14,-4 -20,-16" fill="none" stroke="#3a2430" stroke-width="11" stroke-linecap="round"/>
    
      
    <ellipse cx="612" cy="540" rx="60" ry="76" fill="#fff"/>
    <ellipse cx="612" cy="544" rx="48" ry="66" fill="url(#eyeG6)"/>
    <ellipse cx="612" cy="554" rx="21" ry="32" fill="#140a10"/>
    <ellipse cx="596" cy="516" rx="17" ry="22" fill="#fff"/>
    <circle cx="630" cy="568" r="8" fill="#fff" opacity="0.95"/>
    <circle cx="582" cy="558" r="5" fill="#fff" opacity="0.8"/>
    <path d="M 554,506 Q 612,454 670,506" fill="none" stroke="#3a2430" stroke-width="15" stroke-linecap="round"/>
    <path d="M 666,498 q 14,-4 20,-16" fill="none" stroke="#3a2430" stroke-width="11" stroke-linecap="round"/>
    <path d="M 558,498 q -14,-4 -20,-16" fill="none" stroke="#3a2430" stroke-width="11" stroke-linecap="round"/>
    
      <ellipse cx="322" cy="620" rx="44" ry="24" fill="url(#blushG)"/>
      <ellipse cx="678" cy="620" rx="44" ry="24" fill="url(#blushG)"/>
      <path d="M 300,612 l 26,14 M 316,602 l 26,14" stroke="#ff9db9" stroke-width="6" stroke-linecap="round" opacity="0.7"/>
      <path d="M 674,602 l 26,14 M 658,612 l 26,14" stroke="#ff9db9" stroke-width="6" stroke-linecap="round" opacity="0.7"/>
      <circle cx="500" cy="608" r="4" fill="#eab89a"/>
      <path d="M 470,648 Q 500,684 530,648 Q 500,666 470,648 Z" fill="#d95a72" stroke="#3a2430" stroke-width="6" stroke-linejoin="round"/>
    </g>
  
    <path id="dressP" d="M 386,724 Q 500,698 614,724 L 668,1002 Q 500,1040 332,1002 Z" fill="url(#dressG6)" stroke="#3a2430" stroke-width="9" stroke-linejoin="round"/>
    <rect x="392" y="806" width="216" height="66" rx="10" fill="#ffd76e" stroke="#3a2430" stroke-width="8"/><g fill="#e0a52e" stroke="#3a2430" stroke-width="7" stroke-linejoin="round">
      <path d="M 500,839 L 456,811.72 Q 441.04,839 456,866.28 Z"/>
      <path d="M 500,839 L 544,811.72 Q 558.96,839 544,866.28 Z"/>
      <circle cx="500" cy="839" r="13.2"/>
    </g><path d="M 452,712 L 528,806 M 548,712 L 486,780" stroke="#3a2430" stroke-width="8" fill="none" stroke-linecap="round"/>
    
    <circle cx="356" cy="768" r="36" fill="url(#dressG6)" stroke="#3a2430" stroke-width="9"/>
    <circle cx="644" cy="768" r="36" fill="url(#dressG6)" stroke="#3a2430" stroke-width="9"/>
  <ellipse cx="446" cy="1052" rx="36" ry="20" fill="#ffd76e" stroke="#3a2430" stroke-width="9"/><ellipse cx="554" cy="1052" rx="36" ry="20" fill="#ffd76e" stroke="#3a2430" stroke-width="9"/>
  
    <g stroke="#3a2430" stroke-width="9" stroke-linejoin="round" stroke-linecap="round">
      <path d="M 446,850 L 456,986 Q 500,1000 544,986 L 554,850 Z" fill="#fff5fa"/>
      <path d="M 446,902 L 452,976 Q 500,990 548,976 L 554,902 Q 500,920 446,902 Z" fill="#c8956a" stroke="none"/>
      <circle cx="474" cy="960" r="11" fill="#3a2430"/><circle cx="504" cy="972" r="11" fill="#3a2430"/><circle cx="530" cy="956" r="11" fill="#3a2430"/>
      <ellipse cx="500" cy="848" rx="56" ry="16" fill="#fff"/>
      <line x1="520" y1="846" x2="548" y2="788" stroke="#8a5a3a" stroke-width="16"/>
      <circle cx="438" cy="912" r="27" fill="#ffe0cc"/>
      <circle cx="562" cy="912" r="27" fill="#ffe0cc"/>
    </g>
  <g fill="#ffb3c8"><g transform="translate(355.7,1190.0) rotate(0) scale(0.05200,-0.05200) translate(-279.0,0)"><path d="M483 534Q483 513 473.5 493.5Q464 474 451 464Q424 476 394.5 482.5Q365 489 340 489Q281 489 248.0 457.5Q215 426 204 367Q224 381 257.0 392.5Q290 404 325 404Q417 404 471.5 350.5Q526 297 526 199Q526 142 499.0 93.0Q472 44 419.5 14.0Q367 -16 288 -16Q210 -16 153.0 19.5Q96 55 65.5 123.0Q35 191 35 288Q35 371 55.5 434.0Q76 497 114.0 539.0Q152 581 203.5 602.0Q255 623 318 623Q371 623 408.0 613.0Q445 603 464.0 583.5Q483 564 483 534ZM289 119Q322 119 338.5 141.0Q355 163 355 198Q355 233 337.5 253.5Q320 274 287 274Q268 274 246.5 266.0Q225 258 212 244V219Q212 166 234.5 142.5Q257 119 289 119Z"/></g><g transform="translate(376.4,1190.0) rotate(0) scale(0.05200,-0.05200) translate(-119.0,0)"><path d="M22 81Q22 122 48.5 150.5Q75 179 119 179Q163 179 189.5 150.5Q216 122 216 81Q216 40 189.5 11.5Q163 -17 119 -17Q75 -17 48.5 11.5Q22 40 22 81Z"/></g><g transform="translate(407.9,1190.0) rotate(0) scale(0.05200,-0.05200) translate(-287.0,0)"><path d="M377 188H220Q195 225 164.0 273.5Q133 322 102.5 374.0Q72 426 46.0 474.5Q20 523 5 561Q18 579 40.5 594.0Q63 609 96 609Q135 609 159.5 593.0Q184 577 206 533Q217 511 228.0 489.0Q239 467 250.0 444.5Q261 422 272.0 400.0Q283 378 294 356H300Q319 398 333.5 433.0Q348 468 362.5 505.5Q377 543 396 590Q414 599 436.0 604.0Q458 609 478 609Q513 609 537.5 590.5Q562 572 562 535Q562 523 555.0 502.5Q548 482 528.5 444.5Q509 407 472.5 345.0Q436 283 377 188ZM212 248H383V1Q372 -2 349.5 -5.0Q327 -8 304 -8Q252 -8 232.0 10.0Q212 28 212 73Z"/></g><g transform="translate(438.0,1190.0) rotate(0) scale(0.05200,-0.05200) translate(-291.0,0)"><path d="M52 193V259H222V193Q222 153 242.5 135.0Q263 117 300 117Q323 117 338.0 121.0Q353 125 360 129V259H530V104Q530 79 519.5 60.5Q509 42 488 29Q453 7 404.5 -4.5Q356 -16 299 -16Q227 -16 171.0 5.5Q115 27 83.5 73.0Q52 119 52 193ZM530 216H360V484Q371 487 391.5 490.0Q412 493 436 493Q486 493 508.0 476.5Q530 460 530 413ZM222 216H52V484Q63 487 83.5 490.0Q104 493 128 493Q178 493 200.0 476.5Q222 460 222 413Z"/></g><g transform="translate(467.6,1190.0) rotate(0) scale(0.05200,-0.05200) translate(-277.5,0)"><path d="M295 186 171 263 396 493Q448 493 479.5 470.0Q511 447 511 412Q511 382 490.0 359.0Q469 336 425 298ZM179 239 316 298 527 88Q523 42 500.0 16.5Q477 -9 434 -9Q403 -9 377.5 6.5Q352 22 323 59ZM54 264H224V1Q213 -2 192.5 -5.0Q172 -8 148 -8Q99 -8 76.5 9.0Q54 26 54 72ZM224 175H54V652Q65 655 85.5 658.0Q106 661 130 661Q180 661 202.0 644.5Q224 628 224 581Z"/></g><g transform="translate(496.1,1190.0) rotate(0) scale(0.05200,-0.05200) translate(-272.0,0)"><path d="M260 108Q277 108 297.5 111.5Q318 115 328 121V201L256 195Q228 193 210.0 183.0Q192 173 192 153Q192 133 207.5 120.5Q223 108 260 108ZM252 501Q361 501 426.5 456.5Q492 412 492 318V94Q492 68 477.5 51.5Q463 35 443 23Q411 4 365.0 -6.0Q319 -16 260 -16Q155 -16 91.5 24.5Q28 65 28 147Q28 216 69.5 253.0Q111 290 196 299L327 313V320Q327 349 301.5 361.5Q276 374 228 374Q191 374 154.5 366.0Q118 358 89 346Q76 355 67.0 373.5Q58 392 58 412Q58 460 109 480Q138 491 177.5 496.0Q217 501 252 501Z"/></g><g transform="translate(520.6,1190.0) rotate(0) scale(0.05200,-0.05200) translate(-198.5,0)"><path d="M54 264H222V167Q222 142 238.5 130.5Q255 119 285 119Q300 119 316.0 121.5Q332 124 344 128Q353 118 359.5 104.0Q366 90 366 71Q366 34 337.5 9.5Q309 -15 237 -15Q149 -15 101.5 25.0Q54 65 54 155ZM164 345V475H353Q359 465 364.5 448.0Q370 431 370 411Q370 376 354.5 360.5Q339 345 313 345ZM222 240H54V599Q65 602 85.5 605.5Q106 609 129 609Q178 609 200.0 592.0Q222 575 222 529Z"/></g><g transform="translate(545.1,1190.0) rotate(0) scale(0.05200,-0.05200) translate(-272.0,0)"><path d="M260 108Q277 108 297.5 111.5Q318 115 328 121V201L256 195Q228 193 210.0 183.0Q192 173 192 153Q192 133 207.5 120.5Q223 108 260 108ZM252 501Q361 501 426.5 456.5Q492 412 492 318V94Q492 68 477.5 51.5Q463 35 443 23Q411 4 365.0 -6.0Q319 -16 260 -16Q155 -16 91.5 24.5Q28 65 28 147Q28 216 69.5 253.0Q111 290 196 299L327 313V320Q327 349 301.5 361.5Q276 374 228 374Q191 374 154.5 366.0Q118 358 89 346Q76 355 67.0 373.5Q58 392 58 412Q58 460 109 480Q138 491 177.5 496.0Q217 501 252 501Z"/></g><g transform="translate(584.8,1190.0) rotate(0) scale(0.05200,-0.05200) translate(-292.5,0)"><path d="M532 205H362V294Q362 335 341.5 351.5Q321 368 291 368Q261 368 238.0 357.0Q215 346 198 333V470Q221 482 253.0 491.5Q285 501 323 501Q421 501 476.5 451.5Q532 402 532 304ZM54 264H224V1Q213 -2 192.5 -5.0Q172 -8 148 -8Q99 -8 76.5 9.0Q54 26 54 72ZM362 264H532V1Q521 -2 500.5 -5.0Q480 -8 456 -8Q407 -8 384.5 9.0Q362 26 362 72ZM224 175H54V652Q65 655 85.5 658.0Q106 661 130 661Q180 661 202.0 644.5Q224 628 224 581Z"/></g><g transform="translate(615.3,1190.0) rotate(0) scale(0.05200,-0.05200) translate(-293.0,0)"><path d="M555 243Q555 163 522.6828193832599 105.08823529411765Q490.36563876651985 47.1764705882353 431.5022026431718 15.588235294117649Q372.6387665198238 -16 293 -16Q213.97093023255815 -16 154.98546511627907 15.0Q96 46 63.5 104.0Q31 162 31 243Q31 322.48369565217394 64.0 380.241847826087Q97 438 156.0 469.5Q215 501 293.3728813559322 501Q371.7457627118644 501 430.52542372881356 469.0473372781065Q489.3050847457627 437.094674556213 522.1525423728814 379.0473372781065Q555 321 555 243ZM292.7688679245283 368Q252 368 228.5 335.5Q205 303 205 243Q205 181 228.2054794520548 149.0Q251.41095890410958 117 293 117Q335 117 358.0 149.5Q381 182 381 243Q381 302 357.5731132075472 335.0Q334.14622641509436 368 292.7688679245283 368Z"/></g><g transform="translate(644.6,1190.0) rotate(0) scale(0.05200,-0.05200) translate(-272.0,0)"><path d="M260 108Q277 108 297.5 111.5Q318 115 328 121V201L256 195Q228 193 210.0 183.0Q192 173 192 153Q192 133 207.5 120.5Q223 108 260 108ZM252 501Q361 501 426.5 456.5Q492 412 492 318V94Q492 68 477.5 51.5Q463 35 443 23Q411 4 365.0 -6.0Q319 -16 260 -16Q155 -16 91.5 24.5Q28 65 28 147Q28 216 69.5 253.0Q111 290 196 299L327 313V320Q327 349 301.5 361.5Q276 374 228 374Q191 374 154.5 366.0Q118 358 89 346Q76 355 67.0 373.5Q58 392 58 412Q58 460 109 480Q138 491 177.5 496.0Q217 501 252 501Z"/></g></g>
</svg>